%FSLAX45Y45*%
G04 Gerber Fmt 4.5, Leading zero omitted, Abs format (unit mm)*
G04 Created by KiCad (PCBNEW 0.201501280107+5391~20~ubuntu14.10.1-product) date Fre 06 Feb 2015 15:11:57 CET*
%MOMM*%
G01*
G04 APERTURE LIST*
%ADD10C,0.127000*%
%ADD11C,0.254000*%
%ADD12C,0.200000*%
%ADD13C,0.300000*%
G04 APERTURE END LIST*
D10*
D11*
X-11220450Y20643850D02*
X-11220450Y19831050D01*
X-11893550Y20643850D02*
X-11220450Y20643850D01*
X-11893550Y19831050D02*
X-11893550Y20643850D01*
X-11220450Y24974550D02*
X-11220450Y25787350D01*
X-11893550Y24974550D02*
X-11220450Y24974550D01*
X-11893550Y25787350D02*
X-11893550Y24974550D01*
X-7804150Y24974550D02*
X-7258050Y24974550D01*
X-7804150Y25787350D02*
X-7804150Y24974550D01*
X-7804150Y20643850D02*
X-7258050Y20643850D01*
X-7804150Y19831050D02*
X-7804150Y20643850D01*
X-13582650Y25673050D02*
X-13709650Y25673050D01*
X-13582650Y25787350D02*
X-13582650Y25673050D01*
X-11893550Y25787350D02*
X-13582650Y25787350D01*
X-7804150Y25787350D02*
X-11220450Y25787350D01*
X-11220450Y19831050D02*
X-7804150Y19831050D01*
X-13595350Y19831050D02*
X-11893550Y19831050D01*
X-13595350Y19958050D02*
X-13595350Y19831050D01*
X-13709650Y19958050D02*
X-13595350Y19958050D01*
X-13709650Y25673050D02*
X-13709650Y19958050D01*
X-7258050Y20649190D02*
X-7258050Y24969200D01*
D12*
X-13628700Y25069200D02*
X-13508700Y24949200D01*
X-13508700Y25069200D02*
X-13628700Y24949200D01*
X-13628700Y24069200D02*
X-13508700Y23949200D01*
X-13508700Y24069200D02*
X-13628700Y23949200D01*
X-13378700Y25069200D02*
X-13258700Y24949200D01*
X-13258700Y25069200D02*
X-13378700Y24949200D01*
X-13378700Y24069200D02*
X-13258700Y23949200D01*
X-13258700Y24069200D02*
X-13378700Y23949200D01*
X-12878700Y24569200D02*
X-12758700Y24449200D01*
X-12758700Y24569200D02*
X-12878700Y24449200D01*
D13*
X-13450921Y19352636D02*
X-13450921Y19652636D01*
X-13379493Y19652636D01*
X-13336636Y19638350D01*
X-13308064Y19609779D01*
X-13293779Y19581207D01*
X-13279493Y19524064D01*
X-13279493Y19481207D01*
X-13293779Y19424064D01*
X-13308064Y19395493D01*
X-13336636Y19366921D01*
X-13379493Y19352636D01*
X-13450921Y19352636D01*
X-13150921Y19352636D02*
X-13150921Y19552636D01*
X-13150921Y19495493D02*
X-13136636Y19524064D01*
X-13122350Y19538350D01*
X-13093779Y19552636D01*
X-13065207Y19552636D01*
X-12965207Y19352636D02*
X-12965207Y19552636D01*
X-12965207Y19652636D02*
X-12979493Y19638350D01*
X-12965207Y19624064D01*
X-12950921Y19638350D01*
X-12965207Y19652636D01*
X-12965207Y19624064D01*
X-12779493Y19352636D02*
X-12808064Y19366921D01*
X-12822350Y19395493D01*
X-12822350Y19652636D01*
X-12622350Y19352636D02*
X-12650921Y19366921D01*
X-12665207Y19395493D01*
X-12665207Y19652636D01*
X-12279493Y19352636D02*
X-12279493Y19652636D01*
X-12179493Y19438350D01*
X-12079493Y19652636D01*
X-12079493Y19352636D01*
X-11808064Y19352636D02*
X-11808064Y19509779D01*
X-11822350Y19538350D01*
X-11850921Y19552636D01*
X-11908064Y19552636D01*
X-11936636Y19538350D01*
X-11808064Y19366921D02*
X-11836636Y19352636D01*
X-11908064Y19352636D01*
X-11936636Y19366921D01*
X-11950921Y19395493D01*
X-11950921Y19424064D01*
X-11936636Y19452636D01*
X-11908064Y19466921D01*
X-11836636Y19466921D01*
X-11808064Y19481207D01*
X-11665207Y19552636D02*
X-11665207Y19252636D01*
X-11665207Y19538350D02*
X-11636636Y19552636D01*
X-11579493Y19552636D01*
X-11550921Y19538350D01*
X-11536636Y19524064D01*
X-11522350Y19495493D01*
X-11522350Y19409779D01*
X-11536636Y19381207D01*
X-11550921Y19366921D01*
X-11579493Y19352636D01*
X-11636636Y19352636D01*
X-11665207Y19366921D01*
X-11393779Y19381207D02*
X-11379493Y19366921D01*
X-11393779Y19352636D01*
X-11408064Y19366921D01*
X-11393779Y19381207D01*
X-11393779Y19352636D01*
X-11393779Y19538350D02*
X-11379493Y19524064D01*
X-11393779Y19509779D01*
X-11408064Y19524064D01*
X-11393779Y19538350D01*
X-11393779Y19509779D01*
X-13842350Y18918350D02*
X-13722350Y18798350D01*
X-13722350Y18918350D02*
X-13842350Y18798350D01*
X-13293779Y18722636D02*
X-13465207Y18722636D01*
X-13379493Y18722636D02*
X-13379493Y19022636D01*
X-13408064Y18979779D01*
X-13436636Y18951207D01*
X-13465207Y18936921D01*
X-13165207Y18751207D02*
X-13150921Y18736921D01*
X-13165207Y18722636D01*
X-13179493Y18736921D01*
X-13165207Y18751207D01*
X-13165207Y18722636D01*
X-13036636Y18994064D02*
X-13022350Y19008350D01*
X-12993779Y19022636D01*
X-12922350Y19022636D01*
X-12893779Y19008350D01*
X-12879493Y18994064D01*
X-12865207Y18965493D01*
X-12865207Y18936921D01*
X-12879493Y18894064D01*
X-13050922Y18722636D01*
X-12865207Y18722636D01*
X-12679493Y19022636D02*
X-12650921Y19022636D01*
X-12622350Y19008350D01*
X-12608064Y18994064D01*
X-12593779Y18965493D01*
X-12579493Y18908350D01*
X-12579493Y18836921D01*
X-12593779Y18779779D01*
X-12608064Y18751207D01*
X-12622350Y18736921D01*
X-12650921Y18722636D01*
X-12679493Y18722636D01*
X-12708064Y18736921D01*
X-12722350Y18751207D01*
X-12736636Y18779779D01*
X-12750921Y18836921D01*
X-12750921Y18908350D01*
X-12736636Y18965493D01*
X-12722350Y18994064D01*
X-12708064Y19008350D01*
X-12679493Y19022636D01*
X-12450921Y18722636D02*
X-12450921Y18922636D01*
X-12450921Y18894064D02*
X-12436636Y18908350D01*
X-12408064Y18922636D01*
X-12365207Y18922636D01*
X-12336636Y18908350D01*
X-12322350Y18879779D01*
X-12322350Y18722636D01*
X-12322350Y18879779D02*
X-12308064Y18908350D01*
X-12279493Y18922636D01*
X-12236636Y18922636D01*
X-12208064Y18908350D01*
X-12193779Y18879779D01*
X-12193779Y18722636D01*
X-12050921Y18722636D02*
X-12050921Y18922636D01*
X-12050921Y18894064D02*
X-12036636Y18908350D01*
X-12008064Y18922636D01*
X-11965207Y18922636D01*
X-11936636Y18908350D01*
X-11922350Y18879779D01*
X-11922350Y18722636D01*
X-11922350Y18879779D02*
X-11908064Y18908350D01*
X-11879493Y18922636D01*
X-11836636Y18922636D01*
X-11808064Y18908350D01*
X-11793779Y18879779D01*
X-11793779Y18722636D01*
X-11208064Y19036921D02*
X-11465207Y18651207D01*
X-10822350Y19022636D02*
X-10793779Y19022636D01*
X-10765207Y19008350D01*
X-10750922Y18994064D01*
X-10736636Y18965493D01*
X-10722350Y18908350D01*
X-10722350Y18836921D01*
X-10736636Y18779779D01*
X-10750922Y18751207D01*
X-10765207Y18736921D01*
X-10793779Y18722636D01*
X-10822350Y18722636D01*
X-10850922Y18736921D01*
X-10865207Y18751207D01*
X-10879493Y18779779D01*
X-10893779Y18836921D01*
X-10893779Y18908350D01*
X-10879493Y18965493D01*
X-10865207Y18994064D01*
X-10850922Y19008350D01*
X-10822350Y19022636D01*
X-10593779Y18751207D02*
X-10579493Y18736921D01*
X-10593779Y18722636D01*
X-10608064Y18736921D01*
X-10593779Y18751207D01*
X-10593779Y18722636D01*
X-10393779Y19022636D02*
X-10365207Y19022636D01*
X-10336636Y19008350D01*
X-10322350Y18994064D01*
X-10308065Y18965493D01*
X-10293779Y18908350D01*
X-10293779Y18836921D01*
X-10308065Y18779779D01*
X-10322350Y18751207D01*
X-10336636Y18736921D01*
X-10365207Y18722636D01*
X-10393779Y18722636D01*
X-10422350Y18736921D01*
X-10436636Y18751207D01*
X-10450922Y18779779D01*
X-10465207Y18836921D01*
X-10465207Y18908350D01*
X-10450922Y18965493D01*
X-10436636Y18994064D01*
X-10422350Y19008350D01*
X-10393779Y19022636D01*
X-10036636Y18922636D02*
X-10036636Y18722636D01*
X-10108065Y19036921D02*
X-10179493Y18822636D01*
X-9993779Y18822636D01*
X-9908065Y19022636D02*
X-9708065Y19022636D01*
X-9836636Y18722636D01*
X-9608064Y19022636D02*
X-9608064Y18965493D01*
X-9493779Y19022636D02*
X-9493779Y18965493D01*
X-9050922Y18608350D02*
X-9065207Y18622636D01*
X-9093779Y18665493D01*
X-9108065Y18694064D01*
X-9122350Y18736921D01*
X-9136636Y18808350D01*
X-9136636Y18865493D01*
X-9122350Y18936921D01*
X-9108065Y18979779D01*
X-9093779Y19008350D01*
X-9065207Y19051207D01*
X-9050922Y19065493D01*
X-8793779Y19022636D02*
X-8936636Y19022636D01*
X-8950922Y18879779D01*
X-8936636Y18894064D01*
X-8908065Y18908350D01*
X-8836636Y18908350D01*
X-8808065Y18894064D01*
X-8793779Y18879779D01*
X-8779493Y18851207D01*
X-8779493Y18779779D01*
X-8793779Y18751207D01*
X-8808065Y18736921D01*
X-8836636Y18722636D01*
X-8908065Y18722636D01*
X-8936636Y18736921D01*
X-8950922Y18751207D01*
X-8422350Y18722636D02*
X-8422350Y19022636D01*
X-8293779Y18722636D02*
X-8293779Y18879779D01*
X-8308064Y18908350D01*
X-8336636Y18922636D01*
X-8379493Y18922636D01*
X-8408065Y18908350D01*
X-8422350Y18894064D01*
X-8108064Y18722636D02*
X-8136636Y18736921D01*
X-8150922Y18751207D01*
X-8165207Y18779779D01*
X-8165207Y18865493D01*
X-8150922Y18894064D01*
X-8136636Y18908350D01*
X-8108064Y18922636D01*
X-8065207Y18922636D01*
X-8036636Y18908350D01*
X-8022350Y18894064D01*
X-8008064Y18865493D01*
X-8008064Y18779779D01*
X-8022350Y18751207D01*
X-8036636Y18736921D01*
X-8065207Y18722636D01*
X-8108064Y18722636D01*
X-7836636Y18722636D02*
X-7865207Y18736921D01*
X-7879493Y18765493D01*
X-7879493Y19022636D01*
X-7608064Y18736921D02*
X-7636636Y18722636D01*
X-7693779Y18722636D01*
X-7722350Y18736921D01*
X-7736636Y18765493D01*
X-7736636Y18879779D01*
X-7722350Y18908350D01*
X-7693779Y18922636D01*
X-7636636Y18922636D01*
X-7608064Y18908350D01*
X-7593779Y18879779D01*
X-7593779Y18851207D01*
X-7736636Y18822636D01*
X-7479493Y18736921D02*
X-7450921Y18722636D01*
X-7393779Y18722636D01*
X-7365207Y18736921D01*
X-7350921Y18765493D01*
X-7350921Y18779779D01*
X-7365207Y18808350D01*
X-7393779Y18822636D01*
X-7436636Y18822636D01*
X-7465207Y18836921D01*
X-7479493Y18865493D01*
X-7479493Y18879779D01*
X-7465207Y18908350D01*
X-7436636Y18922636D01*
X-7393779Y18922636D01*
X-7365207Y18908350D01*
X-7250922Y18608350D02*
X-7236636Y18622636D01*
X-7208064Y18665493D01*
X-7193779Y18694064D01*
X-7179493Y18736921D01*
X-7165207Y18808350D01*
X-7165207Y18865493D01*
X-7179493Y18936921D01*
X-7193779Y18979779D01*
X-7208064Y19008350D01*
X-7236636Y19051207D01*
X-7250922Y19065493D01*
M02*
