G04 #@! TF.FileFunction,Copper,L4,Bot,Signal*
%FSLAX46Y46*%
G04 Gerber Fmt 4.6, Leading zero omitted, Abs format (unit mm)*
G04 Created by KiCad (PCBNEW 0.201501280107+5391~20~ubuntu14.10.1-product) date Fre 06 Feb 2015 15:11:44 CET*
%MOMM*%
G01*
G04 APERTURE LIST*
%ADD10C,0.150000*%
%ADD11R,0.698500X1.798320*%
%ADD12R,1.798320X0.698500*%
%ADD13R,0.500000X0.600000*%
%ADD14R,0.600000X0.500000*%
%ADD15O,2.844800X1.422400*%
%ADD16C,2.184400*%
%ADD17O,3.556000X1.778000*%
%ADD18C,1.879600*%
%ADD19C,1.524000*%
%ADD20C,0.700000*%
%ADD21C,0.280000*%
G04 APERTURE END LIST*
D10*
D11*
X-103441500Y203517500D03*
X-103441500Y199453500D03*
X-102171500Y203517500D03*
X-102171500Y199453500D03*
X-100901500Y203517500D03*
X-100901500Y199453500D03*
X-99631500Y203517500D03*
X-99631500Y199453500D03*
X-98361500Y203517500D03*
X-98361500Y199453500D03*
X-97091500Y203517500D03*
X-97091500Y199453500D03*
X-95821500Y203517500D03*
X-95821500Y199453500D03*
X-94551500Y203517500D03*
X-94551500Y199453500D03*
X-93281500Y203517500D03*
X-93281500Y199453500D03*
X-92011500Y203517500D03*
X-92011500Y199453500D03*
X-90741500Y203517500D03*
X-90741500Y199453500D03*
X-89471500Y203517500D03*
X-89471500Y199453500D03*
X-88201500Y203517500D03*
X-88201500Y199453500D03*
X-86931500Y203517500D03*
X-86931500Y199453500D03*
X-85661500Y203517500D03*
X-85661500Y199453500D03*
X-84391500Y203517500D03*
X-84391500Y199453500D03*
X-83121500Y203517500D03*
X-83121500Y199453500D03*
X-81851500Y203517500D03*
X-81851500Y199453500D03*
X-80581500Y203517500D03*
X-80581500Y199453500D03*
X-79311500Y203517500D03*
X-79311500Y199453500D03*
X-111061500Y250507500D03*
X-111061500Y246443500D03*
X-109791500Y250507500D03*
X-109791500Y246443500D03*
X-108521500Y250507500D03*
X-108521500Y246443500D03*
X-107251500Y250507500D03*
X-107251500Y246443500D03*
X-105981500Y250507500D03*
X-105981500Y246443500D03*
X-104711500Y250507500D03*
X-104711500Y246443500D03*
X-103441500Y250507500D03*
X-103441500Y246443500D03*
X-102171500Y250507500D03*
X-102171500Y246443500D03*
X-100901500Y250507500D03*
X-100901500Y246443500D03*
X-99631500Y250507500D03*
X-99631500Y246443500D03*
X-98361500Y250507500D03*
X-98361500Y246443500D03*
X-97091500Y250507500D03*
X-97091500Y246443500D03*
X-95821500Y250507500D03*
X-95821500Y246443500D03*
X-94551500Y250507500D03*
X-94551500Y246443500D03*
X-93281500Y250507500D03*
X-93281500Y246443500D03*
X-92011500Y250507500D03*
X-92011500Y246443500D03*
X-90741500Y250507500D03*
X-90741500Y246443500D03*
X-89471500Y250507500D03*
X-89471500Y246443500D03*
X-88201500Y250507500D03*
X-88201500Y246443500D03*
X-86931500Y250507500D03*
X-86931500Y246443500D03*
X-103441500Y256857500D03*
X-103441500Y252793500D03*
X-102171500Y256857500D03*
X-102171500Y252793500D03*
X-100901500Y256857500D03*
X-100901500Y252793500D03*
X-99631500Y256857500D03*
X-99631500Y252793500D03*
X-98361500Y256857500D03*
X-98361500Y252793500D03*
X-97091500Y256857500D03*
X-97091500Y252793500D03*
X-95821500Y256857500D03*
X-95821500Y252793500D03*
X-94551500Y256857500D03*
X-94551500Y252793500D03*
X-93281500Y256857500D03*
X-93281500Y252793500D03*
X-92011500Y256857500D03*
X-92011500Y252793500D03*
X-90741500Y256857500D03*
X-90741500Y252793500D03*
X-89471500Y256857500D03*
X-89471500Y252793500D03*
X-88201500Y256857500D03*
X-88201500Y252793500D03*
X-86931500Y256857500D03*
X-86931500Y252793500D03*
X-85661500Y256857500D03*
X-85661500Y252793500D03*
X-84391500Y256857500D03*
X-84391500Y252793500D03*
X-83121500Y256857500D03*
X-83121500Y252793500D03*
X-81851500Y256857500D03*
X-81851500Y252793500D03*
X-80581500Y256857500D03*
X-80581500Y252793500D03*
X-79311500Y256857500D03*
X-79311500Y252793500D03*
D12*
X-124269500Y245681500D03*
X-120205500Y245681500D03*
X-124269500Y246951500D03*
X-120205500Y246951500D03*
X-124269500Y248221500D03*
X-120205500Y248221500D03*
X-124269500Y249491500D03*
X-120205500Y249491500D03*
X-124269500Y250761500D03*
X-120205500Y250761500D03*
X-124269500Y252031500D03*
X-120205500Y252031500D03*
X-124269500Y253301500D03*
X-120205500Y253301500D03*
X-124269500Y254571500D03*
X-120205500Y254571500D03*
X-124269500Y255841500D03*
X-120205500Y255841500D03*
X-124269500Y257111500D03*
X-120205500Y257111500D03*
D13*
X-108687000Y231542000D03*
X-108687000Y232642000D03*
X-107187000Y231542000D03*
X-107187000Y232642000D03*
X-101687000Y233542000D03*
X-101687000Y234642000D03*
X-102687000Y233542000D03*
X-102687000Y234642000D03*
X-107687000Y220542000D03*
X-107687000Y221642000D03*
X-109187000Y220542000D03*
X-109187000Y221642000D03*
D14*
X-107737000Y230092000D03*
X-106637000Y230092000D03*
X-107737000Y223592000D03*
X-106637000Y223592000D03*
X-106237000Y225092000D03*
X-105137000Y225092000D03*
X-107237000Y226092000D03*
X-106137000Y226092000D03*
X-106237000Y227592000D03*
X-105137000Y227592000D03*
X-107737000Y229092000D03*
X-106637000Y229092000D03*
D13*
X-100187000Y233542000D03*
X-100187000Y234642000D03*
X-102187000Y230042000D03*
X-102187000Y231142000D03*
X-103687000Y229542000D03*
X-103687000Y230642000D03*
X-104687000Y229042000D03*
X-104687000Y230142000D03*
D14*
X-101237000Y226592000D03*
X-100137000Y226592000D03*
X-99737000Y225092000D03*
X-98637000Y225092000D03*
D13*
X-101687000Y222042000D03*
X-101687000Y223142000D03*
X-103187000Y223542000D03*
X-103187000Y224642000D03*
X-106687000Y220042000D03*
X-106687000Y221142000D03*
D14*
X-100237000Y230092000D03*
X-99137000Y230092000D03*
X-100737000Y228092000D03*
X-99637000Y228092000D03*
X-100237000Y223592000D03*
X-99137000Y223592000D03*
X-100237000Y221592000D03*
X-99137000Y221592000D03*
D13*
X-104687000Y222042000D03*
X-104687000Y223142000D03*
D15*
X-74687000Y242052000D03*
X-74687000Y244592000D03*
X-74687000Y247132000D03*
D16*
X-128187000Y250092000D03*
X-128187000Y247592000D03*
X-133187000Y245092000D03*
X-128187000Y240092000D03*
X-128187000Y242592000D03*
D17*
X-127987000Y235842000D03*
X-133987000Y235842000D03*
X-133987000Y221342000D03*
X-127987000Y221342000D03*
D18*
X-78947600Y213340800D03*
X-78947600Y219843200D03*
X-74426400Y213340800D03*
X-74426400Y219843200D03*
D19*
X-79457000Y236172000D03*
X-76917000Y236172000D03*
X-79457000Y233632000D03*
X-76917000Y233632000D03*
X-79457000Y231092000D03*
X-76917000Y231092000D03*
X-79457000Y228552000D03*
X-76917000Y228552000D03*
X-79457000Y226012000D03*
X-76917000Y226012000D03*
D20*
X-114837000Y228342000D03*
X-121687000Y225342000D03*
X-113587000Y228342000D03*
X-120687000Y225342000D03*
X-97987000Y214892000D03*
X-96387000Y214192000D03*
X-95087000Y213492000D03*
X-93787000Y212792000D03*
X-92387000Y212292000D03*
X-91087000Y211592000D03*
X-89887000Y210892000D03*
X-88587000Y210092000D03*
X-87387000Y209492000D03*
X-85987000Y208692000D03*
X-84687000Y207992000D03*
X-83434002Y207347835D03*
X-82387000Y206692000D03*
X-80987000Y205992000D03*
X-79787000Y205292000D03*
X-122437000Y254592000D03*
X-121687000Y253342000D03*
D21*
X-97091500Y213996500D02*
X-97987000Y214892000D01*
X-97091500Y203517500D02*
X-97091500Y213996500D01*
X-95821500Y213626500D02*
X-96387000Y214192000D01*
X-95821500Y203517500D02*
X-95821500Y213626500D01*
X-94551500Y203517500D02*
X-94551500Y212956500D01*
X-94551500Y212956500D02*
X-95087000Y213492000D01*
X-93281500Y212286500D02*
X-93787000Y212792000D01*
X-93281500Y203517500D02*
X-93281500Y212286500D01*
X-92011500Y203517500D02*
X-92011500Y211916500D01*
X-92011500Y211916500D02*
X-92387000Y212292000D01*
X-91087000Y211592000D02*
X-90687000Y211192000D01*
X-90687000Y211192000D02*
X-90687000Y203572000D01*
X-90687000Y203572000D02*
X-90741500Y203517500D01*
X-89487000Y210492000D02*
X-89887000Y210892000D01*
X-89487000Y203533000D02*
X-89487000Y210492000D01*
X-89471500Y203517500D02*
X-89487000Y203533000D01*
X-88187000Y203532000D02*
X-88187000Y209692000D01*
X-88187000Y209692000D02*
X-88587000Y210092000D01*
X-88201500Y203517500D02*
X-88187000Y203532000D01*
X-86931500Y209036500D02*
X-87387000Y209492000D01*
X-86931500Y203517500D02*
X-86931500Y209036500D01*
X-85687000Y208392000D02*
X-85987000Y208692000D01*
X-85687000Y203543000D02*
X-85687000Y208392000D01*
X-85661500Y203517500D02*
X-85687000Y203543000D01*
X-84391500Y203517500D02*
X-84387000Y203522000D01*
X-84387000Y203522000D02*
X-84387000Y207692000D01*
X-84387000Y207692000D02*
X-84687000Y207992000D01*
X-83121500Y203517500D02*
X-83121500Y207035333D01*
X-83121500Y207035333D02*
X-83434002Y207347835D01*
X-81851500Y206156500D02*
X-82387000Y206692000D01*
X-81851500Y203517500D02*
X-81851500Y206156500D01*
X-80581500Y203517500D02*
X-80581500Y205586500D01*
X-80581500Y205586500D02*
X-80987000Y205992000D01*
X-79311500Y204816500D02*
X-79787000Y205292000D01*
X-79311500Y203517500D02*
X-79311500Y204816500D01*
X-122437000Y254592000D02*
X-122437000Y253083840D01*
X-122437000Y253083840D02*
X-121384660Y252031500D01*
X-121384660Y252031500D02*
X-120205500Y252031500D01*
X-121687000Y253342000D02*
X-120246000Y253342000D01*
X-120246000Y253342000D02*
X-120205500Y253301500D01*
M02*
