G04 #@! TF.FileFunction,Legend,Bot*
%FSLAX46Y46*%
G04 Gerber Fmt 4.6, Leading zero omitted, Abs format (unit mm)*
G04 Created by KiCad (PCBNEW 0.201501280107+5391~20~ubuntu14.10.1-product) date Fre 06 Feb 2015 15:11:44 CET*
%MOMM*%
G01*
G04 APERTURE LIST*
%ADD10C,0.150000*%
%ADD11C,0.254000*%
%ADD12C,0.127000*%
%ADD13C,0.120000*%
%ADD14C,0.088900*%
G04 APERTURE END LIST*
D10*
D11*
X-103949500Y199961500D02*
X-104076500Y199961500D01*
X-104076500Y199961500D02*
X-104076500Y201485500D01*
X-104076500Y201485500D02*
X-104076500Y203009500D01*
X-104076500Y203009500D02*
X-103949500Y203009500D01*
X-78803500Y199961500D02*
X-78676500Y199961500D01*
X-78676500Y199961500D02*
X-78676500Y201485500D01*
X-78676500Y201485500D02*
X-78676500Y203009500D01*
X-78676500Y203009500D02*
X-78803500Y203009500D01*
X-104076500Y201485500D02*
X-102806500Y201485500D01*
X-102806500Y201485500D02*
X-101536500Y201485500D01*
X-101536500Y201485500D02*
X-100266500Y201485500D01*
X-100266500Y201485500D02*
X-98996500Y201485500D01*
X-98996500Y201485500D02*
X-97726500Y201485500D01*
X-97726500Y201485500D02*
X-96456500Y201485500D01*
X-96456500Y201485500D02*
X-95186500Y201485500D01*
X-95186500Y201485500D02*
X-93916500Y201485500D01*
X-93916500Y201485500D02*
X-92646500Y201485500D01*
X-92646500Y201485500D02*
X-91376500Y201485500D01*
X-91376500Y201485500D02*
X-90106500Y201485500D01*
X-90106500Y201485500D02*
X-88836500Y201485500D01*
X-88836500Y201485500D02*
X-87566500Y201485500D01*
X-87566500Y201485500D02*
X-86296500Y201485500D01*
X-86296500Y201485500D02*
X-85026500Y201485500D01*
X-85026500Y201485500D02*
X-83756500Y201485500D01*
X-83756500Y201485500D02*
X-82486500Y201485500D01*
X-82486500Y201485500D02*
X-81216500Y201485500D01*
X-81216500Y201485500D02*
X-79946500Y201485500D01*
X-79946500Y201485500D02*
X-78676500Y201485500D01*
X-102933500Y203009500D02*
X-102806500Y203009500D01*
X-102806500Y203009500D02*
X-102679500Y203009500D01*
X-101663500Y203009500D02*
X-101536500Y203009500D01*
X-101536500Y203009500D02*
X-101409500Y203009500D01*
X-100393500Y203009500D02*
X-100266500Y203009500D01*
X-100266500Y203009500D02*
X-100139500Y203009500D01*
X-99123500Y203009500D02*
X-98996500Y203009500D01*
X-98996500Y203009500D02*
X-98869500Y203009500D01*
X-97853500Y203009500D02*
X-97726500Y203009500D01*
X-97726500Y203009500D02*
X-97599500Y203009500D01*
X-96583500Y203009500D02*
X-96456500Y203009500D01*
X-96456500Y203009500D02*
X-96329500Y203009500D01*
X-95313500Y203009500D02*
X-95186500Y203009500D01*
X-95186500Y203009500D02*
X-95059500Y203009500D01*
X-94043500Y203009500D02*
X-93916500Y203009500D01*
X-93916500Y203009500D02*
X-93789500Y203009500D01*
X-92773500Y203009500D02*
X-92646500Y203009500D01*
X-92646500Y203009500D02*
X-92519500Y203009500D01*
X-91503500Y203009500D02*
X-91376500Y203009500D01*
X-91376500Y203009500D02*
X-91249500Y203009500D01*
X-90233500Y203009500D02*
X-90106500Y203009500D01*
X-90106500Y203009500D02*
X-89979500Y203009500D01*
X-88963500Y203009500D02*
X-88836500Y203009500D01*
X-88836500Y203009500D02*
X-88709500Y203009500D01*
X-87693500Y203009500D02*
X-87566500Y203009500D01*
X-87566500Y203009500D02*
X-87439500Y203009500D01*
X-86423500Y203009500D02*
X-86296500Y203009500D01*
X-86296500Y203009500D02*
X-86169500Y203009500D01*
X-85153500Y203009500D02*
X-85026500Y203009500D01*
X-85026500Y203009500D02*
X-84899500Y203009500D01*
X-83883500Y203009500D02*
X-83756500Y203009500D01*
X-83756500Y203009500D02*
X-83629500Y203009500D01*
X-82613500Y203009500D02*
X-82486500Y203009500D01*
X-82486500Y203009500D02*
X-82359500Y203009500D01*
X-81343500Y203009500D02*
X-81216500Y203009500D01*
X-81216500Y203009500D02*
X-81089500Y203009500D01*
X-80073500Y203009500D02*
X-79946500Y203009500D01*
X-79946500Y203009500D02*
X-79819500Y203009500D01*
X-80073500Y199961500D02*
X-79819500Y199961500D01*
X-81343500Y199961500D02*
X-81216500Y199961500D01*
X-81216500Y199961500D02*
X-81089500Y199961500D01*
X-82613500Y199961500D02*
X-82486500Y199961500D01*
X-82486500Y199961500D02*
X-82359500Y199961500D01*
X-83883500Y199961500D02*
X-83756500Y199961500D01*
X-83756500Y199961500D02*
X-83629500Y199961500D01*
X-85153500Y199961500D02*
X-85026500Y199961500D01*
X-85026500Y199961500D02*
X-84899500Y199961500D01*
X-86423500Y199961500D02*
X-86296500Y199961500D01*
X-86296500Y199961500D02*
X-86169500Y199961500D01*
X-87693500Y199961500D02*
X-87566500Y199961500D01*
X-87566500Y199961500D02*
X-87439500Y199961500D01*
X-88963500Y199961500D02*
X-88836500Y199961500D01*
X-88836500Y199961500D02*
X-88709500Y199961500D01*
X-90233500Y199961500D02*
X-90106500Y199961500D01*
X-90106500Y199961500D02*
X-89979500Y199961500D01*
X-91503500Y199961500D02*
X-91376500Y199961500D01*
X-91376500Y199961500D02*
X-91249500Y199961500D01*
X-92773500Y199961500D02*
X-92646500Y199961500D01*
X-92646500Y199961500D02*
X-92519500Y199961500D01*
X-94043500Y199961500D02*
X-93916500Y199961500D01*
X-93916500Y199961500D02*
X-93789500Y199961500D01*
X-95313500Y199961500D02*
X-95186500Y199961500D01*
X-95186500Y199961500D02*
X-95059500Y199961500D01*
X-96583500Y199961500D02*
X-96456500Y199961500D01*
X-96456500Y199961500D02*
X-96329500Y199961500D01*
X-97853500Y199961500D02*
X-97726500Y199961500D01*
X-97726500Y199961500D02*
X-97599500Y199961500D01*
X-99123500Y199961500D02*
X-98996500Y199961500D01*
X-98996500Y199961500D02*
X-98869500Y199961500D01*
X-100393500Y199961500D02*
X-100266500Y199961500D01*
X-100266500Y199961500D02*
X-100139500Y199961500D01*
X-101663500Y199961500D02*
X-101536500Y199961500D01*
X-101536500Y199961500D02*
X-101409500Y199961500D01*
X-102933500Y199961500D02*
X-102806500Y199961500D01*
X-102806500Y199961500D02*
X-102679500Y199961500D01*
X-102806500Y203009500D02*
X-102806500Y201485500D01*
X-101536500Y203009500D02*
X-101536500Y201485500D01*
X-100266500Y203009500D02*
X-100266500Y201485500D01*
X-98996500Y203009500D02*
X-98996500Y201485500D01*
X-97726500Y203009500D02*
X-97726500Y201485500D01*
X-96456500Y203009500D02*
X-96456500Y201485500D01*
X-95186500Y203009500D02*
X-95186500Y201485500D01*
X-93916500Y203009500D02*
X-93916500Y201485500D01*
X-102806500Y201485500D02*
X-102806500Y199961500D01*
X-101536500Y201485500D02*
X-101536500Y199961500D01*
X-100266500Y201485500D02*
X-100266500Y199961500D01*
X-98996500Y201485500D02*
X-98996500Y199961500D01*
X-97726500Y201485500D02*
X-97726500Y199961500D01*
X-96456500Y201485500D02*
X-96456500Y199961500D01*
X-95186500Y201485500D02*
X-95186500Y199961500D01*
X-93916500Y201485500D02*
X-93916500Y199961500D01*
X-92646500Y201485500D02*
X-92646500Y199961500D01*
X-91376500Y201485500D02*
X-91376500Y199961500D01*
X-90106500Y201485500D02*
X-90106500Y199961500D01*
X-88836500Y201485500D02*
X-88836500Y199961500D01*
X-87566500Y201485500D02*
X-87566500Y199961500D01*
X-86296500Y201485500D02*
X-86296500Y199961500D01*
X-85026500Y201485500D02*
X-85026500Y199961500D01*
X-83756500Y201485500D02*
X-83756500Y199961500D01*
X-82486500Y201485500D02*
X-82486500Y199961500D01*
X-81216500Y201485500D02*
X-81216500Y199961500D01*
X-92646500Y203009500D02*
X-92646500Y201485500D01*
X-91376500Y203009500D02*
X-91376500Y201485500D01*
X-90106500Y203009500D02*
X-90106500Y201485500D01*
X-88836500Y203009500D02*
X-88836500Y201485500D01*
X-87566500Y203009500D02*
X-87566500Y201485500D01*
X-86296500Y203009500D02*
X-86296500Y201485500D01*
X-85026500Y203009500D02*
X-85026500Y201485500D01*
X-83756500Y203009500D02*
X-83756500Y201485500D01*
X-82486500Y203009500D02*
X-82486500Y201485500D01*
X-81216500Y203009500D02*
X-81216500Y201485500D01*
X-79946500Y203009500D02*
X-79946500Y201485500D01*
X-79946500Y201485500D02*
X-79946500Y199961500D01*
D12*
X-102562237Y201485500D02*
G75*
G03X-102562237Y201485500I-244263J0D01*
G01*
X-103154480Y201485500D02*
X-102455980Y201485500D01*
X-102806500Y201833480D02*
X-102806500Y201137520D01*
X-79702237Y201485500D02*
G75*
G03X-79702237Y201485500I-244263J0D01*
G01*
X-80297020Y201485500D02*
X-79598520Y201485500D01*
X-79946500Y201833480D02*
X-79946500Y201137520D01*
D11*
X-111569500Y246951500D02*
X-111696500Y246951500D01*
X-111696500Y246951500D02*
X-111696500Y248475500D01*
X-111696500Y248475500D02*
X-111696500Y249999500D01*
X-111696500Y249999500D02*
X-111569500Y249999500D01*
X-86423500Y246951500D02*
X-86296500Y246951500D01*
X-86296500Y246951500D02*
X-86296500Y248475500D01*
X-86296500Y248475500D02*
X-86296500Y249999500D01*
X-86296500Y249999500D02*
X-86423500Y249999500D01*
X-111696500Y248475500D02*
X-110426500Y248475500D01*
X-110426500Y248475500D02*
X-109156500Y248475500D01*
X-109156500Y248475500D02*
X-107886500Y248475500D01*
X-107886500Y248475500D02*
X-106616500Y248475500D01*
X-106616500Y248475500D02*
X-105346500Y248475500D01*
X-105346500Y248475500D02*
X-104076500Y248475500D01*
X-104076500Y248475500D02*
X-102806500Y248475500D01*
X-102806500Y248475500D02*
X-101536500Y248475500D01*
X-101536500Y248475500D02*
X-100266500Y248475500D01*
X-100266500Y248475500D02*
X-98996500Y248475500D01*
X-98996500Y248475500D02*
X-97726500Y248475500D01*
X-97726500Y248475500D02*
X-96456500Y248475500D01*
X-96456500Y248475500D02*
X-95186500Y248475500D01*
X-95186500Y248475500D02*
X-93916500Y248475500D01*
X-93916500Y248475500D02*
X-92646500Y248475500D01*
X-92646500Y248475500D02*
X-91376500Y248475500D01*
X-91376500Y248475500D02*
X-90106500Y248475500D01*
X-90106500Y248475500D02*
X-88836500Y248475500D01*
X-88836500Y248475500D02*
X-87566500Y248475500D01*
X-87566500Y248475500D02*
X-86296500Y248475500D01*
X-110553500Y249999500D02*
X-110426500Y249999500D01*
X-110426500Y249999500D02*
X-110299500Y249999500D01*
X-109283500Y249999500D02*
X-109156500Y249999500D01*
X-109156500Y249999500D02*
X-109029500Y249999500D01*
X-108013500Y249999500D02*
X-107886500Y249999500D01*
X-107886500Y249999500D02*
X-107759500Y249999500D01*
X-106743500Y249999500D02*
X-106616500Y249999500D01*
X-106616500Y249999500D02*
X-106489500Y249999500D01*
X-105473500Y249999500D02*
X-105346500Y249999500D01*
X-105346500Y249999500D02*
X-105219500Y249999500D01*
X-104203500Y249999500D02*
X-104076500Y249999500D01*
X-104076500Y249999500D02*
X-103949500Y249999500D01*
X-102933500Y249999500D02*
X-102806500Y249999500D01*
X-102806500Y249999500D02*
X-102679500Y249999500D01*
X-101663500Y249999500D02*
X-101536500Y249999500D01*
X-101536500Y249999500D02*
X-101409500Y249999500D01*
X-100393500Y249999500D02*
X-100266500Y249999500D01*
X-100266500Y249999500D02*
X-100139500Y249999500D01*
X-99123500Y249999500D02*
X-98996500Y249999500D01*
X-98996500Y249999500D02*
X-98869500Y249999500D01*
X-97853500Y249999500D02*
X-97726500Y249999500D01*
X-97726500Y249999500D02*
X-97599500Y249999500D01*
X-96583500Y249999500D02*
X-96456500Y249999500D01*
X-96456500Y249999500D02*
X-96329500Y249999500D01*
X-95313500Y249999500D02*
X-95186500Y249999500D01*
X-95186500Y249999500D02*
X-95059500Y249999500D01*
X-94043500Y249999500D02*
X-93916500Y249999500D01*
X-93916500Y249999500D02*
X-93789500Y249999500D01*
X-92773500Y249999500D02*
X-92646500Y249999500D01*
X-92646500Y249999500D02*
X-92519500Y249999500D01*
X-91503500Y249999500D02*
X-91376500Y249999500D01*
X-91376500Y249999500D02*
X-91249500Y249999500D01*
X-90233500Y249999500D02*
X-90106500Y249999500D01*
X-90106500Y249999500D02*
X-89979500Y249999500D01*
X-88963500Y249999500D02*
X-88836500Y249999500D01*
X-88836500Y249999500D02*
X-88709500Y249999500D01*
X-87693500Y249999500D02*
X-87566500Y249999500D01*
X-87566500Y249999500D02*
X-87439500Y249999500D01*
X-87693500Y246951500D02*
X-87439500Y246951500D01*
X-88963500Y246951500D02*
X-88836500Y246951500D01*
X-88836500Y246951500D02*
X-88709500Y246951500D01*
X-90233500Y246951500D02*
X-90106500Y246951500D01*
X-90106500Y246951500D02*
X-89979500Y246951500D01*
X-91503500Y246951500D02*
X-91376500Y246951500D01*
X-91376500Y246951500D02*
X-91249500Y246951500D01*
X-92773500Y246951500D02*
X-92646500Y246951500D01*
X-92646500Y246951500D02*
X-92519500Y246951500D01*
X-94043500Y246951500D02*
X-93916500Y246951500D01*
X-93916500Y246951500D02*
X-93789500Y246951500D01*
X-95313500Y246951500D02*
X-95186500Y246951500D01*
X-95186500Y246951500D02*
X-95059500Y246951500D01*
X-96583500Y246951500D02*
X-96456500Y246951500D01*
X-96456500Y246951500D02*
X-96329500Y246951500D01*
X-97853500Y246951500D02*
X-97726500Y246951500D01*
X-97726500Y246951500D02*
X-97599500Y246951500D01*
X-99123500Y246951500D02*
X-98996500Y246951500D01*
X-98996500Y246951500D02*
X-98869500Y246951500D01*
X-100393500Y246951500D02*
X-100266500Y246951500D01*
X-100266500Y246951500D02*
X-100139500Y246951500D01*
X-101663500Y246951500D02*
X-101536500Y246951500D01*
X-101536500Y246951500D02*
X-101409500Y246951500D01*
X-102933500Y246951500D02*
X-102806500Y246951500D01*
X-102806500Y246951500D02*
X-102679500Y246951500D01*
X-104203500Y246951500D02*
X-104076500Y246951500D01*
X-104076500Y246951500D02*
X-103949500Y246951500D01*
X-105473500Y246951500D02*
X-105346500Y246951500D01*
X-105346500Y246951500D02*
X-105219500Y246951500D01*
X-106743500Y246951500D02*
X-106616500Y246951500D01*
X-106616500Y246951500D02*
X-106489500Y246951500D01*
X-108013500Y246951500D02*
X-107886500Y246951500D01*
X-107886500Y246951500D02*
X-107759500Y246951500D01*
X-109283500Y246951500D02*
X-109156500Y246951500D01*
X-109156500Y246951500D02*
X-109029500Y246951500D01*
X-110553500Y246951500D02*
X-110426500Y246951500D01*
X-110426500Y246951500D02*
X-110299500Y246951500D01*
X-110426500Y249999500D02*
X-110426500Y248475500D01*
X-109156500Y249999500D02*
X-109156500Y248475500D01*
X-107886500Y249999500D02*
X-107886500Y248475500D01*
X-106616500Y249999500D02*
X-106616500Y248475500D01*
X-105346500Y249999500D02*
X-105346500Y248475500D01*
X-104076500Y249999500D02*
X-104076500Y248475500D01*
X-102806500Y249999500D02*
X-102806500Y248475500D01*
X-101536500Y249999500D02*
X-101536500Y248475500D01*
X-110426500Y248475500D02*
X-110426500Y246951500D01*
X-109156500Y248475500D02*
X-109156500Y246951500D01*
X-107886500Y248475500D02*
X-107886500Y246951500D01*
X-106616500Y248475500D02*
X-106616500Y246951500D01*
X-105346500Y248475500D02*
X-105346500Y246951500D01*
X-104076500Y248475500D02*
X-104076500Y246951500D01*
X-102806500Y248475500D02*
X-102806500Y246951500D01*
X-101536500Y248475500D02*
X-101536500Y246951500D01*
X-100266500Y248475500D02*
X-100266500Y246951500D01*
X-98996500Y248475500D02*
X-98996500Y246951500D01*
X-97726500Y248475500D02*
X-97726500Y246951500D01*
X-96456500Y248475500D02*
X-96456500Y246951500D01*
X-95186500Y248475500D02*
X-95186500Y246951500D01*
X-93916500Y248475500D02*
X-93916500Y246951500D01*
X-92646500Y248475500D02*
X-92646500Y246951500D01*
X-91376500Y248475500D02*
X-91376500Y246951500D01*
X-90106500Y248475500D02*
X-90106500Y246951500D01*
X-88836500Y248475500D02*
X-88836500Y246951500D01*
X-100266500Y249999500D02*
X-100266500Y248475500D01*
X-98996500Y249999500D02*
X-98996500Y248475500D01*
X-97726500Y249999500D02*
X-97726500Y248475500D01*
X-96456500Y249999500D02*
X-96456500Y248475500D01*
X-95186500Y249999500D02*
X-95186500Y248475500D01*
X-93916500Y249999500D02*
X-93916500Y248475500D01*
X-92646500Y249999500D02*
X-92646500Y248475500D01*
X-91376500Y249999500D02*
X-91376500Y248475500D01*
X-90106500Y249999500D02*
X-90106500Y248475500D01*
X-88836500Y249999500D02*
X-88836500Y248475500D01*
X-87566500Y249999500D02*
X-87566500Y248475500D01*
X-87566500Y248475500D02*
X-87566500Y246951500D01*
D12*
X-110182237Y248475500D02*
G75*
G03X-110182237Y248475500I-244263J0D01*
G01*
X-110774480Y248475500D02*
X-110075980Y248475500D01*
X-110426500Y248823480D02*
X-110426500Y248127520D01*
X-87322237Y248475500D02*
G75*
G03X-87322237Y248475500I-244263J0D01*
G01*
X-87917020Y248475500D02*
X-87218520Y248475500D01*
X-87566500Y248823480D02*
X-87566500Y248127520D01*
D11*
X-103949500Y253301500D02*
X-104076500Y253301500D01*
X-104076500Y253301500D02*
X-104076500Y254825500D01*
X-104076500Y254825500D02*
X-104076500Y256349500D01*
X-104076500Y256349500D02*
X-103949500Y256349500D01*
X-78803500Y253301500D02*
X-78676500Y253301500D01*
X-78676500Y253301500D02*
X-78676500Y254825500D01*
X-78676500Y254825500D02*
X-78676500Y256349500D01*
X-78676500Y256349500D02*
X-78803500Y256349500D01*
X-104076500Y254825500D02*
X-102806500Y254825500D01*
X-102806500Y254825500D02*
X-101536500Y254825500D01*
X-101536500Y254825500D02*
X-100266500Y254825500D01*
X-100266500Y254825500D02*
X-98996500Y254825500D01*
X-98996500Y254825500D02*
X-97726500Y254825500D01*
X-97726500Y254825500D02*
X-96456500Y254825500D01*
X-96456500Y254825500D02*
X-95186500Y254825500D01*
X-95186500Y254825500D02*
X-93916500Y254825500D01*
X-93916500Y254825500D02*
X-92646500Y254825500D01*
X-92646500Y254825500D02*
X-91376500Y254825500D01*
X-91376500Y254825500D02*
X-90106500Y254825500D01*
X-90106500Y254825500D02*
X-88836500Y254825500D01*
X-88836500Y254825500D02*
X-87566500Y254825500D01*
X-87566500Y254825500D02*
X-86296500Y254825500D01*
X-86296500Y254825500D02*
X-85026500Y254825500D01*
X-85026500Y254825500D02*
X-83756500Y254825500D01*
X-83756500Y254825500D02*
X-82486500Y254825500D01*
X-82486500Y254825500D02*
X-81216500Y254825500D01*
X-81216500Y254825500D02*
X-79946500Y254825500D01*
X-79946500Y254825500D02*
X-78676500Y254825500D01*
X-102933500Y256349500D02*
X-102806500Y256349500D01*
X-102806500Y256349500D02*
X-102679500Y256349500D01*
X-101663500Y256349500D02*
X-101536500Y256349500D01*
X-101536500Y256349500D02*
X-101409500Y256349500D01*
X-100393500Y256349500D02*
X-100266500Y256349500D01*
X-100266500Y256349500D02*
X-100139500Y256349500D01*
X-99123500Y256349500D02*
X-98996500Y256349500D01*
X-98996500Y256349500D02*
X-98869500Y256349500D01*
X-97853500Y256349500D02*
X-97726500Y256349500D01*
X-97726500Y256349500D02*
X-97599500Y256349500D01*
X-96583500Y256349500D02*
X-96456500Y256349500D01*
X-96456500Y256349500D02*
X-96329500Y256349500D01*
X-95313500Y256349500D02*
X-95186500Y256349500D01*
X-95186500Y256349500D02*
X-95059500Y256349500D01*
X-94043500Y256349500D02*
X-93916500Y256349500D01*
X-93916500Y256349500D02*
X-93789500Y256349500D01*
X-92773500Y256349500D02*
X-92646500Y256349500D01*
X-92646500Y256349500D02*
X-92519500Y256349500D01*
X-91503500Y256349500D02*
X-91376500Y256349500D01*
X-91376500Y256349500D02*
X-91249500Y256349500D01*
X-90233500Y256349500D02*
X-90106500Y256349500D01*
X-90106500Y256349500D02*
X-89979500Y256349500D01*
X-88963500Y256349500D02*
X-88836500Y256349500D01*
X-88836500Y256349500D02*
X-88709500Y256349500D01*
X-87693500Y256349500D02*
X-87566500Y256349500D01*
X-87566500Y256349500D02*
X-87439500Y256349500D01*
X-86423500Y256349500D02*
X-86296500Y256349500D01*
X-86296500Y256349500D02*
X-86169500Y256349500D01*
X-85153500Y256349500D02*
X-85026500Y256349500D01*
X-85026500Y256349500D02*
X-84899500Y256349500D01*
X-83883500Y256349500D02*
X-83756500Y256349500D01*
X-83756500Y256349500D02*
X-83629500Y256349500D01*
X-82613500Y256349500D02*
X-82486500Y256349500D01*
X-82486500Y256349500D02*
X-82359500Y256349500D01*
X-81343500Y256349500D02*
X-81216500Y256349500D01*
X-81216500Y256349500D02*
X-81089500Y256349500D01*
X-80073500Y256349500D02*
X-79946500Y256349500D01*
X-79946500Y256349500D02*
X-79819500Y256349500D01*
X-80073500Y253301500D02*
X-79819500Y253301500D01*
X-81343500Y253301500D02*
X-81216500Y253301500D01*
X-81216500Y253301500D02*
X-81089500Y253301500D01*
X-82613500Y253301500D02*
X-82486500Y253301500D01*
X-82486500Y253301500D02*
X-82359500Y253301500D01*
X-83883500Y253301500D02*
X-83756500Y253301500D01*
X-83756500Y253301500D02*
X-83629500Y253301500D01*
X-85153500Y253301500D02*
X-85026500Y253301500D01*
X-85026500Y253301500D02*
X-84899500Y253301500D01*
X-86423500Y253301500D02*
X-86296500Y253301500D01*
X-86296500Y253301500D02*
X-86169500Y253301500D01*
X-87693500Y253301500D02*
X-87566500Y253301500D01*
X-87566500Y253301500D02*
X-87439500Y253301500D01*
X-88963500Y253301500D02*
X-88836500Y253301500D01*
X-88836500Y253301500D02*
X-88709500Y253301500D01*
X-90233500Y253301500D02*
X-90106500Y253301500D01*
X-90106500Y253301500D02*
X-89979500Y253301500D01*
X-91503500Y253301500D02*
X-91376500Y253301500D01*
X-91376500Y253301500D02*
X-91249500Y253301500D01*
X-92773500Y253301500D02*
X-92646500Y253301500D01*
X-92646500Y253301500D02*
X-92519500Y253301500D01*
X-94043500Y253301500D02*
X-93916500Y253301500D01*
X-93916500Y253301500D02*
X-93789500Y253301500D01*
X-95313500Y253301500D02*
X-95186500Y253301500D01*
X-95186500Y253301500D02*
X-95059500Y253301500D01*
X-96583500Y253301500D02*
X-96456500Y253301500D01*
X-96456500Y253301500D02*
X-96329500Y253301500D01*
X-97853500Y253301500D02*
X-97726500Y253301500D01*
X-97726500Y253301500D02*
X-97599500Y253301500D01*
X-99123500Y253301500D02*
X-98996500Y253301500D01*
X-98996500Y253301500D02*
X-98869500Y253301500D01*
X-100393500Y253301500D02*
X-100266500Y253301500D01*
X-100266500Y253301500D02*
X-100139500Y253301500D01*
X-101663500Y253301500D02*
X-101536500Y253301500D01*
X-101536500Y253301500D02*
X-101409500Y253301500D01*
X-102933500Y253301500D02*
X-102806500Y253301500D01*
X-102806500Y253301500D02*
X-102679500Y253301500D01*
X-102806500Y256349500D02*
X-102806500Y254825500D01*
X-101536500Y256349500D02*
X-101536500Y254825500D01*
X-100266500Y256349500D02*
X-100266500Y254825500D01*
X-98996500Y256349500D02*
X-98996500Y254825500D01*
X-97726500Y256349500D02*
X-97726500Y254825500D01*
X-96456500Y256349500D02*
X-96456500Y254825500D01*
X-95186500Y256349500D02*
X-95186500Y254825500D01*
X-93916500Y256349500D02*
X-93916500Y254825500D01*
X-102806500Y254825500D02*
X-102806500Y253301500D01*
X-101536500Y254825500D02*
X-101536500Y253301500D01*
X-100266500Y254825500D02*
X-100266500Y253301500D01*
X-98996500Y254825500D02*
X-98996500Y253301500D01*
X-97726500Y254825500D02*
X-97726500Y253301500D01*
X-96456500Y254825500D02*
X-96456500Y253301500D01*
X-95186500Y254825500D02*
X-95186500Y253301500D01*
X-93916500Y254825500D02*
X-93916500Y253301500D01*
X-92646500Y254825500D02*
X-92646500Y253301500D01*
X-91376500Y254825500D02*
X-91376500Y253301500D01*
X-90106500Y254825500D02*
X-90106500Y253301500D01*
X-88836500Y254825500D02*
X-88836500Y253301500D01*
X-87566500Y254825500D02*
X-87566500Y253301500D01*
X-86296500Y254825500D02*
X-86296500Y253301500D01*
X-85026500Y254825500D02*
X-85026500Y253301500D01*
X-83756500Y254825500D02*
X-83756500Y253301500D01*
X-82486500Y254825500D02*
X-82486500Y253301500D01*
X-81216500Y254825500D02*
X-81216500Y253301500D01*
X-92646500Y256349500D02*
X-92646500Y254825500D01*
X-91376500Y256349500D02*
X-91376500Y254825500D01*
X-90106500Y256349500D02*
X-90106500Y254825500D01*
X-88836500Y256349500D02*
X-88836500Y254825500D01*
X-87566500Y256349500D02*
X-87566500Y254825500D01*
X-86296500Y256349500D02*
X-86296500Y254825500D01*
X-85026500Y256349500D02*
X-85026500Y254825500D01*
X-83756500Y256349500D02*
X-83756500Y254825500D01*
X-82486500Y256349500D02*
X-82486500Y254825500D01*
X-81216500Y256349500D02*
X-81216500Y254825500D01*
X-79946500Y256349500D02*
X-79946500Y254825500D01*
X-79946500Y254825500D02*
X-79946500Y253301500D01*
D12*
X-102562237Y254825500D02*
G75*
G03X-102562237Y254825500I-244263J0D01*
G01*
X-103154480Y254825500D02*
X-102455980Y254825500D01*
X-102806500Y255173480D02*
X-102806500Y254477520D01*
X-79702237Y254825500D02*
G75*
G03X-79702237Y254825500I-244263J0D01*
G01*
X-80297020Y254825500D02*
X-79598520Y254825500D01*
X-79946500Y255173480D02*
X-79946500Y254477520D01*
D11*
X-120713500Y245173500D02*
X-120713500Y245046500D01*
X-120713500Y245046500D02*
X-122237500Y245046500D01*
X-122237500Y245046500D02*
X-123761500Y245046500D01*
X-123761500Y245046500D02*
X-123761500Y245173500D01*
X-122237500Y245046500D02*
X-122237500Y246316500D01*
X-122237500Y246316500D02*
X-122237500Y247586500D01*
X-122237500Y247586500D02*
X-122237500Y248856500D01*
X-122237500Y248856500D02*
X-122237500Y250126500D01*
X-122237500Y250126500D02*
X-122237500Y251396500D01*
X-122237500Y251396500D02*
X-122237500Y252666500D01*
X-122237500Y252666500D02*
X-122237500Y253936500D01*
X-122237500Y253936500D02*
X-122237500Y255206500D01*
X-122237500Y255206500D02*
X-122237500Y256476500D01*
X-122237500Y256476500D02*
X-122237500Y257746500D01*
X-123761500Y246189500D02*
X-123761500Y246316500D01*
X-123761500Y246316500D02*
X-123761500Y246443500D01*
X-123761500Y247459500D02*
X-123761500Y247586500D01*
X-123761500Y247586500D02*
X-123761500Y247713500D01*
X-123761500Y248729500D02*
X-123761500Y248856500D01*
X-123761500Y248856500D02*
X-123761500Y248983500D01*
X-123761500Y249999500D02*
X-123761500Y250126500D01*
X-123761500Y250126500D02*
X-123761500Y250253500D01*
X-123761500Y251269500D02*
X-123761500Y251396500D01*
X-123761500Y251396500D02*
X-123761500Y251523500D01*
X-123761500Y252539500D02*
X-123761500Y252666500D01*
X-123761500Y252666500D02*
X-123761500Y252793500D01*
X-123761500Y253809500D02*
X-123761500Y253936500D01*
X-123761500Y253936500D02*
X-123761500Y254063500D01*
X-123761500Y255079500D02*
X-123761500Y255206500D01*
X-123761500Y255206500D02*
X-123761500Y255333500D01*
X-123761500Y256349500D02*
X-123761500Y256476500D01*
X-123761500Y256476500D02*
X-123761500Y256603500D01*
X-123761500Y257619500D02*
X-123761500Y257746500D01*
X-120713500Y257619500D02*
X-120713500Y257746500D01*
X-120713500Y256349500D02*
X-120713500Y256476500D01*
X-120713500Y256476500D02*
X-120713500Y256603500D01*
X-120713500Y255079500D02*
X-120713500Y255206500D01*
X-120713500Y255206500D02*
X-120713500Y255333500D01*
X-120713500Y253809500D02*
X-120713500Y253936500D01*
X-120713500Y253936500D02*
X-120713500Y254063500D01*
X-120713500Y252539500D02*
X-120713500Y252666500D01*
X-120713500Y252666500D02*
X-120713500Y252793500D01*
X-120713500Y251269500D02*
X-120713500Y251396500D01*
X-120713500Y251396500D02*
X-120713500Y251523500D01*
X-120713500Y249999500D02*
X-120713500Y250126500D01*
X-120713500Y250126500D02*
X-120713500Y250253500D01*
X-120713500Y248729500D02*
X-120713500Y248856500D01*
X-120713500Y248856500D02*
X-120713500Y248983500D01*
X-120713500Y247459500D02*
X-120713500Y247586500D01*
X-120713500Y247586500D02*
X-120713500Y247713500D01*
X-120713500Y246189500D02*
X-120713500Y246316500D01*
X-120713500Y246316500D02*
X-120713500Y246443500D01*
X-123761500Y246316500D02*
X-122237500Y246316500D01*
X-123761500Y247586500D02*
X-122237500Y247586500D01*
X-123761500Y248856500D02*
X-122237500Y248856500D01*
X-123761500Y250126500D02*
X-122237500Y250126500D01*
X-123761500Y251396500D02*
X-122237500Y251396500D01*
X-123761500Y252666500D02*
X-122237500Y252666500D01*
X-123761500Y253936500D02*
X-122237500Y253936500D01*
X-123761500Y255206500D02*
X-122237500Y255206500D01*
X-122237500Y246316500D02*
X-120713500Y246316500D01*
X-122237500Y247586500D02*
X-120713500Y247586500D01*
X-122237500Y248856500D02*
X-120713500Y248856500D01*
X-122237500Y250126500D02*
X-120713500Y250126500D01*
X-122237500Y251396500D02*
X-120713500Y251396500D01*
X-122237500Y252666500D02*
X-120713500Y252666500D01*
X-122237500Y253936500D02*
X-120713500Y253936500D01*
X-122237500Y255206500D02*
X-120713500Y255206500D01*
X-122237500Y256476500D02*
X-120713500Y256476500D01*
X-122237500Y257746500D02*
X-120713500Y257746500D01*
X-123761500Y256476500D02*
X-122237500Y256476500D01*
X-123761500Y257746500D02*
X-122237500Y257746500D01*
D12*
X-121993237Y246316500D02*
G75*
G03X-121993237Y246316500I-244263J0D01*
G01*
X-122237500Y245968520D02*
X-122237500Y246667020D01*
X-122585480Y246316500D02*
X-121889520Y246316500D01*
X-121993237Y256476500D02*
G75*
G03X-121993237Y256476500I-244263J0D01*
G01*
X-122237500Y256125980D02*
X-122237500Y256824480D01*
X-122585480Y256476500D02*
X-121889520Y256476500D01*
D10*
X-108212000Y232342000D02*
X-108212000Y231842000D01*
X-109162000Y231842000D02*
X-109162000Y232342000D01*
X-106712000Y232342000D02*
X-106712000Y231842000D01*
X-107662000Y231842000D02*
X-107662000Y232342000D01*
X-101212000Y234342000D02*
X-101212000Y233842000D01*
X-102162000Y233842000D02*
X-102162000Y234342000D01*
X-102212000Y234342000D02*
X-102212000Y233842000D01*
X-103162000Y233842000D02*
X-103162000Y234342000D01*
X-107212000Y221342000D02*
X-107212000Y220842000D01*
X-108162000Y220842000D02*
X-108162000Y221342000D01*
X-108712000Y221342000D02*
X-108712000Y220842000D01*
X-109662000Y220842000D02*
X-109662000Y221342000D01*
X-106937000Y229617000D02*
X-107437000Y229617000D01*
X-107437000Y230567000D02*
X-106937000Y230567000D01*
X-106937000Y223117000D02*
X-107437000Y223117000D01*
X-107437000Y224067000D02*
X-106937000Y224067000D01*
X-105437000Y224617000D02*
X-105937000Y224617000D01*
X-105937000Y225567000D02*
X-105437000Y225567000D01*
X-106437000Y225617000D02*
X-106937000Y225617000D01*
X-106937000Y226567000D02*
X-106437000Y226567000D01*
X-105437000Y227117000D02*
X-105937000Y227117000D01*
X-105937000Y228067000D02*
X-105437000Y228067000D01*
X-106937000Y228617000D02*
X-107437000Y228617000D01*
X-107437000Y229567000D02*
X-106937000Y229567000D01*
X-99712000Y234342000D02*
X-99712000Y233842000D01*
X-100662000Y233842000D02*
X-100662000Y234342000D01*
X-101712000Y230842000D02*
X-101712000Y230342000D01*
X-102662000Y230342000D02*
X-102662000Y230842000D01*
X-103212000Y230342000D02*
X-103212000Y229842000D01*
X-104162000Y229842000D02*
X-104162000Y230342000D01*
X-104212000Y229842000D02*
X-104212000Y229342000D01*
X-105162000Y229342000D02*
X-105162000Y229842000D01*
X-100437000Y226117000D02*
X-100937000Y226117000D01*
X-100937000Y227067000D02*
X-100437000Y227067000D01*
X-98937000Y224617000D02*
X-99437000Y224617000D01*
X-99437000Y225567000D02*
X-98937000Y225567000D01*
X-101212000Y222842000D02*
X-101212000Y222342000D01*
X-102162000Y222342000D02*
X-102162000Y222842000D01*
X-102712000Y224342000D02*
X-102712000Y223842000D01*
X-103662000Y223842000D02*
X-103662000Y224342000D01*
X-106212000Y220842000D02*
X-106212000Y220342000D01*
X-107162000Y220342000D02*
X-107162000Y220842000D01*
X-99437000Y229617000D02*
X-99937000Y229617000D01*
X-99937000Y230567000D02*
X-99437000Y230567000D01*
X-99937000Y227617000D02*
X-100437000Y227617000D01*
X-100437000Y228567000D02*
X-99937000Y228567000D01*
X-99437000Y223117000D02*
X-99937000Y223117000D01*
X-99937000Y224067000D02*
X-99437000Y224067000D01*
X-99437000Y221117000D02*
X-99937000Y221117000D01*
X-99937000Y222067000D02*
X-99437000Y222067000D01*
X-104212000Y222842000D02*
X-104212000Y222342000D01*
X-105162000Y222342000D02*
X-105162000Y222842000D01*
D13*
X-107200910Y199624900D02*
X-107124719Y199662995D01*
X-107010434Y199662995D01*
X-106896148Y199624900D01*
X-106819957Y199548710D01*
X-106781862Y199472519D01*
X-106743767Y199320138D01*
X-106743767Y199205852D01*
X-106781862Y199053471D01*
X-106819957Y198977281D01*
X-106896148Y198901090D01*
X-107010434Y198862995D01*
X-107086624Y198862995D01*
X-107200910Y198901090D01*
X-107239005Y198939186D01*
X-107239005Y199205852D01*
X-107086624Y199205852D01*
X-107581862Y198862995D02*
X-107581862Y199662995D01*
X-107886624Y199662995D01*
X-107962815Y199624900D01*
X-108000910Y199586805D01*
X-108039005Y199510614D01*
X-108039005Y199396329D01*
X-108000910Y199320138D01*
X-107962815Y199282043D01*
X-107886624Y199243948D01*
X-107581862Y199243948D01*
X-108381862Y198862995D02*
X-108381862Y199662995D01*
X-108915195Y199662995D02*
X-109067576Y199662995D01*
X-109143767Y199624900D01*
X-109219957Y199548710D01*
X-109258052Y199396329D01*
X-109258052Y199129662D01*
X-109219957Y198977281D01*
X-109143767Y198901090D01*
X-109067576Y198862995D01*
X-108915195Y198862995D01*
X-108839005Y198901090D01*
X-108762814Y198977281D01*
X-108724719Y199129662D01*
X-108724719Y199396329D01*
X-108762814Y199548710D01*
X-108839005Y199624900D01*
X-108915195Y199662995D01*
X-109600909Y199167757D02*
X-110210433Y199167757D01*
X-110515195Y199662995D02*
X-111010433Y199662995D01*
X-110743766Y199358233D01*
X-110858052Y199358233D01*
X-110934242Y199320138D01*
X-110972338Y199282043D01*
X-111010433Y199205852D01*
X-111010433Y199015376D01*
X-110972338Y198939186D01*
X-110934242Y198901090D01*
X-110858052Y198862995D01*
X-110629480Y198862995D01*
X-110553290Y198901090D01*
X-110515195Y198939186D01*
D14*
X-106470147Y200562029D02*
X-106334680Y200562029D01*
X-106334680Y200349152D02*
X-106334680Y200755552D01*
X-106528204Y200755552D01*
X-106876547Y200349152D02*
X-106683023Y200349152D01*
X-106683023Y200755552D01*
X-107186184Y200620086D02*
X-107186184Y200349152D01*
X-107089422Y200774905D02*
X-106992661Y200484619D01*
X-107244241Y200484619D01*
X-107476470Y200755552D02*
X-107515175Y200755552D01*
X-107553880Y200736200D01*
X-107573232Y200716848D01*
X-107592585Y200678143D01*
X-107611937Y200600733D01*
X-107611937Y200503971D01*
X-107592585Y200426562D01*
X-107573232Y200387857D01*
X-107553880Y200368505D01*
X-107515175Y200349152D01*
X-107476470Y200349152D01*
X-107437766Y200368505D01*
X-107418413Y200387857D01*
X-107399061Y200426562D01*
X-107379709Y200503971D01*
X-107379709Y200600733D01*
X-107399061Y200678143D01*
X-107418413Y200716848D01*
X-107437766Y200736200D01*
X-107476470Y200755552D01*
X-107863518Y200542676D02*
X-107863518Y200349152D01*
X-107728052Y200755552D02*
X-107863518Y200542676D01*
X-107998985Y200755552D01*
X-108115100Y200465267D02*
X-108308623Y200465267D01*
X-108076395Y200349152D02*
X-108211861Y200755552D01*
X-108347328Y200349152D01*
X-108482795Y200503971D02*
X-108792433Y200503971D01*
X-108927900Y200755552D02*
X-109063366Y200349152D01*
X-109198833Y200755552D01*
X-109295595Y200755552D02*
X-109547176Y200755552D01*
X-109411709Y200600733D01*
X-109469767Y200600733D01*
X-109508471Y200581381D01*
X-109527824Y200562029D01*
X-109547176Y200523324D01*
X-109547176Y200426562D01*
X-109527824Y200387857D01*
X-109508471Y200368505D01*
X-109469767Y200349152D01*
X-109353652Y200349152D01*
X-109314948Y200368505D01*
X-109295595Y200387857D01*
X-109895519Y200755552D02*
X-109818110Y200755552D01*
X-109779405Y200736200D01*
X-109760053Y200716848D01*
X-109721348Y200658790D01*
X-109701996Y200581381D01*
X-109701996Y200426562D01*
X-109721348Y200387857D01*
X-109740700Y200368505D01*
X-109779405Y200349152D01*
X-109856815Y200349152D01*
X-109895519Y200368505D01*
X-109914872Y200387857D01*
X-109934224Y200426562D01*
X-109934224Y200523324D01*
X-109914872Y200562029D01*
X-109895519Y200581381D01*
X-109856815Y200600733D01*
X-109779405Y200600733D01*
X-109740700Y200581381D01*
X-109721348Y200562029D01*
X-109701996Y200523324D01*
X-110108396Y200349152D02*
X-110108396Y200755552D01*
X-110263215Y200755552D01*
X-110301920Y200736200D01*
X-110321272Y200716848D01*
X-110340624Y200678143D01*
X-110340624Y200620086D01*
X-110321272Y200581381D01*
X-110301920Y200562029D01*
X-110263215Y200542676D01*
X-110108396Y200542676D01*
X-110514796Y200503971D02*
X-110824434Y200503971D01*
X-110998606Y200716848D02*
X-111017958Y200736200D01*
X-111056663Y200755552D01*
X-111153425Y200755552D01*
X-111192129Y200736200D01*
X-111211482Y200716848D01*
X-111230834Y200678143D01*
X-111230834Y200639438D01*
X-111211482Y200581381D01*
X-110979253Y200349152D01*
X-111230834Y200349152D01*
X-111366301Y200755552D02*
X-111637234Y200349152D01*
X-111637234Y200755552D02*
X-111366301Y200349152D01*
X-111772702Y200716848D02*
X-111792054Y200736200D01*
X-111830759Y200755552D01*
X-111927521Y200755552D01*
X-111966225Y200736200D01*
X-111985578Y200716848D01*
X-112004930Y200678143D01*
X-112004930Y200639438D01*
X-111985578Y200581381D01*
X-111753349Y200349152D01*
X-112004930Y200349152D01*
X-112256511Y200755552D02*
X-112295216Y200755552D01*
X-112333921Y200736200D01*
X-112353273Y200716848D01*
X-112372626Y200678143D01*
X-112391978Y200600733D01*
X-112391978Y200503971D01*
X-112372626Y200426562D01*
X-112353273Y200387857D01*
X-112333921Y200368505D01*
X-112295216Y200349152D01*
X-112256511Y200349152D01*
X-112217807Y200368505D01*
X-112198454Y200387857D01*
X-112179102Y200426562D01*
X-112159750Y200503971D01*
X-112159750Y200600733D01*
X-112179102Y200678143D01*
X-112198454Y200716848D01*
X-112217807Y200736200D01*
X-112256511Y200755552D01*
X-112566150Y200503971D02*
X-112875788Y200503971D01*
X-113262836Y200349152D02*
X-113069312Y200349152D01*
X-113069312Y200755552D01*
X-113533769Y200562029D02*
X-113398302Y200562029D01*
X-113398302Y200349152D02*
X-113398302Y200755552D01*
X-113591826Y200755552D01*
D11*
X-104496215Y201145119D02*
X-104544596Y201193500D01*
X-104641358Y201241881D01*
X-104883262Y201241881D01*
X-104980024Y201193500D01*
X-105028405Y201145119D01*
X-105076786Y201048357D01*
X-105076786Y200951595D01*
X-105028405Y200806452D01*
X-104447834Y200225881D01*
X-105076786Y200225881D01*
X-105016786Y202095881D02*
X-104436215Y202095881D01*
X-104726501Y202095881D02*
X-104726501Y203111881D01*
X-104629739Y202966738D01*
X-104532977Y202869976D01*
X-104436215Y202821595D01*
D13*
X-106832610Y252812500D02*
X-106756419Y252850595D01*
X-106642134Y252850595D01*
X-106527848Y252812500D01*
X-106451657Y252736310D01*
X-106413562Y252660119D01*
X-106375467Y252507738D01*
X-106375467Y252393452D01*
X-106413562Y252241071D01*
X-106451657Y252164881D01*
X-106527848Y252088690D01*
X-106642134Y252050595D01*
X-106718324Y252050595D01*
X-106832610Y252088690D01*
X-106870705Y252126786D01*
X-106870705Y252393452D01*
X-106718324Y252393452D01*
X-107213562Y252050595D02*
X-107213562Y252850595D01*
X-107518324Y252850595D01*
X-107594515Y252812500D01*
X-107632610Y252774405D01*
X-107670705Y252698214D01*
X-107670705Y252583929D01*
X-107632610Y252507738D01*
X-107594515Y252469643D01*
X-107518324Y252431548D01*
X-107213562Y252431548D01*
X-108013562Y252050595D02*
X-108013562Y252850595D01*
X-108546895Y252850595D02*
X-108699276Y252850595D01*
X-108775467Y252812500D01*
X-108851657Y252736310D01*
X-108889752Y252583929D01*
X-108889752Y252317262D01*
X-108851657Y252164881D01*
X-108775467Y252088690D01*
X-108699276Y252050595D01*
X-108546895Y252050595D01*
X-108470705Y252088690D01*
X-108394514Y252164881D01*
X-108356419Y252317262D01*
X-108356419Y252583929D01*
X-108394514Y252736310D01*
X-108470705Y252812500D01*
X-108546895Y252850595D01*
X-109232609Y252355357D02*
X-109842133Y252355357D01*
X-110642133Y252050595D02*
X-110184990Y252050595D01*
X-110413561Y252050595D02*
X-110413561Y252850595D01*
X-110337371Y252736310D01*
X-110261180Y252660119D01*
X-110184990Y252622024D01*
D14*
X-106305047Y253787729D02*
X-106169580Y253787729D01*
X-106169580Y253574852D02*
X-106169580Y253981252D01*
X-106363104Y253981252D01*
X-106711447Y253574852D02*
X-106517923Y253574852D01*
X-106517923Y253981252D01*
X-107021084Y253845786D02*
X-107021084Y253574852D01*
X-106924322Y254000605D02*
X-106827561Y253710319D01*
X-107079141Y253710319D01*
X-107311370Y253981252D02*
X-107350075Y253981252D01*
X-107388780Y253961900D01*
X-107408132Y253942548D01*
X-107427485Y253903843D01*
X-107446837Y253826433D01*
X-107446837Y253729671D01*
X-107427485Y253652262D01*
X-107408132Y253613557D01*
X-107388780Y253594205D01*
X-107350075Y253574852D01*
X-107311370Y253574852D01*
X-107272666Y253594205D01*
X-107253313Y253613557D01*
X-107233961Y253652262D01*
X-107214609Y253729671D01*
X-107214609Y253826433D01*
X-107233961Y253903843D01*
X-107253313Y253942548D01*
X-107272666Y253961900D01*
X-107311370Y253981252D01*
X-107698418Y253768376D02*
X-107698418Y253574852D01*
X-107562952Y253981252D02*
X-107698418Y253768376D01*
X-107833885Y253981252D01*
X-107950000Y253690967D02*
X-108143523Y253690967D01*
X-107911295Y253574852D02*
X-108046761Y253981252D01*
X-108182228Y253574852D01*
X-108317695Y253729671D02*
X-108627333Y253729671D01*
X-108762800Y253981252D02*
X-108898266Y253574852D01*
X-109033733Y253981252D01*
X-109130495Y253981252D02*
X-109382076Y253981252D01*
X-109246609Y253826433D01*
X-109304667Y253826433D01*
X-109343371Y253807081D01*
X-109362724Y253787729D01*
X-109382076Y253749024D01*
X-109382076Y253652262D01*
X-109362724Y253613557D01*
X-109343371Y253594205D01*
X-109304667Y253574852D01*
X-109188552Y253574852D01*
X-109149848Y253594205D01*
X-109130495Y253613557D01*
X-109730419Y253981252D02*
X-109653010Y253981252D01*
X-109614305Y253961900D01*
X-109594953Y253942548D01*
X-109556248Y253884490D01*
X-109536896Y253807081D01*
X-109536896Y253652262D01*
X-109556248Y253613557D01*
X-109575600Y253594205D01*
X-109614305Y253574852D01*
X-109691715Y253574852D01*
X-109730419Y253594205D01*
X-109749772Y253613557D01*
X-109769124Y253652262D01*
X-109769124Y253749024D01*
X-109749772Y253787729D01*
X-109730419Y253807081D01*
X-109691715Y253826433D01*
X-109614305Y253826433D01*
X-109575600Y253807081D01*
X-109556248Y253787729D01*
X-109536896Y253749024D01*
X-109943296Y253574852D02*
X-109943296Y253981252D01*
X-110098115Y253981252D01*
X-110136820Y253961900D01*
X-110156172Y253942548D01*
X-110175524Y253903843D01*
X-110175524Y253845786D01*
X-110156172Y253807081D01*
X-110136820Y253787729D01*
X-110098115Y253768376D01*
X-109943296Y253768376D01*
X-110349696Y253729671D02*
X-110659334Y253729671D01*
X-110833506Y253942548D02*
X-110852858Y253961900D01*
X-110891563Y253981252D01*
X-110988325Y253981252D01*
X-111027029Y253961900D01*
X-111046382Y253942548D01*
X-111065734Y253903843D01*
X-111065734Y253865138D01*
X-111046382Y253807081D01*
X-110814153Y253574852D01*
X-111065734Y253574852D01*
X-111201201Y253981252D02*
X-111472134Y253574852D01*
X-111472134Y253981252D02*
X-111201201Y253574852D01*
X-111607602Y253942548D02*
X-111626954Y253961900D01*
X-111665659Y253981252D01*
X-111762421Y253981252D01*
X-111801125Y253961900D01*
X-111820478Y253942548D01*
X-111839830Y253903843D01*
X-111839830Y253865138D01*
X-111820478Y253807081D01*
X-111588249Y253574852D01*
X-111839830Y253574852D01*
X-112091411Y253981252D02*
X-112130116Y253981252D01*
X-112168821Y253961900D01*
X-112188173Y253942548D01*
X-112207526Y253903843D01*
X-112226878Y253826433D01*
X-112226878Y253729671D01*
X-112207526Y253652262D01*
X-112188173Y253613557D01*
X-112168821Y253594205D01*
X-112130116Y253574852D01*
X-112091411Y253574852D01*
X-112052707Y253594205D01*
X-112033354Y253613557D01*
X-112014002Y253652262D01*
X-111994650Y253729671D01*
X-111994650Y253826433D01*
X-112014002Y253903843D01*
X-112033354Y253942548D01*
X-112052707Y253961900D01*
X-112091411Y253981252D01*
X-112401050Y253729671D02*
X-112710688Y253729671D01*
X-113097736Y253574852D02*
X-112904212Y253574852D01*
X-112904212Y253981252D01*
X-113368669Y253787729D02*
X-113233202Y253787729D01*
X-113233202Y253574852D02*
X-113233202Y253981252D01*
X-113426726Y253981252D01*
D11*
X-112116215Y248135119D02*
X-112164596Y248183500D01*
X-112261358Y248231881D01*
X-112503262Y248231881D01*
X-112600024Y248183500D01*
X-112648405Y248135119D01*
X-112696786Y248038357D01*
X-112696786Y247941595D01*
X-112648405Y247796452D01*
X-112067834Y247215881D01*
X-112696786Y247215881D01*
X-112636786Y249085881D02*
X-112056215Y249085881D01*
X-112346501Y249085881D02*
X-112346501Y250101881D01*
X-112249739Y249956738D01*
X-112152977Y249859976D01*
X-112056215Y249811595D01*
D13*
X-107213710Y256724195D02*
X-106832757Y256724195D01*
X-106832757Y257524195D01*
X-107937519Y256800386D02*
X-107899424Y256762290D01*
X-107785138Y256724195D01*
X-107708948Y256724195D01*
X-107594662Y256762290D01*
X-107518471Y256838481D01*
X-107480376Y256914671D01*
X-107442281Y257067052D01*
X-107442281Y257181338D01*
X-107480376Y257333719D01*
X-107518471Y257409910D01*
X-107594662Y257486100D01*
X-107708948Y257524195D01*
X-107785138Y257524195D01*
X-107899424Y257486100D01*
X-107937519Y257448005D01*
X-108280376Y256724195D02*
X-108280376Y257524195D01*
X-108470852Y257524195D01*
X-108585138Y257486100D01*
X-108661329Y257409910D01*
X-108699424Y257333719D01*
X-108737519Y257181338D01*
X-108737519Y257067052D01*
X-108699424Y256914671D01*
X-108661329Y256838481D01*
X-108585138Y256762290D01*
X-108470852Y256724195D01*
X-108280376Y256724195D01*
X-108889900Y256648005D02*
X-109499424Y256648005D01*
X-110147043Y256800386D02*
X-110108948Y256762290D01*
X-109994662Y256724195D01*
X-109918472Y256724195D01*
X-109804186Y256762290D01*
X-109727995Y256838481D01*
X-109689900Y256914671D01*
X-109651805Y257067052D01*
X-109651805Y257181338D01*
X-109689900Y257333719D01*
X-109727995Y257409910D01*
X-109804186Y257486100D01*
X-109918472Y257524195D01*
X-109994662Y257524195D01*
X-110108948Y257486100D01*
X-110147043Y257448005D01*
X-110642281Y257524195D02*
X-110794662Y257524195D01*
X-110870853Y257486100D01*
X-110947043Y257409910D01*
X-110985138Y257257529D01*
X-110985138Y256990862D01*
X-110947043Y256838481D01*
X-110870853Y256762290D01*
X-110794662Y256724195D01*
X-110642281Y256724195D01*
X-110566091Y256762290D01*
X-110489900Y256838481D01*
X-110451805Y256990862D01*
X-110451805Y257257529D01*
X-110489900Y257409910D01*
X-110566091Y257486100D01*
X-110642281Y257524195D01*
X-111327995Y256724195D02*
X-111327995Y257524195D01*
X-111785138Y256724195D01*
X-111785138Y257524195D01*
X-112585138Y256724195D02*
X-112127995Y256724195D01*
X-112356566Y256724195D02*
X-112356566Y257524195D01*
X-112280376Y257409910D01*
X-112204185Y257333719D01*
X-112127995Y257295624D01*
D14*
X-106432047Y255692729D02*
X-106296580Y255692729D01*
X-106296580Y255479852D02*
X-106296580Y255886252D01*
X-106490104Y255886252D01*
X-106838447Y255479852D02*
X-106644923Y255479852D01*
X-106644923Y255886252D01*
X-107148084Y255750786D02*
X-107148084Y255479852D01*
X-107051322Y255905605D02*
X-106954561Y255615319D01*
X-107206141Y255615319D01*
X-107438370Y255886252D02*
X-107477075Y255886252D01*
X-107515780Y255866900D01*
X-107535132Y255847548D01*
X-107554485Y255808843D01*
X-107573837Y255731433D01*
X-107573837Y255634671D01*
X-107554485Y255557262D01*
X-107535132Y255518557D01*
X-107515780Y255499205D01*
X-107477075Y255479852D01*
X-107438370Y255479852D01*
X-107399666Y255499205D01*
X-107380313Y255518557D01*
X-107360961Y255557262D01*
X-107341609Y255634671D01*
X-107341609Y255731433D01*
X-107360961Y255808843D01*
X-107380313Y255847548D01*
X-107399666Y255866900D01*
X-107438370Y255886252D01*
X-107825418Y255673376D02*
X-107825418Y255479852D01*
X-107689952Y255886252D02*
X-107825418Y255673376D01*
X-107960885Y255886252D01*
X-108077000Y255595967D02*
X-108270523Y255595967D01*
X-108038295Y255479852D02*
X-108173761Y255886252D01*
X-108309228Y255479852D01*
X-108444695Y255634671D02*
X-108754333Y255634671D01*
X-108889800Y255886252D02*
X-109025266Y255479852D01*
X-109160733Y255886252D01*
X-109257495Y255886252D02*
X-109509076Y255886252D01*
X-109373609Y255731433D01*
X-109431667Y255731433D01*
X-109470371Y255712081D01*
X-109489724Y255692729D01*
X-109509076Y255654024D01*
X-109509076Y255557262D01*
X-109489724Y255518557D01*
X-109470371Y255499205D01*
X-109431667Y255479852D01*
X-109315552Y255479852D01*
X-109276848Y255499205D01*
X-109257495Y255518557D01*
X-109857419Y255886252D02*
X-109780010Y255886252D01*
X-109741305Y255866900D01*
X-109721953Y255847548D01*
X-109683248Y255789490D01*
X-109663896Y255712081D01*
X-109663896Y255557262D01*
X-109683248Y255518557D01*
X-109702600Y255499205D01*
X-109741305Y255479852D01*
X-109818715Y255479852D01*
X-109857419Y255499205D01*
X-109876772Y255518557D01*
X-109896124Y255557262D01*
X-109896124Y255654024D01*
X-109876772Y255692729D01*
X-109857419Y255712081D01*
X-109818715Y255731433D01*
X-109741305Y255731433D01*
X-109702600Y255712081D01*
X-109683248Y255692729D01*
X-109663896Y255654024D01*
X-110070296Y255479852D02*
X-110070296Y255886252D01*
X-110225115Y255886252D01*
X-110263820Y255866900D01*
X-110283172Y255847548D01*
X-110302524Y255808843D01*
X-110302524Y255750786D01*
X-110283172Y255712081D01*
X-110263820Y255692729D01*
X-110225115Y255673376D01*
X-110070296Y255673376D01*
X-110476696Y255634671D02*
X-110786334Y255634671D01*
X-110960506Y255847548D02*
X-110979858Y255866900D01*
X-111018563Y255886252D01*
X-111115325Y255886252D01*
X-111154029Y255866900D01*
X-111173382Y255847548D01*
X-111192734Y255808843D01*
X-111192734Y255770138D01*
X-111173382Y255712081D01*
X-110941153Y255479852D01*
X-111192734Y255479852D01*
X-111328201Y255886252D02*
X-111599134Y255479852D01*
X-111599134Y255886252D02*
X-111328201Y255479852D01*
X-111734602Y255847548D02*
X-111753954Y255866900D01*
X-111792659Y255886252D01*
X-111889421Y255886252D01*
X-111928125Y255866900D01*
X-111947478Y255847548D01*
X-111966830Y255808843D01*
X-111966830Y255770138D01*
X-111947478Y255712081D01*
X-111715249Y255479852D01*
X-111966830Y255479852D01*
X-112218411Y255886252D02*
X-112257116Y255886252D01*
X-112295821Y255866900D01*
X-112315173Y255847548D01*
X-112334526Y255808843D01*
X-112353878Y255731433D01*
X-112353878Y255634671D01*
X-112334526Y255557262D01*
X-112315173Y255518557D01*
X-112295821Y255499205D01*
X-112257116Y255479852D01*
X-112218411Y255479852D01*
X-112179707Y255499205D01*
X-112160354Y255518557D01*
X-112141002Y255557262D01*
X-112121650Y255634671D01*
X-112121650Y255731433D01*
X-112141002Y255808843D01*
X-112160354Y255847548D01*
X-112179707Y255866900D01*
X-112218411Y255886252D01*
X-112528050Y255634671D02*
X-112837688Y255634671D01*
X-113224736Y255479852D02*
X-113031212Y255479852D01*
X-113031212Y255886252D01*
X-113495669Y255692729D02*
X-113360202Y255692729D01*
X-113360202Y255479852D02*
X-113360202Y255886252D01*
X-113553726Y255886252D01*
D11*
X-104496215Y254485119D02*
X-104544596Y254533500D01*
X-104641358Y254581881D01*
X-104883262Y254581881D01*
X-104980024Y254533500D01*
X-105028405Y254485119D01*
X-105076786Y254388357D01*
X-105076786Y254291595D01*
X-105028405Y254146452D01*
X-104447834Y253565881D01*
X-105076786Y253565881D01*
X-105016786Y255435881D02*
X-104436215Y255435881D01*
X-104726501Y255435881D02*
X-104726501Y256451881D01*
X-104629739Y256306738D01*
X-104532977Y256209976D01*
X-104436215Y256161595D01*
D13*
X-122637500Y241769690D02*
X-122675595Y241845881D01*
X-122675595Y241960166D01*
X-122637500Y242074452D01*
X-122561310Y242150643D01*
X-122485119Y242188738D01*
X-122332738Y242226833D01*
X-122218452Y242226833D01*
X-122066071Y242188738D01*
X-121989881Y242150643D01*
X-121913690Y242074452D01*
X-121875595Y241960166D01*
X-121875595Y241883976D01*
X-121913690Y241769690D01*
X-121951786Y241731595D01*
X-122218452Y241731595D01*
X-122218452Y241883976D01*
X-121875595Y241388738D02*
X-122675595Y241388738D01*
X-122675595Y241083976D01*
X-122637500Y241007785D01*
X-122599405Y240969690D01*
X-122523214Y240931595D01*
X-122408929Y240931595D01*
X-122332738Y240969690D01*
X-122294643Y241007785D01*
X-122256548Y241083976D01*
X-122256548Y241388738D01*
X-121875595Y240588738D02*
X-122675595Y240588738D01*
X-122675595Y240055405D02*
X-122675595Y239903024D01*
X-122637500Y239826833D01*
X-122561310Y239750643D01*
X-122408929Y239712548D01*
X-122142262Y239712548D01*
X-121989881Y239750643D01*
X-121913690Y239826833D01*
X-121875595Y239903024D01*
X-121875595Y240055405D01*
X-121913690Y240131595D01*
X-121989881Y240207786D01*
X-122142262Y240245881D01*
X-122408929Y240245881D01*
X-122561310Y240207786D01*
X-122637500Y240131595D01*
X-122675595Y240055405D01*
X-122180357Y239369691D02*
X-122180357Y238760167D01*
X-122408929Y238036358D02*
X-121875595Y238036358D01*
X-122713690Y238226834D02*
X-122142262Y238417310D01*
X-122142262Y237922072D01*
D14*
X-123396829Y242652853D02*
X-123396829Y242788320D01*
X-123183952Y242788320D02*
X-123590352Y242788320D01*
X-123590352Y242594796D01*
X-123183952Y242246453D02*
X-123183952Y242439977D01*
X-123590352Y242439977D01*
X-123551648Y242130339D02*
X-123571000Y242110987D01*
X-123590352Y242072282D01*
X-123590352Y241975520D01*
X-123571000Y241936816D01*
X-123551648Y241917463D01*
X-123512943Y241898111D01*
X-123474238Y241898111D01*
X-123416181Y241917463D01*
X-123183952Y242149692D01*
X-123183952Y241898111D01*
X-123590352Y241646530D02*
X-123590352Y241607825D01*
X-123571000Y241569120D01*
X-123551648Y241549768D01*
X-123512943Y241530415D01*
X-123435533Y241511063D01*
X-123338771Y241511063D01*
X-123261362Y241530415D01*
X-123222657Y241549768D01*
X-123203305Y241569120D01*
X-123183952Y241607825D01*
X-123183952Y241646530D01*
X-123203305Y241685234D01*
X-123222657Y241704587D01*
X-123261362Y241723939D01*
X-123338771Y241743291D01*
X-123435533Y241743291D01*
X-123512943Y241723939D01*
X-123551648Y241704587D01*
X-123571000Y241685234D01*
X-123590352Y241646530D01*
X-123377476Y241259482D02*
X-123183952Y241259482D01*
X-123590352Y241394948D02*
X-123377476Y241259482D01*
X-123590352Y241124015D01*
X-123300067Y241007900D02*
X-123300067Y240814377D01*
X-123183952Y241046605D02*
X-123590352Y240911139D01*
X-123183952Y240775672D01*
X-123338771Y240640205D02*
X-123338771Y240330567D01*
X-123590352Y240195100D02*
X-123183952Y240059634D01*
X-123590352Y239924167D01*
X-123590352Y239827405D02*
X-123590352Y239575824D01*
X-123435533Y239711291D01*
X-123435533Y239653233D01*
X-123416181Y239614529D01*
X-123396829Y239595176D01*
X-123358124Y239575824D01*
X-123261362Y239575824D01*
X-123222657Y239595176D01*
X-123203305Y239614529D01*
X-123183952Y239653233D01*
X-123183952Y239769348D01*
X-123203305Y239808052D01*
X-123222657Y239827405D01*
X-123590352Y239227481D02*
X-123590352Y239304890D01*
X-123571000Y239343595D01*
X-123551648Y239362947D01*
X-123493590Y239401652D01*
X-123416181Y239421004D01*
X-123261362Y239421004D01*
X-123222657Y239401652D01*
X-123203305Y239382300D01*
X-123183952Y239343595D01*
X-123183952Y239266185D01*
X-123203305Y239227481D01*
X-123222657Y239208128D01*
X-123261362Y239188776D01*
X-123358124Y239188776D01*
X-123396829Y239208128D01*
X-123416181Y239227481D01*
X-123435533Y239266185D01*
X-123435533Y239343595D01*
X-123416181Y239382300D01*
X-123396829Y239401652D01*
X-123358124Y239421004D01*
X-123183952Y239014604D02*
X-123590352Y239014604D01*
X-123590352Y238859785D01*
X-123571000Y238821080D01*
X-123551648Y238801728D01*
X-123512943Y238782376D01*
X-123454886Y238782376D01*
X-123416181Y238801728D01*
X-123396829Y238821080D01*
X-123377476Y238859785D01*
X-123377476Y239014604D01*
X-123338771Y238608204D02*
X-123338771Y238298566D01*
X-123551648Y238124394D02*
X-123571000Y238105042D01*
X-123590352Y238066337D01*
X-123590352Y237969575D01*
X-123571000Y237930871D01*
X-123551648Y237911518D01*
X-123512943Y237892166D01*
X-123474238Y237892166D01*
X-123416181Y237911518D01*
X-123183952Y238143747D01*
X-123183952Y237892166D01*
X-123590352Y237756699D02*
X-123183952Y237485766D01*
X-123590352Y237485766D02*
X-123183952Y237756699D01*
X-123183952Y237118070D02*
X-123183952Y237350298D01*
X-123183952Y237234184D02*
X-123590352Y237234184D01*
X-123532295Y237272889D01*
X-123493590Y237311594D01*
X-123474238Y237350298D01*
X-123590352Y236866489D02*
X-123590352Y236827784D01*
X-123571000Y236789079D01*
X-123551648Y236769727D01*
X-123512943Y236750374D01*
X-123435533Y236731022D01*
X-123338771Y236731022D01*
X-123261362Y236750374D01*
X-123222657Y236769727D01*
X-123203305Y236789079D01*
X-123183952Y236827784D01*
X-123183952Y236866489D01*
X-123203305Y236905193D01*
X-123222657Y236924546D01*
X-123261362Y236943898D01*
X-123338771Y236963250D01*
X-123435533Y236963250D01*
X-123512943Y236943898D01*
X-123551648Y236924546D01*
X-123571000Y236905193D01*
X-123590352Y236866489D01*
X-123338771Y236556850D02*
X-123338771Y236247212D01*
X-123183952Y235860164D02*
X-123183952Y236053688D01*
X-123590352Y236053688D01*
X-123396829Y235589231D02*
X-123396829Y235724698D01*
X-123183952Y235724698D02*
X-123590352Y235724698D01*
X-123590352Y235531174D01*
D11*
X-121837119Y244616785D02*
X-121885500Y244568404D01*
X-121933881Y244471642D01*
X-121933881Y244229738D01*
X-121885500Y244132976D01*
X-121837119Y244084595D01*
X-121740357Y244036214D01*
X-121643595Y244036214D01*
X-121498452Y244084595D01*
X-120917881Y244665166D01*
X-120917881Y244036214D01*
X-122817881Y244056214D02*
X-122817881Y244636785D01*
X-122817881Y244346499D02*
X-123833881Y244346499D01*
X-123688738Y244443261D01*
X-123591976Y244540023D01*
X-123543595Y244636785D01*
D13*
X-106701286Y232225333D02*
X-106663190Y232263428D01*
X-106625095Y232377714D01*
X-106625095Y232453904D01*
X-106663190Y232568190D01*
X-106739381Y232644381D01*
X-106815571Y232682476D01*
X-106967952Y232720571D01*
X-107082238Y232720571D01*
X-107234619Y232682476D01*
X-107310810Y232644381D01*
X-107387000Y232568190D01*
X-107425095Y232453904D01*
X-107425095Y232377714D01*
X-107387000Y232263428D01*
X-107348905Y232225333D01*
X-107425095Y231958666D02*
X-107425095Y231463428D01*
X-107120333Y231730095D01*
X-107120333Y231615809D01*
X-107082238Y231539619D01*
X-107044143Y231501523D01*
X-106967952Y231463428D01*
X-106777476Y231463428D01*
X-106701286Y231501523D01*
X-106663190Y231539619D01*
X-106625095Y231615809D01*
X-106625095Y231844381D01*
X-106663190Y231920571D01*
X-106701286Y231958666D01*
D10*
X-109934619Y233211047D02*
X-109934619Y233782476D01*
X-109934619Y233496762D02*
X-110934619Y233496762D01*
X-110791762Y233592000D01*
X-110696524Y233687238D01*
X-110648905Y233782476D01*
X-110934619Y232592000D02*
X-110934619Y232496761D01*
X-110887000Y232401523D01*
X-110839381Y232353904D01*
X-110744143Y232306285D01*
X-110553667Y232258666D01*
X-110315571Y232258666D01*
X-110125095Y232306285D01*
X-110029857Y232353904D01*
X-109982238Y232401523D01*
X-109934619Y232496761D01*
X-109934619Y232592000D01*
X-109982238Y232687238D01*
X-110029857Y232734857D01*
X-110125095Y232782476D01*
X-110315571Y232830095D01*
X-110553667Y232830095D01*
X-110744143Y232782476D01*
X-110839381Y232734857D01*
X-110887000Y232687238D01*
X-110934619Y232592000D01*
X-110934619Y231639619D02*
X-110934619Y231544380D01*
X-110887000Y231449142D01*
X-110839381Y231401523D01*
X-110744143Y231353904D01*
X-110553667Y231306285D01*
X-110315571Y231306285D01*
X-110125095Y231353904D01*
X-110029857Y231401523D01*
X-109982238Y231449142D01*
X-109934619Y231544380D01*
X-109934619Y231639619D01*
X-109982238Y231734857D01*
X-110029857Y231782476D01*
X-110125095Y231830095D01*
X-110315571Y231877714D01*
X-110553667Y231877714D01*
X-110744143Y231830095D01*
X-110839381Y231782476D01*
X-110887000Y231734857D01*
X-110934619Y231639619D01*
X-110601286Y230877714D02*
X-109934619Y230877714D01*
X-110506048Y230877714D02*
X-110553667Y230830095D01*
X-110601286Y230734857D01*
X-110601286Y230591999D01*
X-110553667Y230496761D01*
X-110458429Y230449142D01*
X-109934619Y230449142D01*
D13*
X-105201286Y232225333D02*
X-105163190Y232263428D01*
X-105125095Y232377714D01*
X-105125095Y232453904D01*
X-105163190Y232568190D01*
X-105239381Y232644381D01*
X-105315571Y232682476D01*
X-105467952Y232720571D01*
X-105582238Y232720571D01*
X-105734619Y232682476D01*
X-105810810Y232644381D01*
X-105887000Y232568190D01*
X-105925095Y232453904D01*
X-105925095Y232377714D01*
X-105887000Y232263428D01*
X-105848905Y232225333D01*
X-105658429Y231539619D02*
X-105125095Y231539619D01*
X-105963190Y231730095D02*
X-105391762Y231920571D01*
X-105391762Y231425333D01*
D10*
X-108434619Y232734857D02*
X-108434619Y233306286D01*
X-108434619Y233020572D02*
X-109434619Y233020572D01*
X-109291762Y233115810D01*
X-109196524Y233211048D01*
X-109148905Y233306286D01*
X-109434619Y232115810D02*
X-109434619Y232020571D01*
X-109387000Y231925333D01*
X-109339381Y231877714D01*
X-109244143Y231830095D01*
X-109053667Y231782476D01*
X-108815571Y231782476D01*
X-108625095Y231830095D01*
X-108529857Y231877714D01*
X-108482238Y231925333D01*
X-108434619Y232020571D01*
X-108434619Y232115810D01*
X-108482238Y232211048D01*
X-108529857Y232258667D01*
X-108625095Y232306286D01*
X-108815571Y232353905D01*
X-109053667Y232353905D01*
X-109244143Y232306286D01*
X-109339381Y232258667D01*
X-109387000Y232211048D01*
X-109434619Y232115810D01*
X-109101286Y231353905D02*
X-108434619Y231353905D01*
X-109006048Y231353905D02*
X-109053667Y231306286D01*
X-109101286Y231211048D01*
X-109101286Y231068190D01*
X-109053667Y230972952D01*
X-108958429Y230925333D01*
X-108434619Y230925333D01*
D13*
X-99701286Y234225333D02*
X-99663190Y234263428D01*
X-99625095Y234377714D01*
X-99625095Y234453904D01*
X-99663190Y234568190D01*
X-99739381Y234644381D01*
X-99815571Y234682476D01*
X-99967952Y234720571D01*
X-100082238Y234720571D01*
X-100234619Y234682476D01*
X-100310810Y234644381D01*
X-100387000Y234568190D01*
X-100425095Y234453904D01*
X-100425095Y234377714D01*
X-100387000Y234263428D01*
X-100348905Y234225333D01*
X-100425095Y233501523D02*
X-100425095Y233882476D01*
X-100044143Y233920571D01*
X-100082238Y233882476D01*
X-100120333Y233806285D01*
X-100120333Y233615809D01*
X-100082238Y233539619D01*
X-100044143Y233501523D01*
X-99967952Y233463428D01*
X-99777476Y233463428D01*
X-99701286Y233501523D01*
X-99663190Y233539619D01*
X-99625095Y233615809D01*
X-99625095Y233806285D01*
X-99663190Y233882476D01*
X-99701286Y233920571D01*
D10*
X-102934619Y235211047D02*
X-102934619Y235782476D01*
X-102934619Y235496762D02*
X-103934619Y235496762D01*
X-103791762Y235592000D01*
X-103696524Y235687238D01*
X-103648905Y235782476D01*
X-103934619Y234592000D02*
X-103934619Y234496761D01*
X-103887000Y234401523D01*
X-103839381Y234353904D01*
X-103744143Y234306285D01*
X-103553667Y234258666D01*
X-103315571Y234258666D01*
X-103125095Y234306285D01*
X-103029857Y234353904D01*
X-102982238Y234401523D01*
X-102934619Y234496761D01*
X-102934619Y234592000D01*
X-102982238Y234687238D01*
X-103029857Y234734857D01*
X-103125095Y234782476D01*
X-103315571Y234830095D01*
X-103553667Y234830095D01*
X-103744143Y234782476D01*
X-103839381Y234734857D01*
X-103887000Y234687238D01*
X-103934619Y234592000D01*
X-103934619Y233639619D02*
X-103934619Y233544380D01*
X-103887000Y233449142D01*
X-103839381Y233401523D01*
X-103744143Y233353904D01*
X-103553667Y233306285D01*
X-103315571Y233306285D01*
X-103125095Y233353904D01*
X-103029857Y233401523D01*
X-102982238Y233449142D01*
X-102934619Y233544380D01*
X-102934619Y233639619D01*
X-102982238Y233734857D01*
X-103029857Y233782476D01*
X-103125095Y233830095D01*
X-103315571Y233877714D01*
X-103553667Y233877714D01*
X-103744143Y233830095D01*
X-103839381Y233782476D01*
X-103887000Y233734857D01*
X-103934619Y233639619D01*
X-103601286Y232877714D02*
X-102934619Y232877714D01*
X-103506048Y232877714D02*
X-103553667Y232830095D01*
X-103601286Y232734857D01*
X-103601286Y232591999D01*
X-103553667Y232496761D01*
X-103458429Y232449142D01*
X-102934619Y232449142D01*
D13*
X-100701286Y234225333D02*
X-100663190Y234263428D01*
X-100625095Y234377714D01*
X-100625095Y234453904D01*
X-100663190Y234568190D01*
X-100739381Y234644381D01*
X-100815571Y234682476D01*
X-100967952Y234720571D01*
X-101082238Y234720571D01*
X-101234619Y234682476D01*
X-101310810Y234644381D01*
X-101387000Y234568190D01*
X-101425095Y234453904D01*
X-101425095Y234377714D01*
X-101387000Y234263428D01*
X-101348905Y234225333D01*
X-101425095Y233539619D02*
X-101425095Y233692000D01*
X-101387000Y233768190D01*
X-101348905Y233806285D01*
X-101234619Y233882476D01*
X-101082238Y233920571D01*
X-100777476Y233920571D01*
X-100701286Y233882476D01*
X-100663190Y233844381D01*
X-100625095Y233768190D01*
X-100625095Y233615809D01*
X-100663190Y233539619D01*
X-100701286Y233501523D01*
X-100777476Y233463428D01*
X-100967952Y233463428D01*
X-101044143Y233501523D01*
X-101082238Y233539619D01*
X-101120333Y233615809D01*
X-101120333Y233768190D01*
X-101082238Y233844381D01*
X-101044143Y233882476D01*
X-100967952Y233920571D01*
D10*
X-103934619Y234734857D02*
X-103934619Y235306286D01*
X-103934619Y235020572D02*
X-104934619Y235020572D01*
X-104791762Y235115810D01*
X-104696524Y235211048D01*
X-104648905Y235306286D01*
X-104934619Y234115810D02*
X-104934619Y234020571D01*
X-104887000Y233925333D01*
X-104839381Y233877714D01*
X-104744143Y233830095D01*
X-104553667Y233782476D01*
X-104315571Y233782476D01*
X-104125095Y233830095D01*
X-104029857Y233877714D01*
X-103982238Y233925333D01*
X-103934619Y234020571D01*
X-103934619Y234115810D01*
X-103982238Y234211048D01*
X-104029857Y234258667D01*
X-104125095Y234306286D01*
X-104315571Y234353905D01*
X-104553667Y234353905D01*
X-104744143Y234306286D01*
X-104839381Y234258667D01*
X-104887000Y234211048D01*
X-104934619Y234115810D01*
X-104601286Y233353905D02*
X-103934619Y233353905D01*
X-104506048Y233353905D02*
X-104553667Y233306286D01*
X-104601286Y233211048D01*
X-104601286Y233068190D01*
X-104553667Y232972952D01*
X-104458429Y232925333D01*
X-103934619Y232925333D01*
D13*
X-105701286Y221225333D02*
X-105663190Y221263428D01*
X-105625095Y221377714D01*
X-105625095Y221453904D01*
X-105663190Y221568190D01*
X-105739381Y221644381D01*
X-105815571Y221682476D01*
X-105967952Y221720571D01*
X-106082238Y221720571D01*
X-106234619Y221682476D01*
X-106310810Y221644381D01*
X-106387000Y221568190D01*
X-106425095Y221453904D01*
X-106425095Y221377714D01*
X-106387000Y221263428D01*
X-106348905Y221225333D01*
X-106425095Y220958666D02*
X-106425095Y220425333D01*
X-105625095Y220768190D01*
D10*
X-108934619Y222211047D02*
X-108934619Y222782476D01*
X-108934619Y222496762D02*
X-109934619Y222496762D01*
X-109791762Y222592000D01*
X-109696524Y222687238D01*
X-109648905Y222782476D01*
X-109934619Y221592000D02*
X-109934619Y221496761D01*
X-109887000Y221401523D01*
X-109839381Y221353904D01*
X-109744143Y221306285D01*
X-109553667Y221258666D01*
X-109315571Y221258666D01*
X-109125095Y221306285D01*
X-109029857Y221353904D01*
X-108982238Y221401523D01*
X-108934619Y221496761D01*
X-108934619Y221592000D01*
X-108982238Y221687238D01*
X-109029857Y221734857D01*
X-109125095Y221782476D01*
X-109315571Y221830095D01*
X-109553667Y221830095D01*
X-109744143Y221782476D01*
X-109839381Y221734857D01*
X-109887000Y221687238D01*
X-109934619Y221592000D01*
X-109934619Y220639619D02*
X-109934619Y220544380D01*
X-109887000Y220449142D01*
X-109839381Y220401523D01*
X-109744143Y220353904D01*
X-109553667Y220306285D01*
X-109315571Y220306285D01*
X-109125095Y220353904D01*
X-109029857Y220401523D01*
X-108982238Y220449142D01*
X-108934619Y220544380D01*
X-108934619Y220639619D01*
X-108982238Y220734857D01*
X-109029857Y220782476D01*
X-109125095Y220830095D01*
X-109315571Y220877714D01*
X-109553667Y220877714D01*
X-109744143Y220830095D01*
X-109839381Y220782476D01*
X-109887000Y220734857D01*
X-109934619Y220639619D01*
X-109601286Y219877714D02*
X-108934619Y219877714D01*
X-109506048Y219877714D02*
X-109553667Y219830095D01*
X-109601286Y219734857D01*
X-109601286Y219591999D01*
X-109553667Y219496761D01*
X-109458429Y219449142D01*
X-108934619Y219449142D01*
D13*
X-107201286Y221225333D02*
X-107163190Y221263428D01*
X-107125095Y221377714D01*
X-107125095Y221453904D01*
X-107163190Y221568190D01*
X-107239381Y221644381D01*
X-107315571Y221682476D01*
X-107467952Y221720571D01*
X-107582238Y221720571D01*
X-107734619Y221682476D01*
X-107810810Y221644381D01*
X-107887000Y221568190D01*
X-107925095Y221453904D01*
X-107925095Y221377714D01*
X-107887000Y221263428D01*
X-107848905Y221225333D01*
X-107582238Y220768190D02*
X-107620333Y220844381D01*
X-107658429Y220882476D01*
X-107734619Y220920571D01*
X-107772714Y220920571D01*
X-107848905Y220882476D01*
X-107887000Y220844381D01*
X-107925095Y220768190D01*
X-107925095Y220615809D01*
X-107887000Y220539619D01*
X-107848905Y220501523D01*
X-107772714Y220463428D01*
X-107734619Y220463428D01*
X-107658429Y220501523D01*
X-107620333Y220539619D01*
X-107582238Y220615809D01*
X-107582238Y220768190D01*
X-107544143Y220844381D01*
X-107506048Y220882476D01*
X-107429857Y220920571D01*
X-107277476Y220920571D01*
X-107201286Y220882476D01*
X-107163190Y220844381D01*
X-107125095Y220768190D01*
X-107125095Y220615809D01*
X-107163190Y220539619D01*
X-107201286Y220501523D01*
X-107277476Y220463428D01*
X-107429857Y220463428D01*
X-107506048Y220501523D01*
X-107544143Y220539619D01*
X-107582238Y220615809D01*
D10*
X-110434619Y221734857D02*
X-110434619Y222306286D01*
X-110434619Y222020572D02*
X-111434619Y222020572D01*
X-111291762Y222115810D01*
X-111196524Y222211048D01*
X-111148905Y222306286D01*
X-111434619Y221115810D02*
X-111434619Y221020571D01*
X-111387000Y220925333D01*
X-111339381Y220877714D01*
X-111244143Y220830095D01*
X-111053667Y220782476D01*
X-110815571Y220782476D01*
X-110625095Y220830095D01*
X-110529857Y220877714D01*
X-110482238Y220925333D01*
X-110434619Y221020571D01*
X-110434619Y221115810D01*
X-110482238Y221211048D01*
X-110529857Y221258667D01*
X-110625095Y221306286D01*
X-110815571Y221353905D01*
X-111053667Y221353905D01*
X-111244143Y221306286D01*
X-111339381Y221258667D01*
X-111387000Y221211048D01*
X-111434619Y221115810D01*
X-111101286Y220353905D02*
X-110434619Y220353905D01*
X-111006048Y220353905D02*
X-111053667Y220306286D01*
X-111101286Y220211048D01*
X-111101286Y220068190D01*
X-111053667Y219972952D01*
X-110958429Y219925333D01*
X-110434619Y219925333D01*
D13*
X-106672714Y228106286D02*
X-106634619Y228068190D01*
X-106520333Y228030095D01*
X-106444143Y228030095D01*
X-106329857Y228068190D01*
X-106253666Y228144381D01*
X-106215571Y228220571D01*
X-106177476Y228372952D01*
X-106177476Y228487238D01*
X-106215571Y228639619D01*
X-106253666Y228715810D01*
X-106329857Y228792000D01*
X-106444143Y228830095D01*
X-106520333Y228830095D01*
X-106634619Y228792000D01*
X-106672714Y228753905D01*
X-107434619Y228030095D02*
X-106977476Y228030095D01*
X-107206047Y228030095D02*
X-107206047Y228830095D01*
X-107129857Y228715810D01*
X-107053666Y228639619D01*
X-106977476Y228601524D01*
X-107929857Y228830095D02*
X-108006048Y228830095D01*
X-108082238Y228792000D01*
X-108120333Y228753905D01*
X-108158429Y228677714D01*
X-108196524Y228525333D01*
X-108196524Y228334857D01*
X-108158429Y228182476D01*
X-108120333Y228106286D01*
X-108082238Y228068190D01*
X-108006048Y228030095D01*
X-107929857Y228030095D01*
X-107853667Y228068190D01*
X-107815571Y228106286D01*
X-107777476Y228182476D01*
X-107739381Y228334857D01*
X-107739381Y228525333D01*
X-107777476Y228677714D01*
X-107815571Y228753905D01*
X-107853667Y228792000D01*
X-107929857Y228830095D01*
D10*
X-106067953Y231339619D02*
X-105496524Y231339619D01*
X-105782238Y231339619D02*
X-105782238Y232339619D01*
X-105687000Y232196762D01*
X-105591762Y232101524D01*
X-105496524Y232053905D01*
X-106687000Y232339619D02*
X-106782239Y232339619D01*
X-106877477Y232292000D01*
X-106925096Y232244381D01*
X-106972715Y232149143D01*
X-107020334Y231958667D01*
X-107020334Y231720571D01*
X-106972715Y231530095D01*
X-106925096Y231434857D01*
X-106877477Y231387238D01*
X-106782239Y231339619D01*
X-106687000Y231339619D01*
X-106591762Y231387238D01*
X-106544143Y231434857D01*
X-106496524Y231530095D01*
X-106448905Y231720571D01*
X-106448905Y231958667D01*
X-106496524Y232149143D01*
X-106544143Y232244381D01*
X-106591762Y232292000D01*
X-106687000Y232339619D01*
X-107639381Y232339619D02*
X-107734620Y232339619D01*
X-107829858Y232292000D01*
X-107877477Y232244381D01*
X-107925096Y232149143D01*
X-107972715Y231958667D01*
X-107972715Y231720571D01*
X-107925096Y231530095D01*
X-107877477Y231434857D01*
X-107829858Y231387238D01*
X-107734620Y231339619D01*
X-107639381Y231339619D01*
X-107544143Y231387238D01*
X-107496524Y231434857D01*
X-107448905Y231530095D01*
X-107401286Y231720571D01*
X-107401286Y231958667D01*
X-107448905Y232149143D01*
X-107496524Y232244381D01*
X-107544143Y232292000D01*
X-107639381Y232339619D01*
X-108401286Y232006286D02*
X-108401286Y231339619D01*
X-108401286Y231911048D02*
X-108448905Y231958667D01*
X-108544143Y232006286D01*
X-108687001Y232006286D01*
X-108782239Y231958667D01*
X-108829858Y231863429D01*
X-108829858Y231339619D01*
D13*
X-106672714Y221606286D02*
X-106634619Y221568190D01*
X-106520333Y221530095D01*
X-106444143Y221530095D01*
X-106329857Y221568190D01*
X-106253666Y221644381D01*
X-106215571Y221720571D01*
X-106177476Y221872952D01*
X-106177476Y221987238D01*
X-106215571Y222139619D01*
X-106253666Y222215810D01*
X-106329857Y222292000D01*
X-106444143Y222330095D01*
X-106520333Y222330095D01*
X-106634619Y222292000D01*
X-106672714Y222253905D01*
X-107434619Y221530095D02*
X-106977476Y221530095D01*
X-107206047Y221530095D02*
X-107206047Y222330095D01*
X-107129857Y222215810D01*
X-107053666Y222139619D01*
X-106977476Y222101524D01*
X-108196524Y221530095D02*
X-107739381Y221530095D01*
X-107967952Y221530095D02*
X-107967952Y222330095D01*
X-107891762Y222215810D01*
X-107815571Y222139619D01*
X-107739381Y222101524D01*
D10*
X-106544143Y224839619D02*
X-105972714Y224839619D01*
X-106258428Y224839619D02*
X-106258428Y225839619D01*
X-106163190Y225696762D01*
X-106067952Y225601524D01*
X-105972714Y225553905D01*
X-107163190Y225839619D02*
X-107258429Y225839619D01*
X-107353667Y225792000D01*
X-107401286Y225744381D01*
X-107448905Y225649143D01*
X-107496524Y225458667D01*
X-107496524Y225220571D01*
X-107448905Y225030095D01*
X-107401286Y224934857D01*
X-107353667Y224887238D01*
X-107258429Y224839619D01*
X-107163190Y224839619D01*
X-107067952Y224887238D01*
X-107020333Y224934857D01*
X-106972714Y225030095D01*
X-106925095Y225220571D01*
X-106925095Y225458667D01*
X-106972714Y225649143D01*
X-107020333Y225744381D01*
X-107067952Y225792000D01*
X-107163190Y225839619D01*
X-107925095Y225506286D02*
X-107925095Y224839619D01*
X-107925095Y225411048D02*
X-107972714Y225458667D01*
X-108067952Y225506286D01*
X-108210810Y225506286D01*
X-108306048Y225458667D01*
X-108353667Y225363429D01*
X-108353667Y224839619D01*
D13*
X-105172714Y223106286D02*
X-105134619Y223068190D01*
X-105020333Y223030095D01*
X-104944143Y223030095D01*
X-104829857Y223068190D01*
X-104753666Y223144381D01*
X-104715571Y223220571D01*
X-104677476Y223372952D01*
X-104677476Y223487238D01*
X-104715571Y223639619D01*
X-104753666Y223715810D01*
X-104829857Y223792000D01*
X-104944143Y223830095D01*
X-105020333Y223830095D01*
X-105134619Y223792000D01*
X-105172714Y223753905D01*
X-105934619Y223030095D02*
X-105477476Y223030095D01*
X-105706047Y223030095D02*
X-105706047Y223830095D01*
X-105629857Y223715810D01*
X-105553666Y223639619D01*
X-105477476Y223601524D01*
X-106239381Y223753905D02*
X-106277476Y223792000D01*
X-106353667Y223830095D01*
X-106544143Y223830095D01*
X-106620333Y223792000D01*
X-106658429Y223753905D01*
X-106696524Y223677714D01*
X-106696524Y223601524D01*
X-106658429Y223487238D01*
X-106201286Y223030095D01*
X-106696524Y223030095D01*
D10*
X-104567953Y226339619D02*
X-103996524Y226339619D01*
X-104282238Y226339619D02*
X-104282238Y227339619D01*
X-104187000Y227196762D01*
X-104091762Y227101524D01*
X-103996524Y227053905D01*
X-105187000Y227339619D02*
X-105282239Y227339619D01*
X-105377477Y227292000D01*
X-105425096Y227244381D01*
X-105472715Y227149143D01*
X-105520334Y226958667D01*
X-105520334Y226720571D01*
X-105472715Y226530095D01*
X-105425096Y226434857D01*
X-105377477Y226387238D01*
X-105282239Y226339619D01*
X-105187000Y226339619D01*
X-105091762Y226387238D01*
X-105044143Y226434857D01*
X-104996524Y226530095D01*
X-104948905Y226720571D01*
X-104948905Y226958667D01*
X-104996524Y227149143D01*
X-105044143Y227244381D01*
X-105091762Y227292000D01*
X-105187000Y227339619D01*
X-106139381Y227339619D02*
X-106234620Y227339619D01*
X-106329858Y227292000D01*
X-106377477Y227244381D01*
X-106425096Y227149143D01*
X-106472715Y226958667D01*
X-106472715Y226720571D01*
X-106425096Y226530095D01*
X-106377477Y226434857D01*
X-106329858Y226387238D01*
X-106234620Y226339619D01*
X-106139381Y226339619D01*
X-106044143Y226387238D01*
X-105996524Y226434857D01*
X-105948905Y226530095D01*
X-105901286Y226720571D01*
X-105901286Y226958667D01*
X-105948905Y227149143D01*
X-105996524Y227244381D01*
X-106044143Y227292000D01*
X-106139381Y227339619D01*
X-106901286Y227006286D02*
X-106901286Y226339619D01*
X-106901286Y226911048D02*
X-106948905Y226958667D01*
X-107044143Y227006286D01*
X-107187001Y227006286D01*
X-107282239Y226958667D01*
X-107329858Y226863429D01*
X-107329858Y226339619D01*
D13*
X-106172714Y224106286D02*
X-106134619Y224068190D01*
X-106020333Y224030095D01*
X-105944143Y224030095D01*
X-105829857Y224068190D01*
X-105753666Y224144381D01*
X-105715571Y224220571D01*
X-105677476Y224372952D01*
X-105677476Y224487238D01*
X-105715571Y224639619D01*
X-105753666Y224715810D01*
X-105829857Y224792000D01*
X-105944143Y224830095D01*
X-106020333Y224830095D01*
X-106134619Y224792000D01*
X-106172714Y224753905D01*
X-106934619Y224030095D02*
X-106477476Y224030095D01*
X-106706047Y224030095D02*
X-106706047Y224830095D01*
X-106629857Y224715810D01*
X-106553666Y224639619D01*
X-106477476Y224601524D01*
X-107201286Y224830095D02*
X-107696524Y224830095D01*
X-107429857Y224525333D01*
X-107544143Y224525333D01*
X-107620333Y224487238D01*
X-107658429Y224449143D01*
X-107696524Y224372952D01*
X-107696524Y224182476D01*
X-107658429Y224106286D01*
X-107620333Y224068190D01*
X-107544143Y224030095D01*
X-107315571Y224030095D01*
X-107239381Y224068190D01*
X-107201286Y224106286D01*
D10*
X-106044143Y227339619D02*
X-105472714Y227339619D01*
X-105758428Y227339619D02*
X-105758428Y228339619D01*
X-105663190Y228196762D01*
X-105567952Y228101524D01*
X-105472714Y228053905D01*
X-106663190Y228339619D02*
X-106758429Y228339619D01*
X-106853667Y228292000D01*
X-106901286Y228244381D01*
X-106948905Y228149143D01*
X-106996524Y227958667D01*
X-106996524Y227720571D01*
X-106948905Y227530095D01*
X-106901286Y227434857D01*
X-106853667Y227387238D01*
X-106758429Y227339619D01*
X-106663190Y227339619D01*
X-106567952Y227387238D01*
X-106520333Y227434857D01*
X-106472714Y227530095D01*
X-106425095Y227720571D01*
X-106425095Y227958667D01*
X-106472714Y228149143D01*
X-106520333Y228244381D01*
X-106567952Y228292000D01*
X-106663190Y228339619D01*
X-107425095Y228006286D02*
X-107425095Y227339619D01*
X-107425095Y227911048D02*
X-107472714Y227958667D01*
X-107567952Y228006286D01*
X-107710810Y228006286D01*
X-107806048Y227958667D01*
X-107853667Y227863429D01*
X-107853667Y227339619D01*
D13*
X-105172714Y225606286D02*
X-105134619Y225568190D01*
X-105020333Y225530095D01*
X-104944143Y225530095D01*
X-104829857Y225568190D01*
X-104753666Y225644381D01*
X-104715571Y225720571D01*
X-104677476Y225872952D01*
X-104677476Y225987238D01*
X-104715571Y226139619D01*
X-104753666Y226215810D01*
X-104829857Y226292000D01*
X-104944143Y226330095D01*
X-105020333Y226330095D01*
X-105134619Y226292000D01*
X-105172714Y226253905D01*
X-105934619Y225530095D02*
X-105477476Y225530095D01*
X-105706047Y225530095D02*
X-105706047Y226330095D01*
X-105629857Y226215810D01*
X-105553666Y226139619D01*
X-105477476Y226101524D01*
X-106620333Y226063429D02*
X-106620333Y225530095D01*
X-106429857Y226368190D02*
X-106239381Y225796762D01*
X-106734619Y225796762D01*
D10*
X-104567953Y228839619D02*
X-103996524Y228839619D01*
X-104282238Y228839619D02*
X-104282238Y229839619D01*
X-104187000Y229696762D01*
X-104091762Y229601524D01*
X-103996524Y229553905D01*
X-105187000Y229839619D02*
X-105282239Y229839619D01*
X-105377477Y229792000D01*
X-105425096Y229744381D01*
X-105472715Y229649143D01*
X-105520334Y229458667D01*
X-105520334Y229220571D01*
X-105472715Y229030095D01*
X-105425096Y228934857D01*
X-105377477Y228887238D01*
X-105282239Y228839619D01*
X-105187000Y228839619D01*
X-105091762Y228887238D01*
X-105044143Y228934857D01*
X-104996524Y229030095D01*
X-104948905Y229220571D01*
X-104948905Y229458667D01*
X-104996524Y229649143D01*
X-105044143Y229744381D01*
X-105091762Y229792000D01*
X-105187000Y229839619D01*
X-106139381Y229839619D02*
X-106234620Y229839619D01*
X-106329858Y229792000D01*
X-106377477Y229744381D01*
X-106425096Y229649143D01*
X-106472715Y229458667D01*
X-106472715Y229220571D01*
X-106425096Y229030095D01*
X-106377477Y228934857D01*
X-106329858Y228887238D01*
X-106234620Y228839619D01*
X-106139381Y228839619D01*
X-106044143Y228887238D01*
X-105996524Y228934857D01*
X-105948905Y229030095D01*
X-105901286Y229220571D01*
X-105901286Y229458667D01*
X-105948905Y229649143D01*
X-105996524Y229744381D01*
X-106044143Y229792000D01*
X-106139381Y229839619D01*
X-106901286Y229506286D02*
X-106901286Y228839619D01*
X-106901286Y229411048D02*
X-106948905Y229458667D01*
X-107044143Y229506286D01*
X-107187001Y229506286D01*
X-107282239Y229458667D01*
X-107329858Y229363429D01*
X-107329858Y228839619D01*
D13*
X-106672714Y227106286D02*
X-106634619Y227068190D01*
X-106520333Y227030095D01*
X-106444143Y227030095D01*
X-106329857Y227068190D01*
X-106253666Y227144381D01*
X-106215571Y227220571D01*
X-106177476Y227372952D01*
X-106177476Y227487238D01*
X-106215571Y227639619D01*
X-106253666Y227715810D01*
X-106329857Y227792000D01*
X-106444143Y227830095D01*
X-106520333Y227830095D01*
X-106634619Y227792000D01*
X-106672714Y227753905D01*
X-107434619Y227030095D02*
X-106977476Y227030095D01*
X-107206047Y227030095D02*
X-107206047Y227830095D01*
X-107129857Y227715810D01*
X-107053666Y227639619D01*
X-106977476Y227601524D01*
X-108158429Y227830095D02*
X-107777476Y227830095D01*
X-107739381Y227449143D01*
X-107777476Y227487238D01*
X-107853667Y227525333D01*
X-108044143Y227525333D01*
X-108120333Y227487238D01*
X-108158429Y227449143D01*
X-108196524Y227372952D01*
X-108196524Y227182476D01*
X-108158429Y227106286D01*
X-108120333Y227068190D01*
X-108044143Y227030095D01*
X-107853667Y227030095D01*
X-107777476Y227068190D01*
X-107739381Y227106286D01*
D10*
X-106544143Y230339619D02*
X-105972714Y230339619D01*
X-106258428Y230339619D02*
X-106258428Y231339619D01*
X-106163190Y231196762D01*
X-106067952Y231101524D01*
X-105972714Y231053905D01*
X-107163190Y231339619D02*
X-107258429Y231339619D01*
X-107353667Y231292000D01*
X-107401286Y231244381D01*
X-107448905Y231149143D01*
X-107496524Y230958667D01*
X-107496524Y230720571D01*
X-107448905Y230530095D01*
X-107401286Y230434857D01*
X-107353667Y230387238D01*
X-107258429Y230339619D01*
X-107163190Y230339619D01*
X-107067952Y230387238D01*
X-107020333Y230434857D01*
X-106972714Y230530095D01*
X-106925095Y230720571D01*
X-106925095Y230958667D01*
X-106972714Y231149143D01*
X-107020333Y231244381D01*
X-107067952Y231292000D01*
X-107163190Y231339619D01*
X-107925095Y231006286D02*
X-107925095Y230339619D01*
X-107925095Y230911048D02*
X-107972714Y230958667D01*
X-108067952Y231006286D01*
X-108210810Y231006286D01*
X-108306048Y230958667D01*
X-108353667Y230863429D01*
X-108353667Y230339619D01*
D13*
X-98201286Y234606286D02*
X-98163190Y234644381D01*
X-98125095Y234758667D01*
X-98125095Y234834857D01*
X-98163190Y234949143D01*
X-98239381Y235025334D01*
X-98315571Y235063429D01*
X-98467952Y235101524D01*
X-98582238Y235101524D01*
X-98734619Y235063429D01*
X-98810810Y235025334D01*
X-98887000Y234949143D01*
X-98925095Y234834857D01*
X-98925095Y234758667D01*
X-98887000Y234644381D01*
X-98848905Y234606286D01*
X-98125095Y233844381D02*
X-98125095Y234301524D01*
X-98125095Y234072953D02*
X-98925095Y234072953D01*
X-98810810Y234149143D01*
X-98734619Y234225334D01*
X-98696524Y234301524D01*
X-98925095Y233158667D02*
X-98925095Y233311048D01*
X-98887000Y233387238D01*
X-98848905Y233425333D01*
X-98734619Y233501524D01*
X-98582238Y233539619D01*
X-98277476Y233539619D01*
X-98201286Y233501524D01*
X-98163190Y233463429D01*
X-98125095Y233387238D01*
X-98125095Y233234857D01*
X-98163190Y233158667D01*
X-98201286Y233120571D01*
X-98277476Y233082476D01*
X-98467952Y233082476D01*
X-98544143Y233120571D01*
X-98582238Y233158667D01*
X-98620333Y233234857D01*
X-98620333Y233387238D01*
X-98582238Y233463429D01*
X-98544143Y233501524D01*
X-98467952Y233539619D01*
D10*
X-101434619Y235211047D02*
X-101434619Y235782476D01*
X-101434619Y235496762D02*
X-102434619Y235496762D01*
X-102291762Y235592000D01*
X-102196524Y235687238D01*
X-102148905Y235782476D01*
X-102434619Y234592000D02*
X-102434619Y234496761D01*
X-102387000Y234401523D01*
X-102339381Y234353904D01*
X-102244143Y234306285D01*
X-102053667Y234258666D01*
X-101815571Y234258666D01*
X-101625095Y234306285D01*
X-101529857Y234353904D01*
X-101482238Y234401523D01*
X-101434619Y234496761D01*
X-101434619Y234592000D01*
X-101482238Y234687238D01*
X-101529857Y234734857D01*
X-101625095Y234782476D01*
X-101815571Y234830095D01*
X-102053667Y234830095D01*
X-102244143Y234782476D01*
X-102339381Y234734857D01*
X-102387000Y234687238D01*
X-102434619Y234592000D01*
X-102434619Y233639619D02*
X-102434619Y233544380D01*
X-102387000Y233449142D01*
X-102339381Y233401523D01*
X-102244143Y233353904D01*
X-102053667Y233306285D01*
X-101815571Y233306285D01*
X-101625095Y233353904D01*
X-101529857Y233401523D01*
X-101482238Y233449142D01*
X-101434619Y233544380D01*
X-101434619Y233639619D01*
X-101482238Y233734857D01*
X-101529857Y233782476D01*
X-101625095Y233830095D01*
X-101815571Y233877714D01*
X-102053667Y233877714D01*
X-102244143Y233830095D01*
X-102339381Y233782476D01*
X-102387000Y233734857D01*
X-102434619Y233639619D01*
X-102101286Y232877714D02*
X-101434619Y232877714D01*
X-102006048Y232877714D02*
X-102053667Y232830095D01*
X-102101286Y232734857D01*
X-102101286Y232591999D01*
X-102053667Y232496761D01*
X-101958429Y232449142D01*
X-101434619Y232449142D01*
D13*
X-100201286Y231106286D02*
X-100163190Y231144381D01*
X-100125095Y231258667D01*
X-100125095Y231334857D01*
X-100163190Y231449143D01*
X-100239381Y231525334D01*
X-100315571Y231563429D01*
X-100467952Y231601524D01*
X-100582238Y231601524D01*
X-100734619Y231563429D01*
X-100810810Y231525334D01*
X-100887000Y231449143D01*
X-100925095Y231334857D01*
X-100925095Y231258667D01*
X-100887000Y231144381D01*
X-100848905Y231106286D01*
X-100125095Y230344381D02*
X-100125095Y230801524D01*
X-100125095Y230572953D02*
X-100925095Y230572953D01*
X-100810810Y230649143D01*
X-100734619Y230725334D01*
X-100696524Y230801524D01*
X-100925095Y230077714D02*
X-100925095Y229544381D01*
X-100125095Y229887238D01*
D10*
X-103434619Y231234857D02*
X-103434619Y231806286D01*
X-103434619Y231520572D02*
X-104434619Y231520572D01*
X-104291762Y231615810D01*
X-104196524Y231711048D01*
X-104148905Y231806286D01*
X-104434619Y230615810D02*
X-104434619Y230520571D01*
X-104387000Y230425333D01*
X-104339381Y230377714D01*
X-104244143Y230330095D01*
X-104053667Y230282476D01*
X-103815571Y230282476D01*
X-103625095Y230330095D01*
X-103529857Y230377714D01*
X-103482238Y230425333D01*
X-103434619Y230520571D01*
X-103434619Y230615810D01*
X-103482238Y230711048D01*
X-103529857Y230758667D01*
X-103625095Y230806286D01*
X-103815571Y230853905D01*
X-104053667Y230853905D01*
X-104244143Y230806286D01*
X-104339381Y230758667D01*
X-104387000Y230711048D01*
X-104434619Y230615810D01*
X-104101286Y229853905D02*
X-103434619Y229853905D01*
X-104006048Y229853905D02*
X-104053667Y229806286D01*
X-104101286Y229711048D01*
X-104101286Y229568190D01*
X-104053667Y229472952D01*
X-103958429Y229425333D01*
X-103434619Y229425333D01*
D13*
X-101701286Y230606286D02*
X-101663190Y230644381D01*
X-101625095Y230758667D01*
X-101625095Y230834857D01*
X-101663190Y230949143D01*
X-101739381Y231025334D01*
X-101815571Y231063429D01*
X-101967952Y231101524D01*
X-102082238Y231101524D01*
X-102234619Y231063429D01*
X-102310810Y231025334D01*
X-102387000Y230949143D01*
X-102425095Y230834857D01*
X-102425095Y230758667D01*
X-102387000Y230644381D01*
X-102348905Y230606286D01*
X-101625095Y229844381D02*
X-101625095Y230301524D01*
X-101625095Y230072953D02*
X-102425095Y230072953D01*
X-102310810Y230149143D01*
X-102234619Y230225334D01*
X-102196524Y230301524D01*
X-102082238Y229387238D02*
X-102120333Y229463429D01*
X-102158429Y229501524D01*
X-102234619Y229539619D01*
X-102272714Y229539619D01*
X-102348905Y229501524D01*
X-102387000Y229463429D01*
X-102425095Y229387238D01*
X-102425095Y229234857D01*
X-102387000Y229158667D01*
X-102348905Y229120571D01*
X-102272714Y229082476D01*
X-102234619Y229082476D01*
X-102158429Y229120571D01*
X-102120333Y229158667D01*
X-102082238Y229234857D01*
X-102082238Y229387238D01*
X-102044143Y229463429D01*
X-102006048Y229501524D01*
X-101929857Y229539619D01*
X-101777476Y229539619D01*
X-101701286Y229501524D01*
X-101663190Y229463429D01*
X-101625095Y229387238D01*
X-101625095Y229234857D01*
X-101663190Y229158667D01*
X-101701286Y229120571D01*
X-101777476Y229082476D01*
X-101929857Y229082476D01*
X-102006048Y229120571D01*
X-102044143Y229158667D01*
X-102082238Y229234857D01*
D10*
X-104934619Y231211047D02*
X-104934619Y231782476D01*
X-104934619Y231496762D02*
X-105934619Y231496762D01*
X-105791762Y231592000D01*
X-105696524Y231687238D01*
X-105648905Y231782476D01*
X-105934619Y230592000D02*
X-105934619Y230496761D01*
X-105887000Y230401523D01*
X-105839381Y230353904D01*
X-105744143Y230306285D01*
X-105553667Y230258666D01*
X-105315571Y230258666D01*
X-105125095Y230306285D01*
X-105029857Y230353904D01*
X-104982238Y230401523D01*
X-104934619Y230496761D01*
X-104934619Y230592000D01*
X-104982238Y230687238D01*
X-105029857Y230734857D01*
X-105125095Y230782476D01*
X-105315571Y230830095D01*
X-105553667Y230830095D01*
X-105744143Y230782476D01*
X-105839381Y230734857D01*
X-105887000Y230687238D01*
X-105934619Y230592000D01*
X-105934619Y229639619D02*
X-105934619Y229544380D01*
X-105887000Y229449142D01*
X-105839381Y229401523D01*
X-105744143Y229353904D01*
X-105553667Y229306285D01*
X-105315571Y229306285D01*
X-105125095Y229353904D01*
X-105029857Y229401523D01*
X-104982238Y229449142D01*
X-104934619Y229544380D01*
X-104934619Y229639619D01*
X-104982238Y229734857D01*
X-105029857Y229782476D01*
X-105125095Y229830095D01*
X-105315571Y229877714D01*
X-105553667Y229877714D01*
X-105744143Y229830095D01*
X-105839381Y229782476D01*
X-105887000Y229734857D01*
X-105934619Y229639619D01*
X-105601286Y228877714D02*
X-104934619Y228877714D01*
X-105506048Y228877714D02*
X-105553667Y228830095D01*
X-105601286Y228734857D01*
X-105601286Y228591999D01*
X-105553667Y228496761D01*
X-105458429Y228449142D01*
X-104934619Y228449142D01*
D13*
X-102701286Y230106286D02*
X-102663190Y230144381D01*
X-102625095Y230258667D01*
X-102625095Y230334857D01*
X-102663190Y230449143D01*
X-102739381Y230525334D01*
X-102815571Y230563429D01*
X-102967952Y230601524D01*
X-103082238Y230601524D01*
X-103234619Y230563429D01*
X-103310810Y230525334D01*
X-103387000Y230449143D01*
X-103425095Y230334857D01*
X-103425095Y230258667D01*
X-103387000Y230144381D01*
X-103348905Y230106286D01*
X-102625095Y229344381D02*
X-102625095Y229801524D01*
X-102625095Y229572953D02*
X-103425095Y229572953D01*
X-103310810Y229649143D01*
X-103234619Y229725334D01*
X-103196524Y229801524D01*
X-102625095Y228963429D02*
X-102625095Y228811048D01*
X-102663190Y228734857D01*
X-102701286Y228696762D01*
X-102815571Y228620571D01*
X-102967952Y228582476D01*
X-103272714Y228582476D01*
X-103348905Y228620571D01*
X-103387000Y228658667D01*
X-103425095Y228734857D01*
X-103425095Y228887238D01*
X-103387000Y228963429D01*
X-103348905Y229001524D01*
X-103272714Y229039619D01*
X-103082238Y229039619D01*
X-103006048Y229001524D01*
X-102967952Y228963429D01*
X-102929857Y228887238D01*
X-102929857Y228734857D01*
X-102967952Y228658667D01*
X-103006048Y228620571D01*
X-103082238Y228582476D01*
D10*
X-105934619Y230234857D02*
X-105934619Y230806286D01*
X-105934619Y230520572D02*
X-106934619Y230520572D01*
X-106791762Y230615810D01*
X-106696524Y230711048D01*
X-106648905Y230806286D01*
X-106934619Y229615810D02*
X-106934619Y229520571D01*
X-106887000Y229425333D01*
X-106839381Y229377714D01*
X-106744143Y229330095D01*
X-106553667Y229282476D01*
X-106315571Y229282476D01*
X-106125095Y229330095D01*
X-106029857Y229377714D01*
X-105982238Y229425333D01*
X-105934619Y229520571D01*
X-105934619Y229615810D01*
X-105982238Y229711048D01*
X-106029857Y229758667D01*
X-106125095Y229806286D01*
X-106315571Y229853905D01*
X-106553667Y229853905D01*
X-106744143Y229806286D01*
X-106839381Y229758667D01*
X-106887000Y229711048D01*
X-106934619Y229615810D01*
X-106601286Y228853905D02*
X-105934619Y228853905D01*
X-106506048Y228853905D02*
X-106553667Y228806286D01*
X-106601286Y228711048D01*
X-106601286Y228568190D01*
X-106553667Y228472952D01*
X-106458429Y228425333D01*
X-105934619Y228425333D01*
D13*
X-100172714Y224606286D02*
X-100134619Y224568190D01*
X-100020333Y224530095D01*
X-99944143Y224530095D01*
X-99829857Y224568190D01*
X-99753666Y224644381D01*
X-99715571Y224720571D01*
X-99677476Y224872952D01*
X-99677476Y224987238D01*
X-99715571Y225139619D01*
X-99753666Y225215810D01*
X-99829857Y225292000D01*
X-99944143Y225330095D01*
X-100020333Y225330095D01*
X-100134619Y225292000D01*
X-100172714Y225253905D01*
X-100477476Y225253905D02*
X-100515571Y225292000D01*
X-100591762Y225330095D01*
X-100782238Y225330095D01*
X-100858428Y225292000D01*
X-100896524Y225253905D01*
X-100934619Y225177714D01*
X-100934619Y225101524D01*
X-100896524Y224987238D01*
X-100439381Y224530095D01*
X-100934619Y224530095D01*
X-101429857Y225330095D02*
X-101506048Y225330095D01*
X-101582238Y225292000D01*
X-101620333Y225253905D01*
X-101658429Y225177714D01*
X-101696524Y225025333D01*
X-101696524Y224834857D01*
X-101658429Y224682476D01*
X-101620333Y224606286D01*
X-101582238Y224568190D01*
X-101506048Y224530095D01*
X-101429857Y224530095D01*
X-101353667Y224568190D01*
X-101315571Y224606286D01*
X-101277476Y224682476D01*
X-101239381Y224834857D01*
X-101239381Y225025333D01*
X-101277476Y225177714D01*
X-101315571Y225253905D01*
X-101353667Y225292000D01*
X-101429857Y225330095D01*
D10*
X-99567953Y227839619D02*
X-98996524Y227839619D01*
X-99282238Y227839619D02*
X-99282238Y228839619D01*
X-99187000Y228696762D01*
X-99091762Y228601524D01*
X-98996524Y228553905D01*
X-100187000Y228839619D02*
X-100282239Y228839619D01*
X-100377477Y228792000D01*
X-100425096Y228744381D01*
X-100472715Y228649143D01*
X-100520334Y228458667D01*
X-100520334Y228220571D01*
X-100472715Y228030095D01*
X-100425096Y227934857D01*
X-100377477Y227887238D01*
X-100282239Y227839619D01*
X-100187000Y227839619D01*
X-100091762Y227887238D01*
X-100044143Y227934857D01*
X-99996524Y228030095D01*
X-99948905Y228220571D01*
X-99948905Y228458667D01*
X-99996524Y228649143D01*
X-100044143Y228744381D01*
X-100091762Y228792000D01*
X-100187000Y228839619D01*
X-101139381Y228839619D02*
X-101234620Y228839619D01*
X-101329858Y228792000D01*
X-101377477Y228744381D01*
X-101425096Y228649143D01*
X-101472715Y228458667D01*
X-101472715Y228220571D01*
X-101425096Y228030095D01*
X-101377477Y227934857D01*
X-101329858Y227887238D01*
X-101234620Y227839619D01*
X-101139381Y227839619D01*
X-101044143Y227887238D01*
X-100996524Y227934857D01*
X-100948905Y228030095D01*
X-100901286Y228220571D01*
X-100901286Y228458667D01*
X-100948905Y228649143D01*
X-100996524Y228744381D01*
X-101044143Y228792000D01*
X-101139381Y228839619D01*
X-101901286Y228506286D02*
X-101901286Y227839619D01*
X-101901286Y228411048D02*
X-101948905Y228458667D01*
X-102044143Y228506286D01*
X-102187001Y228506286D01*
X-102282239Y228458667D01*
X-102329858Y228363429D01*
X-102329858Y227839619D01*
D13*
X-98672714Y223106286D02*
X-98634619Y223068190D01*
X-98520333Y223030095D01*
X-98444143Y223030095D01*
X-98329857Y223068190D01*
X-98253666Y223144381D01*
X-98215571Y223220571D01*
X-98177476Y223372952D01*
X-98177476Y223487238D01*
X-98215571Y223639619D01*
X-98253666Y223715810D01*
X-98329857Y223792000D01*
X-98444143Y223830095D01*
X-98520333Y223830095D01*
X-98634619Y223792000D01*
X-98672714Y223753905D01*
X-98977476Y223753905D02*
X-99015571Y223792000D01*
X-99091762Y223830095D01*
X-99282238Y223830095D01*
X-99358428Y223792000D01*
X-99396524Y223753905D01*
X-99434619Y223677714D01*
X-99434619Y223601524D01*
X-99396524Y223487238D01*
X-98939381Y223030095D01*
X-99434619Y223030095D01*
X-100196524Y223030095D02*
X-99739381Y223030095D01*
X-99967952Y223030095D02*
X-99967952Y223830095D01*
X-99891762Y223715810D01*
X-99815571Y223639619D01*
X-99739381Y223601524D01*
D10*
X-98544143Y226339619D02*
X-97972714Y226339619D01*
X-98258428Y226339619D02*
X-98258428Y227339619D01*
X-98163190Y227196762D01*
X-98067952Y227101524D01*
X-97972714Y227053905D01*
X-99163190Y227339619D02*
X-99258429Y227339619D01*
X-99353667Y227292000D01*
X-99401286Y227244381D01*
X-99448905Y227149143D01*
X-99496524Y226958667D01*
X-99496524Y226720571D01*
X-99448905Y226530095D01*
X-99401286Y226434857D01*
X-99353667Y226387238D01*
X-99258429Y226339619D01*
X-99163190Y226339619D01*
X-99067952Y226387238D01*
X-99020333Y226434857D01*
X-98972714Y226530095D01*
X-98925095Y226720571D01*
X-98925095Y226958667D01*
X-98972714Y227149143D01*
X-99020333Y227244381D01*
X-99067952Y227292000D01*
X-99163190Y227339619D01*
X-99925095Y227006286D02*
X-99925095Y226339619D01*
X-99925095Y226911048D02*
X-99972714Y226958667D01*
X-100067952Y227006286D01*
X-100210810Y227006286D01*
X-100306048Y226958667D01*
X-100353667Y226863429D01*
X-100353667Y226339619D01*
D13*
X-99701286Y223106286D02*
X-99663190Y223144381D01*
X-99625095Y223258667D01*
X-99625095Y223334857D01*
X-99663190Y223449143D01*
X-99739381Y223525334D01*
X-99815571Y223563429D01*
X-99967952Y223601524D01*
X-100082238Y223601524D01*
X-100234619Y223563429D01*
X-100310810Y223525334D01*
X-100387000Y223449143D01*
X-100425095Y223334857D01*
X-100425095Y223258667D01*
X-100387000Y223144381D01*
X-100348905Y223106286D01*
X-100348905Y222801524D02*
X-100387000Y222763429D01*
X-100425095Y222687238D01*
X-100425095Y222496762D01*
X-100387000Y222420572D01*
X-100348905Y222382476D01*
X-100272714Y222344381D01*
X-100196524Y222344381D01*
X-100082238Y222382476D01*
X-99625095Y222839619D01*
X-99625095Y222344381D01*
X-100348905Y222039619D02*
X-100387000Y222001524D01*
X-100425095Y221925333D01*
X-100425095Y221734857D01*
X-100387000Y221658667D01*
X-100348905Y221620571D01*
X-100272714Y221582476D01*
X-100196524Y221582476D01*
X-100082238Y221620571D01*
X-99625095Y222077714D01*
X-99625095Y221582476D01*
D10*
X-102934619Y223711047D02*
X-102934619Y224282476D01*
X-102934619Y223996762D02*
X-103934619Y223996762D01*
X-103791762Y224092000D01*
X-103696524Y224187238D01*
X-103648905Y224282476D01*
X-103934619Y223092000D02*
X-103934619Y222996761D01*
X-103887000Y222901523D01*
X-103839381Y222853904D01*
X-103744143Y222806285D01*
X-103553667Y222758666D01*
X-103315571Y222758666D01*
X-103125095Y222806285D01*
X-103029857Y222853904D01*
X-102982238Y222901523D01*
X-102934619Y222996761D01*
X-102934619Y223092000D01*
X-102982238Y223187238D01*
X-103029857Y223234857D01*
X-103125095Y223282476D01*
X-103315571Y223330095D01*
X-103553667Y223330095D01*
X-103744143Y223282476D01*
X-103839381Y223234857D01*
X-103887000Y223187238D01*
X-103934619Y223092000D01*
X-103934619Y222139619D02*
X-103934619Y222044380D01*
X-103887000Y221949142D01*
X-103839381Y221901523D01*
X-103744143Y221853904D01*
X-103553667Y221806285D01*
X-103315571Y221806285D01*
X-103125095Y221853904D01*
X-103029857Y221901523D01*
X-102982238Y221949142D01*
X-102934619Y222044380D01*
X-102934619Y222139619D01*
X-102982238Y222234857D01*
X-103029857Y222282476D01*
X-103125095Y222330095D01*
X-103315571Y222377714D01*
X-103553667Y222377714D01*
X-103744143Y222330095D01*
X-103839381Y222282476D01*
X-103887000Y222234857D01*
X-103934619Y222139619D01*
X-103601286Y221377714D02*
X-102934619Y221377714D01*
X-103506048Y221377714D02*
X-103553667Y221330095D01*
X-103601286Y221234857D01*
X-103601286Y221091999D01*
X-103553667Y220996761D01*
X-103458429Y220949142D01*
X-102934619Y220949142D01*
D13*
X-101201286Y224606286D02*
X-101163190Y224644381D01*
X-101125095Y224758667D01*
X-101125095Y224834857D01*
X-101163190Y224949143D01*
X-101239381Y225025334D01*
X-101315571Y225063429D01*
X-101467952Y225101524D01*
X-101582238Y225101524D01*
X-101734619Y225063429D01*
X-101810810Y225025334D01*
X-101887000Y224949143D01*
X-101925095Y224834857D01*
X-101925095Y224758667D01*
X-101887000Y224644381D01*
X-101848905Y224606286D01*
X-101848905Y224301524D02*
X-101887000Y224263429D01*
X-101925095Y224187238D01*
X-101925095Y223996762D01*
X-101887000Y223920572D01*
X-101848905Y223882476D01*
X-101772714Y223844381D01*
X-101696524Y223844381D01*
X-101582238Y223882476D01*
X-101125095Y224339619D01*
X-101125095Y223844381D01*
X-101925095Y223577714D02*
X-101925095Y223082476D01*
X-101620333Y223349143D01*
X-101620333Y223234857D01*
X-101582238Y223158667D01*
X-101544143Y223120571D01*
X-101467952Y223082476D01*
X-101277476Y223082476D01*
X-101201286Y223120571D01*
X-101163190Y223158667D01*
X-101125095Y223234857D01*
X-101125095Y223463429D01*
X-101163190Y223539619D01*
X-101201286Y223577714D01*
D10*
X-104434619Y224734857D02*
X-104434619Y225306286D01*
X-104434619Y225020572D02*
X-105434619Y225020572D01*
X-105291762Y225115810D01*
X-105196524Y225211048D01*
X-105148905Y225306286D01*
X-105434619Y224115810D02*
X-105434619Y224020571D01*
X-105387000Y223925333D01*
X-105339381Y223877714D01*
X-105244143Y223830095D01*
X-105053667Y223782476D01*
X-104815571Y223782476D01*
X-104625095Y223830095D01*
X-104529857Y223877714D01*
X-104482238Y223925333D01*
X-104434619Y224020571D01*
X-104434619Y224115810D01*
X-104482238Y224211048D01*
X-104529857Y224258667D01*
X-104625095Y224306286D01*
X-104815571Y224353905D01*
X-105053667Y224353905D01*
X-105244143Y224306286D01*
X-105339381Y224258667D01*
X-105387000Y224211048D01*
X-105434619Y224115810D01*
X-105101286Y223353905D02*
X-104434619Y223353905D01*
X-105006048Y223353905D02*
X-105053667Y223306286D01*
X-105101286Y223211048D01*
X-105101286Y223068190D01*
X-105053667Y222972952D01*
X-104958429Y222925333D01*
X-104434619Y222925333D01*
D13*
X-104701286Y221106286D02*
X-104663190Y221144381D01*
X-104625095Y221258667D01*
X-104625095Y221334857D01*
X-104663190Y221449143D01*
X-104739381Y221525334D01*
X-104815571Y221563429D01*
X-104967952Y221601524D01*
X-105082238Y221601524D01*
X-105234619Y221563429D01*
X-105310810Y221525334D01*
X-105387000Y221449143D01*
X-105425095Y221334857D01*
X-105425095Y221258667D01*
X-105387000Y221144381D01*
X-105348905Y221106286D01*
X-105348905Y220801524D02*
X-105387000Y220763429D01*
X-105425095Y220687238D01*
X-105425095Y220496762D01*
X-105387000Y220420572D01*
X-105348905Y220382476D01*
X-105272714Y220344381D01*
X-105196524Y220344381D01*
X-105082238Y220382476D01*
X-104625095Y220839619D01*
X-104625095Y220344381D01*
X-105158429Y219658667D02*
X-104625095Y219658667D01*
X-105463190Y219849143D02*
X-104891762Y220039619D01*
X-104891762Y219544381D01*
D10*
X-107934619Y221711047D02*
X-107934619Y222282476D01*
X-107934619Y221996762D02*
X-108934619Y221996762D01*
X-108791762Y222092000D01*
X-108696524Y222187238D01*
X-108648905Y222282476D01*
X-108934619Y221092000D02*
X-108934619Y220996761D01*
X-108887000Y220901523D01*
X-108839381Y220853904D01*
X-108744143Y220806285D01*
X-108553667Y220758666D01*
X-108315571Y220758666D01*
X-108125095Y220806285D01*
X-108029857Y220853904D01*
X-107982238Y220901523D01*
X-107934619Y220996761D01*
X-107934619Y221092000D01*
X-107982238Y221187238D01*
X-108029857Y221234857D01*
X-108125095Y221282476D01*
X-108315571Y221330095D01*
X-108553667Y221330095D01*
X-108744143Y221282476D01*
X-108839381Y221234857D01*
X-108887000Y221187238D01*
X-108934619Y221092000D01*
X-108934619Y220139619D02*
X-108934619Y220044380D01*
X-108887000Y219949142D01*
X-108839381Y219901523D01*
X-108744143Y219853904D01*
X-108553667Y219806285D01*
X-108315571Y219806285D01*
X-108125095Y219853904D01*
X-108029857Y219901523D01*
X-107982238Y219949142D01*
X-107934619Y220044380D01*
X-107934619Y220139619D01*
X-107982238Y220234857D01*
X-108029857Y220282476D01*
X-108125095Y220330095D01*
X-108315571Y220377714D01*
X-108553667Y220377714D01*
X-108744143Y220330095D01*
X-108839381Y220282476D01*
X-108887000Y220234857D01*
X-108934619Y220139619D01*
X-108601286Y219377714D02*
X-107934619Y219377714D01*
X-108506048Y219377714D02*
X-108553667Y219330095D01*
X-108601286Y219234857D01*
X-108601286Y219091999D01*
X-108553667Y218996761D01*
X-108458429Y218949142D01*
X-107934619Y218949142D01*
D13*
X-99172714Y228106286D02*
X-99134619Y228068190D01*
X-99020333Y228030095D01*
X-98944143Y228030095D01*
X-98829857Y228068190D01*
X-98753666Y228144381D01*
X-98715571Y228220571D01*
X-98677476Y228372952D01*
X-98677476Y228487238D01*
X-98715571Y228639619D01*
X-98753666Y228715810D01*
X-98829857Y228792000D01*
X-98944143Y228830095D01*
X-99020333Y228830095D01*
X-99134619Y228792000D01*
X-99172714Y228753905D01*
X-99477476Y228753905D02*
X-99515571Y228792000D01*
X-99591762Y228830095D01*
X-99782238Y228830095D01*
X-99858428Y228792000D01*
X-99896524Y228753905D01*
X-99934619Y228677714D01*
X-99934619Y228601524D01*
X-99896524Y228487238D01*
X-99439381Y228030095D01*
X-99934619Y228030095D01*
X-100658429Y228830095D02*
X-100277476Y228830095D01*
X-100239381Y228449143D01*
X-100277476Y228487238D01*
X-100353667Y228525333D01*
X-100544143Y228525333D01*
X-100620333Y228487238D01*
X-100658429Y228449143D01*
X-100696524Y228372952D01*
X-100696524Y228182476D01*
X-100658429Y228106286D01*
X-100620333Y228068190D01*
X-100544143Y228030095D01*
X-100353667Y228030095D01*
X-100277476Y228068190D01*
X-100239381Y228106286D01*
D10*
X-99044143Y231339619D02*
X-98472714Y231339619D01*
X-98758428Y231339619D02*
X-98758428Y232339619D01*
X-98663190Y232196762D01*
X-98567952Y232101524D01*
X-98472714Y232053905D01*
X-99663190Y232339619D02*
X-99758429Y232339619D01*
X-99853667Y232292000D01*
X-99901286Y232244381D01*
X-99948905Y232149143D01*
X-99996524Y231958667D01*
X-99996524Y231720571D01*
X-99948905Y231530095D01*
X-99901286Y231434857D01*
X-99853667Y231387238D01*
X-99758429Y231339619D01*
X-99663190Y231339619D01*
X-99567952Y231387238D01*
X-99520333Y231434857D01*
X-99472714Y231530095D01*
X-99425095Y231720571D01*
X-99425095Y231958667D01*
X-99472714Y232149143D01*
X-99520333Y232244381D01*
X-99567952Y232292000D01*
X-99663190Y232339619D01*
X-100425095Y232006286D02*
X-100425095Y231339619D01*
X-100425095Y231911048D02*
X-100472714Y231958667D01*
X-100567952Y232006286D01*
X-100710810Y232006286D01*
X-100806048Y231958667D01*
X-100853667Y231863429D01*
X-100853667Y231339619D01*
D13*
X-99672714Y226106286D02*
X-99634619Y226068190D01*
X-99520333Y226030095D01*
X-99444143Y226030095D01*
X-99329857Y226068190D01*
X-99253666Y226144381D01*
X-99215571Y226220571D01*
X-99177476Y226372952D01*
X-99177476Y226487238D01*
X-99215571Y226639619D01*
X-99253666Y226715810D01*
X-99329857Y226792000D01*
X-99444143Y226830095D01*
X-99520333Y226830095D01*
X-99634619Y226792000D01*
X-99672714Y226753905D01*
X-99977476Y226753905D02*
X-100015571Y226792000D01*
X-100091762Y226830095D01*
X-100282238Y226830095D01*
X-100358428Y226792000D01*
X-100396524Y226753905D01*
X-100434619Y226677714D01*
X-100434619Y226601524D01*
X-100396524Y226487238D01*
X-99939381Y226030095D01*
X-100434619Y226030095D01*
X-101120333Y226830095D02*
X-100967952Y226830095D01*
X-100891762Y226792000D01*
X-100853667Y226753905D01*
X-100777476Y226639619D01*
X-100739381Y226487238D01*
X-100739381Y226182476D01*
X-100777476Y226106286D01*
X-100815571Y226068190D01*
X-100891762Y226030095D01*
X-101044143Y226030095D01*
X-101120333Y226068190D01*
X-101158429Y226106286D01*
X-101196524Y226182476D01*
X-101196524Y226372952D01*
X-101158429Y226449143D01*
X-101120333Y226487238D01*
X-101044143Y226525333D01*
X-100891762Y226525333D01*
X-100815571Y226487238D01*
X-100777476Y226449143D01*
X-100739381Y226372952D01*
D10*
X-99067953Y229339619D02*
X-98496524Y229339619D01*
X-98782238Y229339619D02*
X-98782238Y230339619D01*
X-98687000Y230196762D01*
X-98591762Y230101524D01*
X-98496524Y230053905D01*
X-99687000Y230339619D02*
X-99782239Y230339619D01*
X-99877477Y230292000D01*
X-99925096Y230244381D01*
X-99972715Y230149143D01*
X-100020334Y229958667D01*
X-100020334Y229720571D01*
X-99972715Y229530095D01*
X-99925096Y229434857D01*
X-99877477Y229387238D01*
X-99782239Y229339619D01*
X-99687000Y229339619D01*
X-99591762Y229387238D01*
X-99544143Y229434857D01*
X-99496524Y229530095D01*
X-99448905Y229720571D01*
X-99448905Y229958667D01*
X-99496524Y230149143D01*
X-99544143Y230244381D01*
X-99591762Y230292000D01*
X-99687000Y230339619D01*
X-100639381Y230339619D02*
X-100734620Y230339619D01*
X-100829858Y230292000D01*
X-100877477Y230244381D01*
X-100925096Y230149143D01*
X-100972715Y229958667D01*
X-100972715Y229720571D01*
X-100925096Y229530095D01*
X-100877477Y229434857D01*
X-100829858Y229387238D01*
X-100734620Y229339619D01*
X-100639381Y229339619D01*
X-100544143Y229387238D01*
X-100496524Y229434857D01*
X-100448905Y229530095D01*
X-100401286Y229720571D01*
X-100401286Y229958667D01*
X-100448905Y230149143D01*
X-100496524Y230244381D01*
X-100544143Y230292000D01*
X-100639381Y230339619D01*
X-101401286Y230006286D02*
X-101401286Y229339619D01*
X-101401286Y229911048D02*
X-101448905Y229958667D01*
X-101544143Y230006286D01*
X-101687001Y230006286D01*
X-101782239Y229958667D01*
X-101829858Y229863429D01*
X-101829858Y229339619D01*
D13*
X-99172714Y221606286D02*
X-99134619Y221568190D01*
X-99020333Y221530095D01*
X-98944143Y221530095D01*
X-98829857Y221568190D01*
X-98753666Y221644381D01*
X-98715571Y221720571D01*
X-98677476Y221872952D01*
X-98677476Y221987238D01*
X-98715571Y222139619D01*
X-98753666Y222215810D01*
X-98829857Y222292000D01*
X-98944143Y222330095D01*
X-99020333Y222330095D01*
X-99134619Y222292000D01*
X-99172714Y222253905D01*
X-99477476Y222253905D02*
X-99515571Y222292000D01*
X-99591762Y222330095D01*
X-99782238Y222330095D01*
X-99858428Y222292000D01*
X-99896524Y222253905D01*
X-99934619Y222177714D01*
X-99934619Y222101524D01*
X-99896524Y221987238D01*
X-99439381Y221530095D01*
X-99934619Y221530095D01*
X-100201286Y222330095D02*
X-100734619Y222330095D01*
X-100391762Y221530095D01*
D10*
X-99044143Y224839619D02*
X-98472714Y224839619D01*
X-98758428Y224839619D02*
X-98758428Y225839619D01*
X-98663190Y225696762D01*
X-98567952Y225601524D01*
X-98472714Y225553905D01*
X-99663190Y225839619D02*
X-99758429Y225839619D01*
X-99853667Y225792000D01*
X-99901286Y225744381D01*
X-99948905Y225649143D01*
X-99996524Y225458667D01*
X-99996524Y225220571D01*
X-99948905Y225030095D01*
X-99901286Y224934857D01*
X-99853667Y224887238D01*
X-99758429Y224839619D01*
X-99663190Y224839619D01*
X-99567952Y224887238D01*
X-99520333Y224934857D01*
X-99472714Y225030095D01*
X-99425095Y225220571D01*
X-99425095Y225458667D01*
X-99472714Y225649143D01*
X-99520333Y225744381D01*
X-99567952Y225792000D01*
X-99663190Y225839619D01*
X-100425095Y225506286D02*
X-100425095Y224839619D01*
X-100425095Y225411048D02*
X-100472714Y225458667D01*
X-100567952Y225506286D01*
X-100710810Y225506286D01*
X-100806048Y225458667D01*
X-100853667Y225363429D01*
X-100853667Y224839619D01*
D13*
X-99172714Y219606286D02*
X-99134619Y219568190D01*
X-99020333Y219530095D01*
X-98944143Y219530095D01*
X-98829857Y219568190D01*
X-98753666Y219644381D01*
X-98715571Y219720571D01*
X-98677476Y219872952D01*
X-98677476Y219987238D01*
X-98715571Y220139619D01*
X-98753666Y220215810D01*
X-98829857Y220292000D01*
X-98944143Y220330095D01*
X-99020333Y220330095D01*
X-99134619Y220292000D01*
X-99172714Y220253905D01*
X-99477476Y220253905D02*
X-99515571Y220292000D01*
X-99591762Y220330095D01*
X-99782238Y220330095D01*
X-99858428Y220292000D01*
X-99896524Y220253905D01*
X-99934619Y220177714D01*
X-99934619Y220101524D01*
X-99896524Y219987238D01*
X-99439381Y219530095D01*
X-99934619Y219530095D01*
X-100391762Y219987238D02*
X-100315571Y220025333D01*
X-100277476Y220063429D01*
X-100239381Y220139619D01*
X-100239381Y220177714D01*
X-100277476Y220253905D01*
X-100315571Y220292000D01*
X-100391762Y220330095D01*
X-100544143Y220330095D01*
X-100620333Y220292000D01*
X-100658429Y220253905D01*
X-100696524Y220177714D01*
X-100696524Y220139619D01*
X-100658429Y220063429D01*
X-100620333Y220025333D01*
X-100544143Y219987238D01*
X-100391762Y219987238D01*
X-100315571Y219949143D01*
X-100277476Y219911048D01*
X-100239381Y219834857D01*
X-100239381Y219682476D01*
X-100277476Y219606286D01*
X-100315571Y219568190D01*
X-100391762Y219530095D01*
X-100544143Y219530095D01*
X-100620333Y219568190D01*
X-100658429Y219606286D01*
X-100696524Y219682476D01*
X-100696524Y219834857D01*
X-100658429Y219911048D01*
X-100620333Y219949143D01*
X-100544143Y219987238D01*
D10*
X-98567953Y222839619D02*
X-97996524Y222839619D01*
X-98282238Y222839619D02*
X-98282238Y223839619D01*
X-98187000Y223696762D01*
X-98091762Y223601524D01*
X-97996524Y223553905D01*
X-99187000Y223839619D02*
X-99282239Y223839619D01*
X-99377477Y223792000D01*
X-99425096Y223744381D01*
X-99472715Y223649143D01*
X-99520334Y223458667D01*
X-99520334Y223220571D01*
X-99472715Y223030095D01*
X-99425096Y222934857D01*
X-99377477Y222887238D01*
X-99282239Y222839619D01*
X-99187000Y222839619D01*
X-99091762Y222887238D01*
X-99044143Y222934857D01*
X-98996524Y223030095D01*
X-98948905Y223220571D01*
X-98948905Y223458667D01*
X-98996524Y223649143D01*
X-99044143Y223744381D01*
X-99091762Y223792000D01*
X-99187000Y223839619D01*
X-100139381Y223839619D02*
X-100234620Y223839619D01*
X-100329858Y223792000D01*
X-100377477Y223744381D01*
X-100425096Y223649143D01*
X-100472715Y223458667D01*
X-100472715Y223220571D01*
X-100425096Y223030095D01*
X-100377477Y222934857D01*
X-100329858Y222887238D01*
X-100234620Y222839619D01*
X-100139381Y222839619D01*
X-100044143Y222887238D01*
X-99996524Y222934857D01*
X-99948905Y223030095D01*
X-99901286Y223220571D01*
X-99901286Y223458667D01*
X-99948905Y223649143D01*
X-99996524Y223744381D01*
X-100044143Y223792000D01*
X-100139381Y223839619D01*
X-100901286Y223506286D02*
X-100901286Y222839619D01*
X-100901286Y223411048D02*
X-100948905Y223458667D01*
X-101044143Y223506286D01*
X-101187001Y223506286D01*
X-101282239Y223458667D01*
X-101329858Y223363429D01*
X-101329858Y222839619D01*
D13*
X-102701286Y223106286D02*
X-102663190Y223144381D01*
X-102625095Y223258667D01*
X-102625095Y223334857D01*
X-102663190Y223449143D01*
X-102739381Y223525334D01*
X-102815571Y223563429D01*
X-102967952Y223601524D01*
X-103082238Y223601524D01*
X-103234619Y223563429D01*
X-103310810Y223525334D01*
X-103387000Y223449143D01*
X-103425095Y223334857D01*
X-103425095Y223258667D01*
X-103387000Y223144381D01*
X-103348905Y223106286D01*
X-103348905Y222801524D02*
X-103387000Y222763429D01*
X-103425095Y222687238D01*
X-103425095Y222496762D01*
X-103387000Y222420572D01*
X-103348905Y222382476D01*
X-103272714Y222344381D01*
X-103196524Y222344381D01*
X-103082238Y222382476D01*
X-102625095Y222839619D01*
X-102625095Y222344381D01*
X-102625095Y221963429D02*
X-102625095Y221811048D01*
X-102663190Y221734857D01*
X-102701286Y221696762D01*
X-102815571Y221620571D01*
X-102967952Y221582476D01*
X-103272714Y221582476D01*
X-103348905Y221620571D01*
X-103387000Y221658667D01*
X-103425095Y221734857D01*
X-103425095Y221887238D01*
X-103387000Y221963429D01*
X-103348905Y222001524D01*
X-103272714Y222039619D01*
X-103082238Y222039619D01*
X-103006048Y222001524D01*
X-102967952Y221963429D01*
X-102929857Y221887238D01*
X-102929857Y221734857D01*
X-102967952Y221658667D01*
X-103006048Y221620571D01*
X-103082238Y221582476D01*
D10*
X-105934619Y223234857D02*
X-105934619Y223806286D01*
X-105934619Y223520572D02*
X-106934619Y223520572D01*
X-106791762Y223615810D01*
X-106696524Y223711048D01*
X-106648905Y223806286D01*
X-106934619Y222615810D02*
X-106934619Y222520571D01*
X-106887000Y222425333D01*
X-106839381Y222377714D01*
X-106744143Y222330095D01*
X-106553667Y222282476D01*
X-106315571Y222282476D01*
X-106125095Y222330095D01*
X-106029857Y222377714D01*
X-105982238Y222425333D01*
X-105934619Y222520571D01*
X-105934619Y222615810D01*
X-105982238Y222711048D01*
X-106029857Y222758667D01*
X-106125095Y222806286D01*
X-106315571Y222853905D01*
X-106553667Y222853905D01*
X-106744143Y222806286D01*
X-106839381Y222758667D01*
X-106887000Y222711048D01*
X-106934619Y222615810D01*
X-106601286Y221853905D02*
X-105934619Y221853905D01*
X-106506048Y221853905D02*
X-106553667Y221806286D01*
X-106601286Y221711048D01*
X-106601286Y221568190D01*
X-106553667Y221472952D01*
X-106458429Y221425333D01*
X-105934619Y221425333D01*
M02*
