G04 #@! TF.FileFunction,Profile,NP*
%FSLAX46Y46*%
G04 Gerber Fmt 4.6, Leading zero omitted, Abs format (unit mm)*
G04 Created by KiCad (PCBNEW 0.201501280107+5391~20~ubuntu14.10.1-product) date Fre 06 Feb 2015 15:11:44 CET*
%MOMM*%
G01*
G04 APERTURE LIST*
%ADD10C,0.150000*%
%ADD11C,0.254000*%
G04 APERTURE END LIST*
D10*
D11*
X-112204500Y206438500D02*
X-112204500Y198310500D01*
X-118935500Y206438500D02*
X-112204500Y206438500D01*
X-118935500Y198310500D02*
X-118935500Y206438500D01*
X-112204500Y249745500D02*
X-112204500Y257873500D01*
X-118935500Y249745500D02*
X-112204500Y249745500D01*
X-118935500Y257873500D02*
X-118935500Y249745500D01*
X-78041500Y249745500D02*
X-72580500Y249745500D01*
X-78041500Y257873500D02*
X-78041500Y249745500D01*
X-78041500Y206438500D02*
X-72580500Y206438500D01*
X-78041500Y198310500D02*
X-78041500Y206438500D01*
X-135826500Y256730500D02*
X-137096500Y256730500D01*
X-135826500Y257873500D02*
X-135826500Y256730500D01*
X-118935500Y257873500D02*
X-135826500Y257873500D01*
X-78041500Y257873500D02*
X-112204500Y257873500D01*
X-112204500Y198310500D02*
X-78041500Y198310500D01*
X-135953500Y198310500D02*
X-118935500Y198310500D01*
X-135953500Y199580500D02*
X-135953500Y198310500D01*
X-137096500Y199580500D02*
X-135953500Y199580500D01*
X-137096500Y256730500D02*
X-137096500Y199580500D01*
X-72580500Y206491899D02*
X-72580500Y249692000D01*
M02*
