%FSLAX45Y45*%
G04 Gerber Fmt 4.5, Leading zero omitted, Abs format (unit mm)*
G04 Created by KiCad (PCBNEW 0.201501280107+5391~20~ubuntu14.10.1-product) date Fre 06 Feb 2015 15:08:14 CET*
%MOMM*%
G01*
G04 APERTURE LIST*
%ADD10C,0.127000*%
%ADD11C,0.254000*%
%ADD12C,0.200000*%
%ADD13C,0.300000*%
G04 APERTURE END LIST*
D10*
D11*
X-11220450Y20643850D02*
X-11220450Y19831050D01*
X-11893550Y20643850D02*
X-11220450Y20643850D01*
X-11893550Y19831050D02*
X-11893550Y20643850D01*
X-11220450Y24974550D02*
X-11220450Y25787350D01*
X-11893550Y24974550D02*
X-11220450Y24974550D01*
X-11893550Y25787350D02*
X-11893550Y24974550D01*
X-7804150Y24974550D02*
X-7258050Y24974550D01*
X-7804150Y25787350D02*
X-7804150Y24974550D01*
X-7804150Y20643850D02*
X-7258050Y20643850D01*
X-7804150Y19831050D02*
X-7804150Y20643850D01*
X-13582650Y25673050D02*
X-13709650Y25673050D01*
X-13582650Y25787350D02*
X-13582650Y25673050D01*
X-11893550Y25787350D02*
X-13582650Y25787350D01*
X-7804150Y25787350D02*
X-11220450Y25787350D01*
X-11220450Y19831050D02*
X-7804150Y19831050D01*
X-13595350Y19831050D02*
X-11893550Y19831050D01*
X-13595350Y19958050D02*
X-13595350Y19831050D01*
X-13709650Y19958050D02*
X-13595350Y19958050D01*
X-13709650Y25673050D02*
X-13709650Y19958050D01*
X-7258050Y20649190D02*
X-7258050Y24969200D01*
D12*
X-12258700Y25474200D02*
X-12228700Y25444200D01*
X-12228700Y25474200D02*
X-12258700Y25444200D01*
X-12183700Y25349200D02*
X-12153700Y25319200D01*
X-12153700Y25349200D02*
X-12183700Y25319200D01*
X-12183700Y22549200D02*
X-12153700Y22519200D01*
X-12153700Y22549200D02*
X-12183700Y22519200D01*
X-12083700Y22549200D02*
X-12053700Y22519200D01*
X-12053700Y22549200D02*
X-12083700Y22519200D01*
X-11498700Y22849200D02*
X-11468700Y22819200D01*
X-11468700Y22849200D02*
X-11498700Y22819200D01*
X-11373700Y22849200D02*
X-11343700Y22819200D01*
X-11343700Y22849200D02*
X-11373700Y22819200D01*
X-9813700Y21504200D02*
X-9783700Y21474200D01*
X-9783700Y21504200D02*
X-9813700Y21474200D01*
X-9653700Y21434200D02*
X-9623700Y21404200D01*
X-9623700Y21434200D02*
X-9653700Y21404200D01*
X-9523700Y21364200D02*
X-9493700Y21334200D01*
X-9493700Y21364200D02*
X-9523700Y21334200D01*
X-9393700Y21294200D02*
X-9363700Y21264200D01*
X-9363700Y21294200D02*
X-9393700Y21264200D01*
X-9253700Y21244200D02*
X-9223700Y21214200D01*
X-9223700Y21244200D02*
X-9253700Y21214200D01*
X-9123700Y21174200D02*
X-9093700Y21144200D01*
X-9093700Y21174200D02*
X-9123700Y21144200D01*
X-9003700Y21104200D02*
X-8973700Y21074200D01*
X-8973700Y21104200D02*
X-9003700Y21074200D01*
X-8873700Y21024200D02*
X-8843700Y20994200D01*
X-8843700Y21024200D02*
X-8873700Y20994200D01*
X-8753700Y20964200D02*
X-8723700Y20934200D01*
X-8723700Y20964200D02*
X-8753700Y20934200D01*
X-8613700Y20884200D02*
X-8583700Y20854200D01*
X-8583700Y20884200D02*
X-8613700Y20854200D01*
X-8483700Y20814200D02*
X-8453700Y20784200D01*
X-8453700Y20814200D02*
X-8483700Y20784200D01*
X-8358400Y20749784D02*
X-8328400Y20719784D01*
X-8328400Y20749784D02*
X-8358400Y20719784D01*
X-8253700Y20684200D02*
X-8223700Y20654200D01*
X-8223700Y20684200D02*
X-8253700Y20654200D01*
X-8113700Y20614200D02*
X-8083700Y20584200D01*
X-8083700Y20614200D02*
X-8113700Y20584200D01*
X-7993700Y20544200D02*
X-7963700Y20514200D01*
X-7963700Y20544200D02*
X-7993700Y20514200D01*
X-13353700Y23584200D02*
G75*
G03X-13353700Y23584200I-45000J0D01*
G01*
X-13353700Y22134200D02*
G75*
G03X-13353700Y22134200I-45000J0D01*
G01*
X-12753700Y23584200D02*
G75*
G03X-12753700Y23584200I-45000J0D01*
G01*
X-12753700Y22134200D02*
G75*
G03X-12753700Y22134200I-45000J0D01*
G01*
X-7468700Y24758920D02*
X-7468700Y24667480D01*
X-7514420Y24713200D02*
X-7422980Y24713200D01*
X-7468700Y24504920D02*
X-7468700Y24413480D01*
X-7514420Y24459200D02*
X-7422980Y24459200D01*
X-7468700Y24250920D02*
X-7468700Y24159480D01*
X-7514420Y24205200D02*
X-7422980Y24205200D01*
X-7909779Y23581279D02*
X-7909779Y23653121D01*
X-7981621Y23653121D01*
X-7981621Y23581279D01*
X-7909779Y23581279D01*
X-7909779Y23327279D02*
X-7909779Y23399121D01*
X-7981621Y23399121D01*
X-7981621Y23327279D01*
X-7909779Y23327279D01*
X-7909779Y23073279D02*
X-7909779Y23145121D01*
X-7981621Y23145121D01*
X-7981621Y23073279D01*
X-7909779Y23073279D01*
X-7909779Y22819279D02*
X-7909779Y22891121D01*
X-7981621Y22891121D01*
X-7981621Y22819279D01*
X-7909779Y22819279D01*
X-7909779Y22565279D02*
X-7909779Y22637121D01*
X-7981621Y22637121D01*
X-7981621Y22565279D01*
X-7909779Y22565279D01*
X-7858839Y21948399D02*
X-7858839Y22020241D01*
X-7930681Y22020241D01*
X-7930681Y21948399D01*
X-7858839Y21948399D01*
X-7858839Y21298159D02*
X-7858839Y21370001D01*
X-7930681Y21370001D01*
X-7930681Y21298159D01*
X-7858839Y21298159D01*
X-7655779Y23581279D02*
X-7655779Y23653121D01*
X-7727621Y23653121D01*
X-7727621Y23581279D01*
X-7655779Y23581279D01*
X-7655779Y23327279D02*
X-7655779Y23399121D01*
X-7727621Y23399121D01*
X-7727621Y23327279D01*
X-7655779Y23327279D01*
X-7655779Y23073279D02*
X-7655779Y23145121D01*
X-7727621Y23145121D01*
X-7727621Y23073279D01*
X-7655779Y23073279D01*
X-7655779Y22819279D02*
X-7655779Y22891121D01*
X-7727621Y22891121D01*
X-7727621Y22819279D01*
X-7655779Y22819279D01*
X-7655779Y22565279D02*
X-7655779Y22637121D01*
X-7727621Y22637121D01*
X-7727621Y22565279D01*
X-7655779Y22565279D01*
X-7406719Y21948399D02*
X-7406719Y22020241D01*
X-7478561Y22020241D01*
X-7478561Y21948399D01*
X-7406719Y21948399D01*
X-7406719Y21298159D02*
X-7406719Y21370001D01*
X-7478561Y21370001D01*
X-7478561Y21298159D01*
X-7406719Y21298159D01*
X-13318700Y24444200D02*
X-13253700Y24509200D01*
X-13318700Y24574200D01*
X-13383700Y24509200D01*
X-13318700Y24444200D01*
X-12818700Y24944200D02*
X-12753700Y25009200D01*
X-12818700Y25074200D01*
X-12883700Y25009200D01*
X-12818700Y24944200D01*
X-12818700Y24694200D02*
X-12753700Y24759200D01*
X-12818700Y24824200D01*
X-12883700Y24759200D01*
X-12818700Y24694200D01*
X-12818700Y24194200D02*
X-12753700Y24259200D01*
X-12818700Y24324200D01*
X-12883700Y24259200D01*
X-12818700Y24194200D01*
X-12818700Y23944200D02*
X-12753700Y24009200D01*
X-12818700Y24074200D01*
X-12883700Y24009200D01*
X-12818700Y23944200D01*
D13*
X-13450921Y19352636D02*
X-13450921Y19652636D01*
X-13379493Y19652636D01*
X-13336636Y19638350D01*
X-13308064Y19609779D01*
X-13293779Y19581207D01*
X-13279493Y19524064D01*
X-13279493Y19481207D01*
X-13293779Y19424064D01*
X-13308064Y19395493D01*
X-13336636Y19366921D01*
X-13379493Y19352636D01*
X-13450921Y19352636D01*
X-13150921Y19352636D02*
X-13150921Y19552636D01*
X-13150921Y19495493D02*
X-13136636Y19524064D01*
X-13122350Y19538350D01*
X-13093779Y19552636D01*
X-13065207Y19552636D01*
X-12965207Y19352636D02*
X-12965207Y19552636D01*
X-12965207Y19652636D02*
X-12979493Y19638350D01*
X-12965207Y19624064D01*
X-12950921Y19638350D01*
X-12965207Y19652636D01*
X-12965207Y19624064D01*
X-12779493Y19352636D02*
X-12808064Y19366921D01*
X-12822350Y19395493D01*
X-12822350Y19652636D01*
X-12622350Y19352636D02*
X-12650921Y19366921D01*
X-12665207Y19395493D01*
X-12665207Y19652636D01*
X-12279493Y19352636D02*
X-12279493Y19652636D01*
X-12179493Y19438350D01*
X-12079493Y19652636D01*
X-12079493Y19352636D01*
X-11808064Y19352636D02*
X-11808064Y19509779D01*
X-11822350Y19538350D01*
X-11850921Y19552636D01*
X-11908064Y19552636D01*
X-11936636Y19538350D01*
X-11808064Y19366921D02*
X-11836636Y19352636D01*
X-11908064Y19352636D01*
X-11936636Y19366921D01*
X-11950921Y19395493D01*
X-11950921Y19424064D01*
X-11936636Y19452636D01*
X-11908064Y19466921D01*
X-11836636Y19466921D01*
X-11808064Y19481207D01*
X-11665207Y19552636D02*
X-11665207Y19252636D01*
X-11665207Y19538350D02*
X-11636636Y19552636D01*
X-11579493Y19552636D01*
X-11550921Y19538350D01*
X-11536636Y19524064D01*
X-11522350Y19495493D01*
X-11522350Y19409779D01*
X-11536636Y19381207D01*
X-11550921Y19366921D01*
X-11579493Y19352636D01*
X-11636636Y19352636D01*
X-11665207Y19366921D01*
X-11393779Y19381207D02*
X-11379493Y19366921D01*
X-11393779Y19352636D01*
X-11408064Y19366921D01*
X-11393779Y19381207D01*
X-11393779Y19352636D01*
X-11393779Y19538350D02*
X-11379493Y19524064D01*
X-11393779Y19509779D01*
X-11408064Y19524064D01*
X-11393779Y19538350D01*
X-11393779Y19509779D01*
X-13752350Y18873350D02*
X-13722350Y18843350D01*
X-13722350Y18873350D02*
X-13752350Y18843350D01*
X-13393779Y19022636D02*
X-13365207Y19022636D01*
X-13336636Y19008350D01*
X-13322350Y18994064D01*
X-13308064Y18965493D01*
X-13293779Y18908350D01*
X-13293779Y18836921D01*
X-13308064Y18779779D01*
X-13322350Y18751207D01*
X-13336636Y18736921D01*
X-13365207Y18722636D01*
X-13393779Y18722636D01*
X-13422350Y18736921D01*
X-13436636Y18751207D01*
X-13450921Y18779779D01*
X-13465207Y18836921D01*
X-13465207Y18908350D01*
X-13450921Y18965493D01*
X-13436636Y18994064D01*
X-13422350Y19008350D01*
X-13393779Y19022636D01*
X-13165207Y18751207D02*
X-13150921Y18736921D01*
X-13165207Y18722636D01*
X-13179493Y18736921D01*
X-13165207Y18751207D01*
X-13165207Y18722636D01*
X-13050922Y19022636D02*
X-12865207Y19022636D01*
X-12965207Y18908350D01*
X-12922350Y18908350D01*
X-12893779Y18894064D01*
X-12879493Y18879779D01*
X-12865207Y18851207D01*
X-12865207Y18779779D01*
X-12879493Y18751207D01*
X-12893779Y18736921D01*
X-12922350Y18722636D01*
X-13008064Y18722636D01*
X-13036636Y18736921D01*
X-13050922Y18751207D01*
X-12679493Y19022636D02*
X-12650921Y19022636D01*
X-12622350Y19008350D01*
X-12608064Y18994064D01*
X-12593779Y18965493D01*
X-12579493Y18908350D01*
X-12579493Y18836921D01*
X-12593779Y18779779D01*
X-12608064Y18751207D01*
X-12622350Y18736921D01*
X-12650921Y18722636D01*
X-12679493Y18722636D01*
X-12708064Y18736921D01*
X-12722350Y18751207D01*
X-12736636Y18779779D01*
X-12750921Y18836921D01*
X-12750921Y18908350D01*
X-12736636Y18965493D01*
X-12722350Y18994064D01*
X-12708064Y19008350D01*
X-12679493Y19022636D01*
X-12450921Y18722636D02*
X-12450921Y18922636D01*
X-12450921Y18894064D02*
X-12436636Y18908350D01*
X-12408064Y18922636D01*
X-12365207Y18922636D01*
X-12336636Y18908350D01*
X-12322350Y18879779D01*
X-12322350Y18722636D01*
X-12322350Y18879779D02*
X-12308064Y18908350D01*
X-12279493Y18922636D01*
X-12236636Y18922636D01*
X-12208064Y18908350D01*
X-12193779Y18879779D01*
X-12193779Y18722636D01*
X-12050921Y18722636D02*
X-12050921Y18922636D01*
X-12050921Y18894064D02*
X-12036636Y18908350D01*
X-12008064Y18922636D01*
X-11965207Y18922636D01*
X-11936636Y18908350D01*
X-11922350Y18879779D01*
X-11922350Y18722636D01*
X-11922350Y18879779D02*
X-11908064Y18908350D01*
X-11879493Y18922636D01*
X-11836636Y18922636D01*
X-11808064Y18908350D01*
X-11793779Y18879779D01*
X-11793779Y18722636D01*
X-11208064Y19036921D02*
X-11465207Y18651207D01*
X-10822350Y19022636D02*
X-10793779Y19022636D01*
X-10765207Y19008350D01*
X-10750922Y18994064D01*
X-10736636Y18965493D01*
X-10722350Y18908350D01*
X-10722350Y18836921D01*
X-10736636Y18779779D01*
X-10750922Y18751207D01*
X-10765207Y18736921D01*
X-10793779Y18722636D01*
X-10822350Y18722636D01*
X-10850922Y18736921D01*
X-10865207Y18751207D01*
X-10879493Y18779779D01*
X-10893779Y18836921D01*
X-10893779Y18908350D01*
X-10879493Y18965493D01*
X-10865207Y18994064D01*
X-10850922Y19008350D01*
X-10822350Y19022636D01*
X-10593779Y18751207D02*
X-10579493Y18736921D01*
X-10593779Y18722636D01*
X-10608064Y18736921D01*
X-10593779Y18751207D01*
X-10593779Y18722636D01*
X-10393779Y19022636D02*
X-10365207Y19022636D01*
X-10336636Y19008350D01*
X-10322350Y18994064D01*
X-10308065Y18965493D01*
X-10293779Y18908350D01*
X-10293779Y18836921D01*
X-10308065Y18779779D01*
X-10322350Y18751207D01*
X-10336636Y18736921D01*
X-10365207Y18722636D01*
X-10393779Y18722636D01*
X-10422350Y18736921D01*
X-10436636Y18751207D01*
X-10450922Y18779779D01*
X-10465207Y18836921D01*
X-10465207Y18908350D01*
X-10450922Y18965493D01*
X-10436636Y18994064D01*
X-10422350Y19008350D01*
X-10393779Y19022636D01*
X-10008065Y18722636D02*
X-10179493Y18722636D01*
X-10093779Y18722636D02*
X-10093779Y19022636D01*
X-10122350Y18979779D01*
X-10150922Y18951207D01*
X-10179493Y18936921D01*
X-9893779Y18994064D02*
X-9879493Y19008350D01*
X-9850922Y19022636D01*
X-9779493Y19022636D01*
X-9750922Y19008350D01*
X-9736636Y18994064D01*
X-9722350Y18965493D01*
X-9722350Y18936921D01*
X-9736636Y18894064D01*
X-9908065Y18722636D01*
X-9722350Y18722636D01*
X-9608064Y19022636D02*
X-9608064Y18965493D01*
X-9493779Y19022636D02*
X-9493779Y18965493D01*
X-9050922Y18608350D02*
X-9065207Y18622636D01*
X-9093779Y18665493D01*
X-9108065Y18694064D01*
X-9122350Y18736921D01*
X-9136636Y18808350D01*
X-9136636Y18865493D01*
X-9122350Y18936921D01*
X-9108065Y18979779D01*
X-9093779Y19008350D01*
X-9065207Y19051207D01*
X-9050922Y19065493D01*
X-8950922Y18994064D02*
X-8936636Y19008350D01*
X-8908065Y19022636D01*
X-8836636Y19022636D01*
X-8808065Y19008350D01*
X-8793779Y18994064D01*
X-8779493Y18965493D01*
X-8779493Y18936921D01*
X-8793779Y18894064D01*
X-8965207Y18722636D01*
X-8779493Y18722636D01*
X-8493779Y18722636D02*
X-8665207Y18722636D01*
X-8579493Y18722636D02*
X-8579493Y19022636D01*
X-8608065Y18979779D01*
X-8636636Y18951207D01*
X-8665207Y18936921D01*
X-8136636Y18722636D02*
X-8136636Y19022636D01*
X-8008064Y18722636D02*
X-8008064Y18879779D01*
X-8022350Y18908350D01*
X-8050922Y18922636D01*
X-8093779Y18922636D01*
X-8122350Y18908350D01*
X-8136636Y18894064D01*
X-7822350Y18722636D02*
X-7850922Y18736921D01*
X-7865207Y18751207D01*
X-7879493Y18779779D01*
X-7879493Y18865493D01*
X-7865207Y18894064D01*
X-7850922Y18908350D01*
X-7822350Y18922636D01*
X-7779493Y18922636D01*
X-7750922Y18908350D01*
X-7736636Y18894064D01*
X-7722350Y18865493D01*
X-7722350Y18779779D01*
X-7736636Y18751207D01*
X-7750922Y18736921D01*
X-7779493Y18722636D01*
X-7822350Y18722636D01*
X-7550922Y18722636D02*
X-7579493Y18736921D01*
X-7593779Y18765493D01*
X-7593779Y19022636D01*
X-7322350Y18736921D02*
X-7350921Y18722636D01*
X-7408064Y18722636D01*
X-7436636Y18736921D01*
X-7450921Y18765493D01*
X-7450921Y18879779D01*
X-7436636Y18908350D01*
X-7408064Y18922636D01*
X-7350921Y18922636D01*
X-7322350Y18908350D01*
X-7308064Y18879779D01*
X-7308064Y18851207D01*
X-7450921Y18822636D01*
X-7193779Y18736921D02*
X-7165207Y18722636D01*
X-7108064Y18722636D01*
X-7079493Y18736921D01*
X-7065207Y18765493D01*
X-7065207Y18779779D01*
X-7079493Y18808350D01*
X-7108064Y18822636D01*
X-7150921Y18822636D01*
X-7179493Y18836921D01*
X-7193779Y18865493D01*
X-7193779Y18879779D01*
X-7179493Y18908350D01*
X-7150921Y18922636D01*
X-7108064Y18922636D01*
X-7079493Y18908350D01*
X-6965207Y18608350D02*
X-6950921Y18622636D01*
X-6922350Y18665493D01*
X-6908064Y18694064D01*
X-6893779Y18736921D01*
X-6879493Y18808350D01*
X-6879493Y18865493D01*
X-6893779Y18936921D01*
X-6908064Y18979779D01*
X-6922350Y19008350D01*
X-6950921Y19051207D01*
X-6965207Y19065493D01*
X-13722350Y18462350D02*
G75*
G03X-13722350Y18462350I-45000J0D01*
G01*
X-13393779Y18626636D02*
X-13365207Y18626636D01*
X-13336636Y18612350D01*
X-13322350Y18598064D01*
X-13308064Y18569493D01*
X-13293779Y18512350D01*
X-13293779Y18440921D01*
X-13308064Y18383779D01*
X-13322350Y18355207D01*
X-13336636Y18340921D01*
X-13365207Y18326636D01*
X-13393779Y18326636D01*
X-13422350Y18340921D01*
X-13436636Y18355207D01*
X-13450921Y18383779D01*
X-13465207Y18440921D01*
X-13465207Y18512350D01*
X-13450921Y18569493D01*
X-13436636Y18598064D01*
X-13422350Y18612350D01*
X-13393779Y18626636D01*
X-13165207Y18355207D02*
X-13150921Y18340921D01*
X-13165207Y18326636D01*
X-13179493Y18340921D01*
X-13165207Y18355207D01*
X-13165207Y18326636D01*
X-13008064Y18326636D02*
X-12950922Y18326636D01*
X-12922350Y18340921D01*
X-12908064Y18355207D01*
X-12879493Y18398064D01*
X-12865207Y18455207D01*
X-12865207Y18569493D01*
X-12879493Y18598064D01*
X-12893779Y18612350D01*
X-12922350Y18626636D01*
X-12979493Y18626636D01*
X-13008064Y18612350D01*
X-13022350Y18598064D01*
X-13036636Y18569493D01*
X-13036636Y18498064D01*
X-13022350Y18469493D01*
X-13008064Y18455207D01*
X-12979493Y18440921D01*
X-12922350Y18440921D01*
X-12893779Y18455207D01*
X-12879493Y18469493D01*
X-12865207Y18498064D01*
X-12679493Y18626636D02*
X-12650921Y18626636D01*
X-12622350Y18612350D01*
X-12608064Y18598064D01*
X-12593779Y18569493D01*
X-12579493Y18512350D01*
X-12579493Y18440921D01*
X-12593779Y18383779D01*
X-12608064Y18355207D01*
X-12622350Y18340921D01*
X-12650921Y18326636D01*
X-12679493Y18326636D01*
X-12708064Y18340921D01*
X-12722350Y18355207D01*
X-12736636Y18383779D01*
X-12750921Y18440921D01*
X-12750921Y18512350D01*
X-12736636Y18569493D01*
X-12722350Y18598064D01*
X-12708064Y18612350D01*
X-12679493Y18626636D01*
X-12450921Y18326636D02*
X-12450921Y18526636D01*
X-12450921Y18498064D02*
X-12436636Y18512350D01*
X-12408064Y18526636D01*
X-12365207Y18526636D01*
X-12336636Y18512350D01*
X-12322350Y18483779D01*
X-12322350Y18326636D01*
X-12322350Y18483779D02*
X-12308064Y18512350D01*
X-12279493Y18526636D01*
X-12236636Y18526636D01*
X-12208064Y18512350D01*
X-12193779Y18483779D01*
X-12193779Y18326636D01*
X-12050921Y18326636D02*
X-12050921Y18526636D01*
X-12050921Y18498064D02*
X-12036636Y18512350D01*
X-12008064Y18526636D01*
X-11965207Y18526636D01*
X-11936636Y18512350D01*
X-11922350Y18483779D01*
X-11922350Y18326636D01*
X-11922350Y18483779D02*
X-11908064Y18512350D01*
X-11879493Y18526636D01*
X-11836636Y18526636D01*
X-11808064Y18512350D01*
X-11793779Y18483779D01*
X-11793779Y18326636D01*
X-11208064Y18640921D02*
X-11465207Y18255207D01*
X-10822350Y18626636D02*
X-10793779Y18626636D01*
X-10765207Y18612350D01*
X-10750922Y18598064D01*
X-10736636Y18569493D01*
X-10722350Y18512350D01*
X-10722350Y18440921D01*
X-10736636Y18383779D01*
X-10750922Y18355207D01*
X-10765207Y18340921D01*
X-10793779Y18326636D01*
X-10822350Y18326636D01*
X-10850922Y18340921D01*
X-10865207Y18355207D01*
X-10879493Y18383779D01*
X-10893779Y18440921D01*
X-10893779Y18512350D01*
X-10879493Y18569493D01*
X-10865207Y18598064D01*
X-10850922Y18612350D01*
X-10822350Y18626636D01*
X-10593779Y18355207D02*
X-10579493Y18340921D01*
X-10593779Y18326636D01*
X-10608064Y18340921D01*
X-10593779Y18355207D01*
X-10593779Y18326636D01*
X-10393779Y18626636D02*
X-10365207Y18626636D01*
X-10336636Y18612350D01*
X-10322350Y18598064D01*
X-10308065Y18569493D01*
X-10293779Y18512350D01*
X-10293779Y18440921D01*
X-10308065Y18383779D01*
X-10322350Y18355207D01*
X-10336636Y18340921D01*
X-10365207Y18326636D01*
X-10393779Y18326636D01*
X-10422350Y18340921D01*
X-10436636Y18355207D01*
X-10450922Y18383779D01*
X-10465207Y18440921D01*
X-10465207Y18512350D01*
X-10450922Y18569493D01*
X-10436636Y18598064D01*
X-10422350Y18612350D01*
X-10393779Y18626636D01*
X-10193779Y18626636D02*
X-10008065Y18626636D01*
X-10108065Y18512350D01*
X-10065207Y18512350D01*
X-10036636Y18498064D01*
X-10022350Y18483779D01*
X-10008065Y18455207D01*
X-10008065Y18383779D01*
X-10022350Y18355207D01*
X-10036636Y18340921D01*
X-10065207Y18326636D01*
X-10150922Y18326636D01*
X-10179493Y18340921D01*
X-10193779Y18355207D01*
X-9736636Y18626636D02*
X-9879493Y18626636D01*
X-9893779Y18483779D01*
X-9879493Y18498064D01*
X-9850922Y18512350D01*
X-9779493Y18512350D01*
X-9750922Y18498064D01*
X-9736636Y18483779D01*
X-9722350Y18455207D01*
X-9722350Y18383779D01*
X-9736636Y18355207D01*
X-9750922Y18340921D01*
X-9779493Y18326636D01*
X-9850922Y18326636D01*
X-9879493Y18340921D01*
X-9893779Y18355207D01*
X-9608064Y18626636D02*
X-9608064Y18569493D01*
X-9493779Y18626636D02*
X-9493779Y18569493D01*
X-9050922Y18212350D02*
X-9065207Y18226636D01*
X-9093779Y18269493D01*
X-9108065Y18298064D01*
X-9122350Y18340921D01*
X-9136636Y18412350D01*
X-9136636Y18469493D01*
X-9122350Y18540921D01*
X-9108065Y18583779D01*
X-9093779Y18612350D01*
X-9065207Y18655207D01*
X-9050922Y18669493D01*
X-8808065Y18526636D02*
X-8808065Y18326636D01*
X-8879493Y18640921D02*
X-8950922Y18426636D01*
X-8765207Y18426636D01*
X-8422350Y18326636D02*
X-8422350Y18626636D01*
X-8293779Y18326636D02*
X-8293779Y18483779D01*
X-8308064Y18512350D01*
X-8336636Y18526636D01*
X-8379493Y18526636D01*
X-8408065Y18512350D01*
X-8422350Y18498064D01*
X-8108064Y18326636D02*
X-8136636Y18340921D01*
X-8150922Y18355207D01*
X-8165207Y18383779D01*
X-8165207Y18469493D01*
X-8150922Y18498064D01*
X-8136636Y18512350D01*
X-8108064Y18526636D01*
X-8065207Y18526636D01*
X-8036636Y18512350D01*
X-8022350Y18498064D01*
X-8008064Y18469493D01*
X-8008064Y18383779D01*
X-8022350Y18355207D01*
X-8036636Y18340921D01*
X-8065207Y18326636D01*
X-8108064Y18326636D01*
X-7836636Y18326636D02*
X-7865207Y18340921D01*
X-7879493Y18369493D01*
X-7879493Y18626636D01*
X-7608064Y18340921D02*
X-7636636Y18326636D01*
X-7693779Y18326636D01*
X-7722350Y18340921D01*
X-7736636Y18369493D01*
X-7736636Y18483779D01*
X-7722350Y18512350D01*
X-7693779Y18526636D01*
X-7636636Y18526636D01*
X-7608064Y18512350D01*
X-7593779Y18483779D01*
X-7593779Y18455207D01*
X-7736636Y18426636D01*
X-7479493Y18340921D02*
X-7450921Y18326636D01*
X-7393779Y18326636D01*
X-7365207Y18340921D01*
X-7350921Y18369493D01*
X-7350921Y18383779D01*
X-7365207Y18412350D01*
X-7393779Y18426636D01*
X-7436636Y18426636D01*
X-7465207Y18440921D01*
X-7479493Y18469493D01*
X-7479493Y18483779D01*
X-7465207Y18512350D01*
X-7436636Y18526636D01*
X-7393779Y18526636D01*
X-7365207Y18512350D01*
X-7250922Y18212350D02*
X-7236636Y18226636D01*
X-7208064Y18269493D01*
X-7193779Y18298064D01*
X-7179493Y18340921D01*
X-7165207Y18412350D01*
X-7165207Y18469493D01*
X-7179493Y18540921D01*
X-7193779Y18583779D01*
X-7208064Y18612350D01*
X-7236636Y18655207D01*
X-7250922Y18669493D01*
X-13768070Y18112070D02*
X-13768070Y18020630D01*
X-13813790Y18066350D02*
X-13722350Y18066350D01*
X-13393779Y18230636D02*
X-13365207Y18230636D01*
X-13336636Y18216350D01*
X-13322350Y18202064D01*
X-13308064Y18173493D01*
X-13293779Y18116350D01*
X-13293779Y18044921D01*
X-13308064Y17987779D01*
X-13322350Y17959207D01*
X-13336636Y17944921D01*
X-13365207Y17930636D01*
X-13393779Y17930636D01*
X-13422350Y17944921D01*
X-13436636Y17959207D01*
X-13450921Y17987779D01*
X-13465207Y18044921D01*
X-13465207Y18116350D01*
X-13450921Y18173493D01*
X-13436636Y18202064D01*
X-13422350Y18216350D01*
X-13393779Y18230636D01*
X-13165207Y17959207D02*
X-13150921Y17944921D01*
X-13165207Y17930636D01*
X-13179493Y17944921D01*
X-13165207Y17959207D01*
X-13165207Y17930636D01*
X-13008064Y17930636D02*
X-12950922Y17930636D01*
X-12922350Y17944921D01*
X-12908064Y17959207D01*
X-12879493Y18002064D01*
X-12865207Y18059207D01*
X-12865207Y18173493D01*
X-12879493Y18202064D01*
X-12893779Y18216350D01*
X-12922350Y18230636D01*
X-12979493Y18230636D01*
X-13008064Y18216350D01*
X-13022350Y18202064D01*
X-13036636Y18173493D01*
X-13036636Y18102064D01*
X-13022350Y18073493D01*
X-13008064Y18059207D01*
X-12979493Y18044921D01*
X-12922350Y18044921D01*
X-12893779Y18059207D01*
X-12879493Y18073493D01*
X-12865207Y18102064D01*
X-12579493Y17930636D02*
X-12750921Y17930636D01*
X-12665207Y17930636D02*
X-12665207Y18230636D01*
X-12693779Y18187779D01*
X-12722350Y18159207D01*
X-12750921Y18144921D01*
X-12450921Y17930636D02*
X-12450921Y18130636D01*
X-12450921Y18102064D02*
X-12436636Y18116350D01*
X-12408064Y18130636D01*
X-12365207Y18130636D01*
X-12336636Y18116350D01*
X-12322350Y18087779D01*
X-12322350Y17930636D01*
X-12322350Y18087779D02*
X-12308064Y18116350D01*
X-12279493Y18130636D01*
X-12236636Y18130636D01*
X-12208064Y18116350D01*
X-12193779Y18087779D01*
X-12193779Y17930636D01*
X-12050921Y17930636D02*
X-12050921Y18130636D01*
X-12050921Y18102064D02*
X-12036636Y18116350D01*
X-12008064Y18130636D01*
X-11965207Y18130636D01*
X-11936636Y18116350D01*
X-11922350Y18087779D01*
X-11922350Y17930636D01*
X-11922350Y18087779D02*
X-11908064Y18116350D01*
X-11879493Y18130636D01*
X-11836636Y18130636D01*
X-11808064Y18116350D01*
X-11793779Y18087779D01*
X-11793779Y17930636D01*
X-11208064Y18244921D02*
X-11465207Y17859207D01*
X-10822350Y18230636D02*
X-10793779Y18230636D01*
X-10765207Y18216350D01*
X-10750922Y18202064D01*
X-10736636Y18173493D01*
X-10722350Y18116350D01*
X-10722350Y18044921D01*
X-10736636Y17987779D01*
X-10750922Y17959207D01*
X-10765207Y17944921D01*
X-10793779Y17930636D01*
X-10822350Y17930636D01*
X-10850922Y17944921D01*
X-10865207Y17959207D01*
X-10879493Y17987779D01*
X-10893779Y18044921D01*
X-10893779Y18116350D01*
X-10879493Y18173493D01*
X-10865207Y18202064D01*
X-10850922Y18216350D01*
X-10822350Y18230636D01*
X-10593779Y17959207D02*
X-10579493Y17944921D01*
X-10593779Y17930636D01*
X-10608064Y17944921D01*
X-10593779Y17959207D01*
X-10593779Y17930636D01*
X-10393779Y18230636D02*
X-10365207Y18230636D01*
X-10336636Y18216350D01*
X-10322350Y18202064D01*
X-10308065Y18173493D01*
X-10293779Y18116350D01*
X-10293779Y18044921D01*
X-10308065Y17987779D01*
X-10322350Y17959207D01*
X-10336636Y17944921D01*
X-10365207Y17930636D01*
X-10393779Y17930636D01*
X-10422350Y17944921D01*
X-10436636Y17959207D01*
X-10450922Y17987779D01*
X-10465207Y18044921D01*
X-10465207Y18116350D01*
X-10450922Y18173493D01*
X-10436636Y18202064D01*
X-10422350Y18216350D01*
X-10393779Y18230636D01*
X-10193779Y18230636D02*
X-10008065Y18230636D01*
X-10108065Y18116350D01*
X-10065207Y18116350D01*
X-10036636Y18102064D01*
X-10022350Y18087779D01*
X-10008065Y18059207D01*
X-10008065Y17987779D01*
X-10022350Y17959207D01*
X-10036636Y17944921D01*
X-10065207Y17930636D01*
X-10150922Y17930636D01*
X-10179493Y17944921D01*
X-10193779Y17959207D01*
X-9750922Y18230636D02*
X-9808065Y18230636D01*
X-9836636Y18216350D01*
X-9850922Y18202064D01*
X-9879493Y18159207D01*
X-9893779Y18102064D01*
X-9893779Y17987779D01*
X-9879493Y17959207D01*
X-9865207Y17944921D01*
X-9836636Y17930636D01*
X-9779493Y17930636D01*
X-9750922Y17944921D01*
X-9736636Y17959207D01*
X-9722350Y17987779D01*
X-9722350Y18059207D01*
X-9736636Y18087779D01*
X-9750922Y18102064D01*
X-9779493Y18116350D01*
X-9836636Y18116350D01*
X-9865207Y18102064D01*
X-9879493Y18087779D01*
X-9893779Y18059207D01*
X-9608064Y18230636D02*
X-9608064Y18173493D01*
X-9493779Y18230636D02*
X-9493779Y18173493D01*
X-9050922Y17816350D02*
X-9065207Y17830636D01*
X-9093779Y17873493D01*
X-9108065Y17902064D01*
X-9122350Y17944921D01*
X-9136636Y18016350D01*
X-9136636Y18073493D01*
X-9122350Y18144921D01*
X-9108065Y18187779D01*
X-9093779Y18216350D01*
X-9065207Y18259207D01*
X-9050922Y18273493D01*
X-8965207Y18230636D02*
X-8779493Y18230636D01*
X-8879493Y18116350D01*
X-8836636Y18116350D01*
X-8808065Y18102064D01*
X-8793779Y18087779D01*
X-8779493Y18059207D01*
X-8779493Y17987779D01*
X-8793779Y17959207D01*
X-8808065Y17944921D01*
X-8836636Y17930636D01*
X-8922350Y17930636D01*
X-8950922Y17944921D01*
X-8965207Y17959207D01*
X-8422350Y17930636D02*
X-8422350Y18230636D01*
X-8293779Y17930636D02*
X-8293779Y18087779D01*
X-8308064Y18116350D01*
X-8336636Y18130636D01*
X-8379493Y18130636D01*
X-8408065Y18116350D01*
X-8422350Y18102064D01*
X-8108064Y17930636D02*
X-8136636Y17944921D01*
X-8150922Y17959207D01*
X-8165207Y17987779D01*
X-8165207Y18073493D01*
X-8150922Y18102064D01*
X-8136636Y18116350D01*
X-8108064Y18130636D01*
X-8065207Y18130636D01*
X-8036636Y18116350D01*
X-8022350Y18102064D01*
X-8008064Y18073493D01*
X-8008064Y17987779D01*
X-8022350Y17959207D01*
X-8036636Y17944921D01*
X-8065207Y17930636D01*
X-8108064Y17930636D01*
X-7836636Y17930636D02*
X-7865207Y17944921D01*
X-7879493Y17973493D01*
X-7879493Y18230636D01*
X-7608064Y17944921D02*
X-7636636Y17930636D01*
X-7693779Y17930636D01*
X-7722350Y17944921D01*
X-7736636Y17973493D01*
X-7736636Y18087779D01*
X-7722350Y18116350D01*
X-7693779Y18130636D01*
X-7636636Y18130636D01*
X-7608064Y18116350D01*
X-7593779Y18087779D01*
X-7593779Y18059207D01*
X-7736636Y18030636D01*
X-7479493Y17944921D02*
X-7450921Y17930636D01*
X-7393779Y17930636D01*
X-7365207Y17944921D01*
X-7350921Y17973493D01*
X-7350921Y17987779D01*
X-7365207Y18016350D01*
X-7393779Y18030636D01*
X-7436636Y18030636D01*
X-7465207Y18044921D01*
X-7479493Y18073493D01*
X-7479493Y18087779D01*
X-7465207Y18116350D01*
X-7436636Y18130636D01*
X-7393779Y18130636D01*
X-7365207Y18116350D01*
X-7250922Y17816350D02*
X-7236636Y17830636D01*
X-7208064Y17873493D01*
X-7193779Y17902064D01*
X-7179493Y17944921D01*
X-7165207Y18016350D01*
X-7165207Y18073493D01*
X-7179493Y18144921D01*
X-7193779Y18187779D01*
X-7208064Y18216350D01*
X-7236636Y18259207D01*
X-7250922Y18273493D01*
X-13737229Y17634429D02*
X-13737229Y17706271D01*
X-13809071Y17706271D01*
X-13809071Y17634429D01*
X-13737229Y17634429D01*
X-13293779Y17534636D02*
X-13465207Y17534636D01*
X-13379493Y17534636D02*
X-13379493Y17834636D01*
X-13408064Y17791779D01*
X-13436636Y17763207D01*
X-13465207Y17748921D01*
X-13165207Y17563207D02*
X-13150921Y17548921D01*
X-13165207Y17534636D01*
X-13179493Y17548921D01*
X-13165207Y17563207D01*
X-13165207Y17534636D01*
X-12965207Y17834636D02*
X-12936636Y17834636D01*
X-12908064Y17820350D01*
X-12893779Y17806064D01*
X-12879493Y17777493D01*
X-12865207Y17720350D01*
X-12865207Y17648921D01*
X-12879493Y17591779D01*
X-12893779Y17563207D01*
X-12908064Y17548921D01*
X-12936636Y17534636D01*
X-12965207Y17534636D01*
X-12993779Y17548921D01*
X-13008064Y17563207D01*
X-13022350Y17591779D01*
X-13036636Y17648921D01*
X-13036636Y17720350D01*
X-13022350Y17777493D01*
X-13008064Y17806064D01*
X-12993779Y17820350D01*
X-12965207Y17834636D01*
X-12750921Y17806064D02*
X-12736636Y17820350D01*
X-12708064Y17834636D01*
X-12636636Y17834636D01*
X-12608064Y17820350D01*
X-12593779Y17806064D01*
X-12579493Y17777493D01*
X-12579493Y17748921D01*
X-12593779Y17706064D01*
X-12765207Y17534636D01*
X-12579493Y17534636D01*
X-12450921Y17534636D02*
X-12450921Y17734636D01*
X-12450921Y17706064D02*
X-12436636Y17720350D01*
X-12408064Y17734636D01*
X-12365207Y17734636D01*
X-12336636Y17720350D01*
X-12322350Y17691779D01*
X-12322350Y17534636D01*
X-12322350Y17691779D02*
X-12308064Y17720350D01*
X-12279493Y17734636D01*
X-12236636Y17734636D01*
X-12208064Y17720350D01*
X-12193779Y17691779D01*
X-12193779Y17534636D01*
X-12050921Y17534636D02*
X-12050921Y17734636D01*
X-12050921Y17706064D02*
X-12036636Y17720350D01*
X-12008064Y17734636D01*
X-11965207Y17734636D01*
X-11936636Y17720350D01*
X-11922350Y17691779D01*
X-11922350Y17534636D01*
X-11922350Y17691779D02*
X-11908064Y17720350D01*
X-11879493Y17734636D01*
X-11836636Y17734636D01*
X-11808064Y17720350D01*
X-11793779Y17691779D01*
X-11793779Y17534636D01*
X-11208064Y17848921D02*
X-11465207Y17463207D01*
X-10822350Y17834636D02*
X-10793779Y17834636D01*
X-10765207Y17820350D01*
X-10750922Y17806064D01*
X-10736636Y17777493D01*
X-10722350Y17720350D01*
X-10722350Y17648921D01*
X-10736636Y17591779D01*
X-10750922Y17563207D01*
X-10765207Y17548921D01*
X-10793779Y17534636D01*
X-10822350Y17534636D01*
X-10850922Y17548921D01*
X-10865207Y17563207D01*
X-10879493Y17591779D01*
X-10893779Y17648921D01*
X-10893779Y17720350D01*
X-10879493Y17777493D01*
X-10865207Y17806064D01*
X-10850922Y17820350D01*
X-10822350Y17834636D01*
X-10593779Y17563207D02*
X-10579493Y17548921D01*
X-10593779Y17534636D01*
X-10608064Y17548921D01*
X-10593779Y17563207D01*
X-10593779Y17534636D01*
X-10393779Y17834636D02*
X-10365207Y17834636D01*
X-10336636Y17820350D01*
X-10322350Y17806064D01*
X-10308065Y17777493D01*
X-10293779Y17720350D01*
X-10293779Y17648921D01*
X-10308065Y17591779D01*
X-10322350Y17563207D01*
X-10336636Y17548921D01*
X-10365207Y17534636D01*
X-10393779Y17534636D01*
X-10422350Y17548921D01*
X-10436636Y17563207D01*
X-10450922Y17591779D01*
X-10465207Y17648921D01*
X-10465207Y17720350D01*
X-10450922Y17777493D01*
X-10436636Y17806064D01*
X-10422350Y17820350D01*
X-10393779Y17834636D01*
X-10036636Y17734636D02*
X-10036636Y17534636D01*
X-10108065Y17848921D02*
X-10179493Y17634636D01*
X-9993779Y17634636D01*
X-9822350Y17834636D02*
X-9793779Y17834636D01*
X-9765207Y17820350D01*
X-9750922Y17806064D01*
X-9736636Y17777493D01*
X-9722350Y17720350D01*
X-9722350Y17648921D01*
X-9736636Y17591779D01*
X-9750922Y17563207D01*
X-9765207Y17548921D01*
X-9793779Y17534636D01*
X-9822350Y17534636D01*
X-9850922Y17548921D01*
X-9865207Y17563207D01*
X-9879493Y17591779D01*
X-9893779Y17648921D01*
X-9893779Y17720350D01*
X-9879493Y17777493D01*
X-9865207Y17806064D01*
X-9850922Y17820350D01*
X-9822350Y17834636D01*
X-9608064Y17834636D02*
X-9608064Y17777493D01*
X-9493779Y17834636D02*
X-9493779Y17777493D01*
X-9050922Y17420350D02*
X-9065207Y17434636D01*
X-9093779Y17477493D01*
X-9108065Y17506064D01*
X-9122350Y17548921D01*
X-9136636Y17620350D01*
X-9136636Y17677493D01*
X-9122350Y17748921D01*
X-9108065Y17791779D01*
X-9093779Y17820350D01*
X-9065207Y17863207D01*
X-9050922Y17877493D01*
X-8779493Y17534636D02*
X-8950922Y17534636D01*
X-8865207Y17534636D02*
X-8865207Y17834636D01*
X-8893779Y17791779D01*
X-8922350Y17763207D01*
X-8950922Y17748921D01*
X-8522350Y17734636D02*
X-8522350Y17534636D01*
X-8593779Y17848921D02*
X-8665207Y17634636D01*
X-8479493Y17634636D01*
X-8136636Y17534636D02*
X-8136636Y17834636D01*
X-8008064Y17534636D02*
X-8008064Y17691779D01*
X-8022350Y17720350D01*
X-8050922Y17734636D01*
X-8093779Y17734636D01*
X-8122350Y17720350D01*
X-8136636Y17706064D01*
X-7822350Y17534636D02*
X-7850922Y17548921D01*
X-7865207Y17563207D01*
X-7879493Y17591779D01*
X-7879493Y17677493D01*
X-7865207Y17706064D01*
X-7850922Y17720350D01*
X-7822350Y17734636D01*
X-7779493Y17734636D01*
X-7750922Y17720350D01*
X-7736636Y17706064D01*
X-7722350Y17677493D01*
X-7722350Y17591779D01*
X-7736636Y17563207D01*
X-7750922Y17548921D01*
X-7779493Y17534636D01*
X-7822350Y17534636D01*
X-7550922Y17534636D02*
X-7579493Y17548921D01*
X-7593779Y17577493D01*
X-7593779Y17834636D01*
X-7322350Y17548921D02*
X-7350921Y17534636D01*
X-7408064Y17534636D01*
X-7436636Y17548921D01*
X-7450921Y17577493D01*
X-7450921Y17691779D01*
X-7436636Y17720350D01*
X-7408064Y17734636D01*
X-7350921Y17734636D01*
X-7322350Y17720350D01*
X-7308064Y17691779D01*
X-7308064Y17663207D01*
X-7450921Y17634636D01*
X-7193779Y17548921D02*
X-7165207Y17534636D01*
X-7108064Y17534636D01*
X-7079493Y17548921D01*
X-7065207Y17577493D01*
X-7065207Y17591779D01*
X-7079493Y17620350D01*
X-7108064Y17634636D01*
X-7150921Y17634636D01*
X-7179493Y17648921D01*
X-7193779Y17677493D01*
X-7193779Y17691779D01*
X-7179493Y17720350D01*
X-7150921Y17734636D01*
X-7108064Y17734636D01*
X-7079493Y17720350D01*
X-6965207Y17420350D02*
X-6950921Y17434636D01*
X-6922350Y17477493D01*
X-6908064Y17506064D01*
X-6893779Y17548921D01*
X-6879493Y17620350D01*
X-6879493Y17677493D01*
X-6893779Y17748921D01*
X-6908064Y17791779D01*
X-6922350Y17820350D01*
X-6950921Y17863207D01*
X-6965207Y17877493D01*
X-13787350Y17209350D02*
X-13722350Y17274350D01*
X-13787350Y17339350D01*
X-13852350Y17274350D01*
X-13787350Y17209350D01*
X-13293779Y17138636D02*
X-13465207Y17138636D01*
X-13379493Y17138636D02*
X-13379493Y17438636D01*
X-13408064Y17395779D01*
X-13436636Y17367207D01*
X-13465207Y17352921D01*
X-13165207Y17167207D02*
X-13150921Y17152921D01*
X-13165207Y17138636D01*
X-13179493Y17152921D01*
X-13165207Y17167207D01*
X-13165207Y17138636D01*
X-13050922Y17438636D02*
X-12865207Y17438636D01*
X-12965207Y17324350D01*
X-12922350Y17324350D01*
X-12893779Y17310064D01*
X-12879493Y17295779D01*
X-12865207Y17267207D01*
X-12865207Y17195779D01*
X-12879493Y17167207D01*
X-12893779Y17152921D01*
X-12922350Y17138636D01*
X-13008064Y17138636D01*
X-13036636Y17152921D01*
X-13050922Y17167207D01*
X-12679493Y17438636D02*
X-12650921Y17438636D01*
X-12622350Y17424350D01*
X-12608064Y17410064D01*
X-12593779Y17381493D01*
X-12579493Y17324350D01*
X-12579493Y17252921D01*
X-12593779Y17195779D01*
X-12608064Y17167207D01*
X-12622350Y17152921D01*
X-12650921Y17138636D01*
X-12679493Y17138636D01*
X-12708064Y17152921D01*
X-12722350Y17167207D01*
X-12736636Y17195779D01*
X-12750921Y17252921D01*
X-12750921Y17324350D01*
X-12736636Y17381493D01*
X-12722350Y17410064D01*
X-12708064Y17424350D01*
X-12679493Y17438636D01*
X-12450921Y17138636D02*
X-12450921Y17338636D01*
X-12450921Y17310064D02*
X-12436636Y17324350D01*
X-12408064Y17338636D01*
X-12365207Y17338636D01*
X-12336636Y17324350D01*
X-12322350Y17295779D01*
X-12322350Y17138636D01*
X-12322350Y17295779D02*
X-12308064Y17324350D01*
X-12279493Y17338636D01*
X-12236636Y17338636D01*
X-12208064Y17324350D01*
X-12193779Y17295779D01*
X-12193779Y17138636D01*
X-12050921Y17138636D02*
X-12050921Y17338636D01*
X-12050921Y17310064D02*
X-12036636Y17324350D01*
X-12008064Y17338636D01*
X-11965207Y17338636D01*
X-11936636Y17324350D01*
X-11922350Y17295779D01*
X-11922350Y17138636D01*
X-11922350Y17295779D02*
X-11908064Y17324350D01*
X-11879493Y17338636D01*
X-11836636Y17338636D01*
X-11808064Y17324350D01*
X-11793779Y17295779D01*
X-11793779Y17138636D01*
X-11208064Y17452921D02*
X-11465207Y17067207D01*
X-10822350Y17438636D02*
X-10793779Y17438636D01*
X-10765207Y17424350D01*
X-10750922Y17410064D01*
X-10736636Y17381493D01*
X-10722350Y17324350D01*
X-10722350Y17252921D01*
X-10736636Y17195779D01*
X-10750922Y17167207D01*
X-10765207Y17152921D01*
X-10793779Y17138636D01*
X-10822350Y17138636D01*
X-10850922Y17152921D01*
X-10865207Y17167207D01*
X-10879493Y17195779D01*
X-10893779Y17252921D01*
X-10893779Y17324350D01*
X-10879493Y17381493D01*
X-10865207Y17410064D01*
X-10850922Y17424350D01*
X-10822350Y17438636D01*
X-10593779Y17167207D02*
X-10579493Y17152921D01*
X-10593779Y17138636D01*
X-10608064Y17152921D01*
X-10593779Y17167207D01*
X-10593779Y17138636D01*
X-10393779Y17438636D02*
X-10365207Y17438636D01*
X-10336636Y17424350D01*
X-10322350Y17410064D01*
X-10308065Y17381493D01*
X-10293779Y17324350D01*
X-10293779Y17252921D01*
X-10308065Y17195779D01*
X-10322350Y17167207D01*
X-10336636Y17152921D01*
X-10365207Y17138636D01*
X-10393779Y17138636D01*
X-10422350Y17152921D01*
X-10436636Y17167207D01*
X-10450922Y17195779D01*
X-10465207Y17252921D01*
X-10465207Y17324350D01*
X-10450922Y17381493D01*
X-10436636Y17410064D01*
X-10422350Y17424350D01*
X-10393779Y17438636D01*
X-10022350Y17438636D02*
X-10165207Y17438636D01*
X-10179493Y17295779D01*
X-10165207Y17310064D01*
X-10136636Y17324350D01*
X-10065207Y17324350D01*
X-10036636Y17310064D01*
X-10022350Y17295779D01*
X-10008065Y17267207D01*
X-10008065Y17195779D01*
X-10022350Y17167207D01*
X-10036636Y17152921D01*
X-10065207Y17138636D01*
X-10136636Y17138636D01*
X-10165207Y17152921D01*
X-10179493Y17167207D01*
X-9722350Y17138636D02*
X-9893779Y17138636D01*
X-9808065Y17138636D02*
X-9808065Y17438636D01*
X-9836636Y17395779D01*
X-9865207Y17367207D01*
X-9893779Y17352921D01*
X-9608064Y17438636D02*
X-9608064Y17381493D01*
X-9493779Y17438636D02*
X-9493779Y17381493D01*
X-9050922Y17024350D02*
X-9065207Y17038636D01*
X-9093779Y17081493D01*
X-9108065Y17110064D01*
X-9122350Y17152921D01*
X-9136636Y17224350D01*
X-9136636Y17281493D01*
X-9122350Y17352921D01*
X-9108065Y17395779D01*
X-9093779Y17424350D01*
X-9065207Y17467207D01*
X-9050922Y17481493D01*
X-8793779Y17438636D02*
X-8936636Y17438636D01*
X-8950922Y17295779D01*
X-8936636Y17310064D01*
X-8908065Y17324350D01*
X-8836636Y17324350D01*
X-8808065Y17310064D01*
X-8793779Y17295779D01*
X-8779493Y17267207D01*
X-8779493Y17195779D01*
X-8793779Y17167207D01*
X-8808065Y17152921D01*
X-8836636Y17138636D01*
X-8908065Y17138636D01*
X-8936636Y17152921D01*
X-8950922Y17167207D01*
X-8422350Y17138636D02*
X-8422350Y17438636D01*
X-8293779Y17138636D02*
X-8293779Y17295779D01*
X-8308064Y17324350D01*
X-8336636Y17338636D01*
X-8379493Y17338636D01*
X-8408065Y17324350D01*
X-8422350Y17310064D01*
X-8108064Y17138636D02*
X-8136636Y17152921D01*
X-8150922Y17167207D01*
X-8165207Y17195779D01*
X-8165207Y17281493D01*
X-8150922Y17310064D01*
X-8136636Y17324350D01*
X-8108064Y17338636D01*
X-8065207Y17338636D01*
X-8036636Y17324350D01*
X-8022350Y17310064D01*
X-8008064Y17281493D01*
X-8008064Y17195779D01*
X-8022350Y17167207D01*
X-8036636Y17152921D01*
X-8065207Y17138636D01*
X-8108064Y17138636D01*
X-7836636Y17138636D02*
X-7865207Y17152921D01*
X-7879493Y17181493D01*
X-7879493Y17438636D01*
X-7608064Y17152921D02*
X-7636636Y17138636D01*
X-7693779Y17138636D01*
X-7722350Y17152921D01*
X-7736636Y17181493D01*
X-7736636Y17295779D01*
X-7722350Y17324350D01*
X-7693779Y17338636D01*
X-7636636Y17338636D01*
X-7608064Y17324350D01*
X-7593779Y17295779D01*
X-7593779Y17267207D01*
X-7736636Y17238636D01*
X-7479493Y17152921D02*
X-7450921Y17138636D01*
X-7393779Y17138636D01*
X-7365207Y17152921D01*
X-7350921Y17181493D01*
X-7350921Y17195779D01*
X-7365207Y17224350D01*
X-7393779Y17238636D01*
X-7436636Y17238636D01*
X-7465207Y17252921D01*
X-7479493Y17281493D01*
X-7479493Y17295779D01*
X-7465207Y17324350D01*
X-7436636Y17338636D01*
X-7393779Y17338636D01*
X-7365207Y17324350D01*
X-7250922Y17024350D02*
X-7236636Y17038636D01*
X-7208064Y17081493D01*
X-7193779Y17110064D01*
X-7179493Y17152921D01*
X-7165207Y17224350D01*
X-7165207Y17281493D01*
X-7179493Y17352921D01*
X-7193779Y17395779D01*
X-7208064Y17424350D01*
X-7236636Y17467207D01*
X-7250922Y17481493D01*
M02*
