M48
;DRILL file {kicad 0.201501280107+5391~20~ubuntu14.10.1-product} date Fre 06 Feb 2015 15:08:11 CET
;FORMAT={-:-/ absolute / metric / decimal}
FMAT,2
METRIC,TZ
T1C0.300
T2C0.900
T3C0.914
T4C1.016
T5C1.300
%
G90
G05
M71
T1
X-122.437Y254.592
X-121.687Y253.342
X-121.687Y225.342
X-120.687Y225.342
X-114.837Y228.342
X-113.587Y228.342
X-97.987Y214.892
X-96.387Y214.192
X-95.087Y213.492
X-93.787Y212.792
X-92.387Y212.292
X-91.087Y211.592
X-89.887Y210.892
X-88.587Y210.092
X-87.387Y209.492
X-85.987Y208.692
X-84.687Y207.992
X-83.434Y207.348
X-82.387Y206.692
X-80.987Y205.992
X-79.787Y205.292
T2
X-133.987Y235.842
X-133.987Y221.342
X-127.987Y235.842
X-127.987Y221.342
T3
X-74.687Y247.132
X-74.687Y244.592
X-74.687Y242.052
T4
X-79.457Y236.172
X-79.457Y233.632
X-79.457Y231.092
X-79.457Y228.552
X-79.457Y226.012
X-78.948Y219.843
X-78.948Y213.341
X-76.917Y236.172
X-76.917Y233.632
X-76.917Y231.092
X-76.917Y228.552
X-76.917Y226.012
X-74.426Y219.843
X-74.426Y213.341
T5
X-133.187Y245.092
X-128.187Y250.092
X-128.187Y247.592
X-128.187Y242.592
X-128.187Y240.092
T0
M30
